G04 #@! TF.GenerationSoftware,KiCad,Pcbnew,(6.0.6)*
G04 #@! TF.CreationDate,2022-07-31T21:57:04+09:00*
G04 #@! TF.ProjectId,nowt36lp-bottom-plate,6e6f7774-3336-46c7-902d-626f74746f6d,rev?*
G04 #@! TF.SameCoordinates,Original*
G04 #@! TF.FileFunction,Legend,Top*
G04 #@! TF.FilePolarity,Positive*
%FSLAX46Y46*%
G04 Gerber Fmt 4.6, Leading zero omitted, Abs format (unit mm)*
G04 Created by KiCad (PCBNEW (6.0.6)) date 2022-07-31 21:57:04*
%MOMM*%
%LPD*%
G01*
G04 APERTURE LIST*
G04 Aperture macros list*
%AMHorizOval*
0 Thick line with rounded ends*
0 $1 width*
0 $2 $3 position (X,Y) of the first rounded end (center of the circle)*
0 $4 $5 position (X,Y) of the second rounded end (center of the circle)*
0 Add line between two ends*
20,1,$1,$2,$3,$4,$5,0*
0 Add two circle primitives to create the rounded ends*
1,1,$1,$2,$3*
1,1,$1,$4,$5*%
G04 Aperture macros list end*
%ADD10C,3.400000*%
%ADD11C,2.400000*%
%ADD12C,1.700000*%
%ADD13HorizOval,2.400000X0.427051X1.593778X-0.427051X-1.593778X0*%
%ADD14HorizOval,2.400000X0.343054X1.613944X-0.343054X-1.613944X0*%
%ADD15HorizOval,2.400000X-0.343054X1.613944X0.343054X-1.613944X0*%
%ADD16HorizOval,2.400000X-0.427051X1.593778X0.427051X-1.593778X0*%
%ADD17HorizOval,2.400000X-0.749084X1.470161X0.749084X-1.470161X0*%
%ADD18C,2.200000*%
%ADD19HorizOval,2.400000X0.057584X1.648995X-0.057584X-1.648995X0*%
%ADD20HorizOval,2.400000X-0.057584X1.648995X0.057584X-1.648995X0*%
%ADD21HorizOval,2.400000X0.201084X1.637701X-0.201084X-1.637701X0*%
%ADD22HorizOval,2.400000X-0.201084X1.637701X0.201084X-1.637701X0*%
%ADD23HorizOval,2.400000X0.749084X1.470161X-0.749084X-1.470161X0*%
%ADD24O,2.200000X30.140000*%
G04 APERTURE END LIST*
%LPC*%
D10*
X130962400Y-65659000D03*
D11*
X125149258Y-68035423D03*
D12*
X125649808Y-64235495D03*
D11*
X129435368Y-71357962D03*
D12*
X136274992Y-67082505D03*
D13*
X124579737Y-59497083D03*
D11*
X106912058Y-61177423D03*
X111198168Y-64499962D03*
D12*
X107412608Y-57377495D03*
D10*
X112725200Y-58801000D03*
D13*
X106342537Y-52639083D03*
D12*
X118037792Y-60224505D03*
D11*
X60536998Y-86014802D03*
X64991121Y-89108471D03*
D14*
X59521395Y-77517971D03*
D10*
X66217800Y-83337400D03*
D12*
X71597612Y-84480914D03*
X60837988Y-82193886D03*
D11*
X245327326Y-88068519D03*
D12*
X254807812Y-82168486D03*
X244048188Y-84455514D03*
D11*
X250654679Y-89083071D03*
D10*
X249428000Y-83312000D03*
D15*
X240943554Y-80719360D03*
D12*
X188133808Y-104191905D03*
D10*
X193446400Y-102768400D03*
D11*
X189600283Y-107733013D03*
D12*
X198758992Y-101344895D03*
D11*
X194973432Y-108467362D03*
D16*
X184837894Y-100623355D03*
D13*
X120210937Y-78039083D03*
D12*
X121281008Y-82777495D03*
X131906192Y-85624505D03*
D11*
X120780458Y-86577423D03*
D10*
X126593600Y-84201000D03*
D11*
X125066568Y-89899962D03*
D12*
X186488464Y-131401948D03*
D17*
X182522630Y-128596638D03*
D12*
X196289536Y-126408052D03*
D11*
X194067544Y-134161938D03*
D10*
X191389000Y-128905000D03*
D11*
X188659131Y-134560777D03*
X116411658Y-105119423D03*
D10*
X122224800Y-102743000D03*
D12*
X116912208Y-101319495D03*
D11*
X120697768Y-108441962D03*
D13*
X115842137Y-96581083D03*
D12*
X127537392Y-104166505D03*
D18*
X135370000Y-110890000D03*
D17*
X216482430Y-111273838D03*
D12*
X230249336Y-109085252D03*
D11*
X222618931Y-117237977D03*
D12*
X220448264Y-114079148D03*
D11*
X228027344Y-116839138D03*
D10*
X225348800Y-111582200D03*
D12*
X43220550Y-67295853D03*
D10*
X48717200Y-67487800D03*
D11*
X43587628Y-71110988D03*
X48511293Y-73384206D03*
D19*
X41111995Y-62919599D03*
D12*
X54213850Y-67679747D03*
X75560012Y-65837314D03*
D11*
X68953521Y-70464871D03*
X64499398Y-67371202D03*
D12*
X64800388Y-63550286D03*
D14*
X63483795Y-58874371D03*
D10*
X70180200Y-64693800D03*
D12*
X83951988Y-65099686D03*
D11*
X88105121Y-72014271D03*
D10*
X89331800Y-66243200D03*
D12*
X94711612Y-67386714D03*
D14*
X82635395Y-60423771D03*
D11*
X83650998Y-68920602D03*
D12*
X190021392Y-64235495D03*
X179396208Y-67082505D03*
D11*
X186235832Y-71357962D03*
D16*
X176100294Y-63513955D03*
D10*
X184708800Y-65659000D03*
D11*
X180862683Y-70623613D03*
D12*
X272425250Y-67270453D03*
D11*
X262064264Y-71434583D03*
X267134507Y-73358806D03*
D10*
X266928600Y-67462400D03*
D12*
X261431950Y-67654347D03*
D20*
X259023259Y-63435840D03*
D12*
X203455664Y-122740548D03*
D11*
X205626331Y-125899377D03*
X211034744Y-125500538D03*
D12*
X213256736Y-117746652D03*
D17*
X199489830Y-119935238D03*
D10*
X208356200Y-120243600D03*
D12*
X216695692Y-94539395D03*
D10*
X211383100Y-95962900D03*
D16*
X202774594Y-93817855D03*
D12*
X206070508Y-97386405D03*
D11*
X212910132Y-101661862D03*
X207536983Y-100927513D03*
D14*
X78647595Y-79067371D03*
D10*
X85344000Y-84886800D03*
D11*
X79663198Y-87564202D03*
D12*
X90723812Y-86030314D03*
D11*
X84117321Y-90657871D03*
D12*
X79964188Y-83743286D03*
X58760450Y-47435947D03*
D11*
X53057893Y-53140406D03*
X48134228Y-50867188D03*
D10*
X53263800Y-47244000D03*
D12*
X47767150Y-47052053D03*
D19*
X45658595Y-42675799D03*
D15*
X213917954Y-45032360D03*
D12*
X217022588Y-48768514D03*
D11*
X223629079Y-53396071D03*
D12*
X227782212Y-46481486D03*
D10*
X222402400Y-47625000D03*
D11*
X218301726Y-52381519D03*
X102816168Y-101685562D03*
D12*
X109655792Y-97410105D03*
D13*
X97960537Y-89824683D03*
D11*
X98530058Y-98363023D03*
D12*
X99030608Y-94563095D03*
D10*
X104343200Y-95986600D03*
D18*
X141970000Y-86200000D03*
D10*
X73761600Y-45643800D03*
D12*
X79220604Y-46314081D03*
D11*
X68335766Y-48806129D03*
D12*
X68302596Y-44973519D03*
D21*
X66583480Y-40430145D03*
D11*
X73042571Y-51499822D03*
D10*
X93294200Y-47599600D03*
D14*
X86597795Y-41780171D03*
D11*
X92067521Y-53370671D03*
D12*
X98674012Y-48743114D03*
X87914388Y-46456086D03*
D11*
X87613398Y-50277002D03*
D12*
X247368604Y-44948119D03*
D11*
X242628629Y-51474422D03*
D10*
X241909600Y-45618400D03*
D22*
X233683404Y-42296158D03*
D11*
X237409973Y-49999422D03*
D12*
X236450596Y-46288681D03*
X250870812Y-63524886D03*
D15*
X237006554Y-62075760D03*
D11*
X241390326Y-69424919D03*
X246717679Y-70439471D03*
D10*
X245491000Y-64668400D03*
D12*
X240111188Y-65811914D03*
D11*
X271020707Y-92332606D03*
D12*
X276311450Y-86244253D03*
D10*
X270814800Y-86436200D03*
D11*
X265950464Y-90408383D03*
D20*
X262909459Y-82409640D03*
D12*
X265318150Y-86628147D03*
D15*
X217854954Y-63650560D03*
D12*
X220959588Y-67386714D03*
D11*
X222238726Y-70999719D03*
D12*
X231719212Y-65099686D03*
D11*
X227566079Y-72014271D03*
D10*
X226339400Y-66243200D03*
X90322400Y-111607600D03*
D23*
X85360349Y-104253306D03*
D12*
X85421864Y-109110652D03*
D11*
X87643856Y-116864538D03*
D12*
X95222936Y-114104548D03*
D11*
X84142203Y-112723472D03*
D18*
X173690000Y-86200000D03*
D11*
X44675893Y-92332606D03*
D19*
X37276595Y-81867999D03*
D11*
X39752228Y-90059388D03*
D10*
X44881800Y-86436200D03*
D12*
X50378450Y-86628147D03*
X39385150Y-86244253D03*
D24*
X150271000Y-88825000D03*
X165451000Y-88905000D03*
D20*
X254502059Y-43217440D03*
D12*
X256910750Y-47435947D03*
D11*
X257543064Y-51216183D03*
X262613307Y-53140406D03*
D12*
X267904050Y-47052053D03*
D10*
X262407400Y-47244000D03*
D18*
X154850000Y-111950000D03*
X161350000Y-111950000D03*
D12*
X197658808Y-60199105D03*
D16*
X194362894Y-56630555D03*
D11*
X204498432Y-64474562D03*
X199125283Y-63740213D03*
D10*
X202971400Y-58775600D03*
D12*
X208283992Y-57352095D03*
X102414464Y-117746652D03*
X112215536Y-122740548D03*
D11*
X101134803Y-121359472D03*
D23*
X102352949Y-112889306D03*
D11*
X104636456Y-125500538D03*
D10*
X107315000Y-120243600D03*
D11*
X203138483Y-82409213D03*
D12*
X212297192Y-76021095D03*
X201672008Y-78868105D03*
D10*
X206984600Y-77444600D03*
D11*
X208511632Y-83143562D03*
D16*
X198376094Y-75299555D03*
D12*
X129163736Y-131381648D03*
D10*
X124263200Y-128884700D03*
D12*
X119362664Y-126387752D03*
D11*
X118083003Y-130000572D03*
D23*
X119301149Y-121530406D03*
D11*
X121584656Y-134141638D03*
D12*
X224947388Y-86030314D03*
D11*
X226226526Y-89643319D03*
D12*
X235707012Y-83743286D03*
D10*
X230327200Y-84886800D03*
D11*
X231553879Y-90657871D03*
D15*
X221842754Y-82294160D03*
D12*
X183765008Y-85624505D03*
D16*
X180469094Y-82055955D03*
D10*
X189077600Y-84201000D03*
D12*
X194390192Y-82777495D03*
D11*
X185231483Y-89165613D03*
X190604632Y-89899962D03*
D18*
X180280000Y-110850000D03*
D11*
X107184968Y-83118162D03*
D10*
X108712000Y-77419200D03*
D11*
X102898858Y-79795623D03*
D12*
X114024592Y-78842705D03*
D13*
X102329337Y-71257283D03*
D12*
X103399408Y-75995695D03*
M02*
