M48
; DRILL file {KiCad (6.0.6)} date 2022年07月31日 21時57分04秒
; FORMAT={-:-/ absolute / metric / decimal}
; #@! TF.CreationDate,2022-07-31T21:57:04+09:00
; #@! TF.GenerationSoftware,Kicad,Pcbnew,(6.0.6)
; #@! TF.FileFunction,NonPlated,1,2,NPTH
FMAT,2
METRIC
; #@! TA.AperFunction,NonPlated,NPTH,ComponentDrill
T1C1.700
; #@! TA.AperFunction,NonPlated,NPTH,ComponentDrill
T2C2.200
; #@! TA.AperFunction,NonPlated,NPTH,ComponentDrill
T3C2.400
; #@! TA.AperFunction,NonPlated,NPTH,ComponentDrill
T4C3.400
%
G90
G05
T1
X39.385Y-86.244
X43.221Y-67.296
X47.767Y-47.052
X50.378Y-86.628
X54.214Y-67.68
X58.76Y-47.436
X60.838Y-82.194
X64.8Y-63.55
X68.303Y-44.974
X71.598Y-84.481
X75.56Y-65.837
X79.221Y-46.314
X79.964Y-83.743
X83.952Y-65.1
X85.422Y-109.111
X87.914Y-46.456
X90.724Y-86.03
X94.712Y-67.387
X95.223Y-114.105
X98.674Y-48.743
X99.031Y-94.563
X102.414Y-117.747
X103.399Y-75.996
X107.413Y-57.377
X109.656Y-97.41
X112.216Y-122.741
X114.025Y-78.843
X116.912Y-101.319
X118.038Y-60.225
X119.363Y-126.388
X121.281Y-82.777
X125.65Y-64.235
X127.537Y-104.167
X129.164Y-131.382
X131.906Y-85.625
X136.275Y-67.083
X179.396Y-67.083
X183.765Y-85.625
X186.488Y-131.402
X188.134Y-104.192
X190.021Y-64.235
X194.39Y-82.777
X196.29Y-126.408
X197.659Y-60.199
X198.759Y-101.345
X201.672Y-78.868
X203.456Y-122.741
X206.071Y-97.386
X208.284Y-57.352
X212.297Y-76.021
X213.257Y-117.747
X216.696Y-94.539
X217.023Y-48.769
X220.448Y-114.079
X220.96Y-67.387
X224.947Y-86.03
X227.782Y-46.481
X230.249Y-109.085
X231.719Y-65.1
X235.707Y-83.743
X236.451Y-46.289
X240.111Y-65.812
X244.048Y-84.456
X247.369Y-44.948
X250.871Y-63.525
X254.808Y-82.168
X256.911Y-47.436
X261.432Y-67.654
X265.318Y-86.628
X267.904Y-47.052
X272.425Y-67.27
X276.311Y-86.244
T2
X135.37Y-110.89
X141.97Y-86.2
X154.85Y-111.95
X161.35Y-111.95
X173.69Y-86.2
X180.28Y-110.85
T3
X39.752Y-90.059
X43.588Y-71.111
X44.676Y-92.333
X48.134Y-50.867
X48.511Y-73.384
X53.058Y-53.14
X60.537Y-86.015
X64.499Y-67.371
X64.991Y-89.108
X68.336Y-48.806
X68.954Y-70.465
X73.043Y-51.5
X79.663Y-87.564
X83.651Y-68.921
X84.117Y-90.658
X84.142Y-112.723
X87.613Y-50.277
X87.644Y-116.865
X88.105Y-72.014
X92.068Y-53.371
X98.53Y-98.363
X101.135Y-121.359
X102.816Y-101.686
X102.899Y-79.796
X104.636Y-125.501
X106.912Y-61.177
X107.185Y-83.118
X111.198Y-64.5
X116.412Y-105.119
X118.083Y-130.001
X120.698Y-108.442
X120.78Y-86.577
X121.585Y-134.142
X125.067Y-89.9
X125.149Y-68.035
X129.435Y-71.358
X180.863Y-70.624
X185.231Y-89.166
X186.236Y-71.358
X188.659Y-134.561
X189.6Y-107.733
X190.605Y-89.9
X194.068Y-134.162
X194.973Y-108.467
X199.125Y-63.74
X203.138Y-82.409
X204.498Y-64.475
X205.626Y-125.899
X207.537Y-100.928
X208.512Y-83.144
X211.035Y-125.501
X212.91Y-101.662
X218.302Y-52.382
X222.239Y-71.0
X222.619Y-117.238
X223.629Y-53.396
X226.227Y-89.643
X227.566Y-72.014
X228.027Y-116.839
X231.554Y-90.658
X237.41Y-49.999
X241.39Y-69.425
X242.629Y-51.474
X245.327Y-88.069
X246.718Y-70.439
X250.655Y-89.083
X257.543Y-51.216
X262.064Y-71.435
X262.613Y-53.14
X265.95Y-90.408
X267.135Y-73.359
X271.021Y-92.333
T4
X44.882Y-86.436
X48.717Y-67.488
X53.264Y-47.244
X66.218Y-83.337
X70.18Y-64.694
X73.762Y-45.644
X85.344Y-84.887
X89.332Y-66.243
X90.322Y-111.608
X93.294Y-47.6
X104.343Y-95.987
X107.315Y-120.244
X108.712Y-77.419
X112.725Y-58.801
X122.225Y-102.743
X124.263Y-128.885
X126.594Y-84.201
X130.962Y-65.659
X184.709Y-65.659
X189.078Y-84.201
X191.389Y-128.905
X193.446Y-102.768
X202.971Y-58.776
X206.985Y-77.445
X208.356Y-120.244
X211.383Y-95.963
X222.402Y-47.625
X225.349Y-111.582
X226.339Y-66.243
X230.327Y-84.887
X241.91Y-45.618
X245.491Y-64.668
X249.428Y-83.312
X262.407Y-47.244
X266.929Y-67.462
X270.815Y-86.436
T2
X150.271Y-74.855G85X150.271Y-102.795
G05
X165.451Y-74.935G85X165.451Y-102.875
G05
T3
X37.219Y-83.517G85X37.334Y-80.219
G05
X41.054Y-64.569G85X41.17Y-61.271
G05
X45.601Y-44.325G85X45.716Y-41.027
G05
X59.178Y-79.132G85X59.864Y-75.904
G05
X63.141Y-60.488G85X63.827Y-57.26
G05
X66.382Y-42.068G85X66.785Y-38.792
G05
X78.305Y-80.681G85X78.991Y-77.453
G05
X82.292Y-62.038G85X82.978Y-58.81
G05
X84.611Y-105.723G85X86.109Y-102.783
G05
X86.255Y-43.394G85X86.941Y-40.166
G05
X97.533Y-91.418G85X98.388Y-88.231
G05
X101.902Y-72.851G85X102.756Y-69.664
G05
X101.604Y-114.359G85X103.102Y-111.419
G05
X105.915Y-54.233G85X106.77Y-51.045
G05
X115.415Y-98.175G85X116.269Y-94.987
G05
X118.552Y-123.001G85X120.05Y-120.06
G05
X119.784Y-79.633G85X120.638Y-76.445
G05
X124.153Y-61.091G85X125.007Y-57.903
G05
X176.527Y-65.108G85X175.673Y-61.92
G05
X180.896Y-83.65G85X180.042Y-80.462
G05
X183.272Y-130.067G85X181.774Y-127.126
G05
X185.265Y-102.217G85X184.411Y-99.03
G05
X194.79Y-58.224G85X193.936Y-55.037
G05
X198.803Y-76.893G85X197.949Y-73.706
G05
X200.239Y-121.405G85X198.741Y-118.465
G05
X203.202Y-95.412G85X202.348Y-92.224
G05
X214.261Y-46.646G85X213.575Y-43.418
G05
X217.232Y-112.744G85X215.733Y-109.804
G05
X218.198Y-65.265G85X217.512Y-62.037
G05
X222.186Y-83.908G85X221.5Y-80.68
G05
X233.884Y-43.934G85X233.482Y-40.658
G05
X237.35Y-63.69G85X236.663Y-60.462
G05
X241.287Y-82.333G85X240.6Y-79.105
G05
X254.56Y-44.866G85X254.444Y-41.568
G05
X259.081Y-65.085G85X258.966Y-61.787
G05
X262.967Y-84.059G85X262.852Y-80.761
G05
T0
M30
