G04 #@! TF.GenerationSoftware,KiCad,Pcbnew,(6.0.6)*
G04 #@! TF.CreationDate,2022-07-31T21:57:04+09:00*
G04 #@! TF.ProjectId,nowt36lp-bottom-plate,6e6f7774-3336-46c7-902d-626f74746f6d,rev?*
G04 #@! TF.SameCoordinates,Original*
G04 #@! TF.FileFunction,Profile,NP*
%FSLAX46Y46*%
G04 Gerber Fmt 4.6, Leading zero omitted, Abs format (unit mm)*
G04 Created by KiCad (PCBNEW (6.0.6)) date 2022-07-31 21:57:04*
%MOMM*%
%LPD*%
G01*
G04 APERTURE LIST*
G04 #@! TA.AperFunction,Profile*
%ADD10C,0.349999*%
G04 #@! TD*
G04 APERTURE END LIST*
D10*
X151742534Y-67123022D02*
X151683917Y-67118698D01*
X282671999Y-97345199D02*
X282732287Y-97270482D01*
X208948337Y-38628761D02*
X208890424Y-38705336D01*
X278512815Y-56775788D02*
X278492585Y-56679767D01*
X84938112Y-33541320D02*
X84887636Y-33534541D01*
X33356517Y-74523857D02*
X33332947Y-74566176D01*
X32783330Y-97103850D02*
X32836921Y-97186051D01*
X41744901Y-36161920D02*
X41711016Y-36253479D01*
X154022743Y-79110357D02*
X153955434Y-79101804D01*
X188950069Y-50132331D02*
X188909276Y-50159134D01*
X163772413Y-67140238D02*
X163715581Y-67153020D01*
X75938316Y-95127973D02*
X75938316Y-95127973D01*
X163715581Y-67153020D02*
X163659538Y-67168539D01*
X75354411Y-97066932D02*
X75388593Y-97031896D01*
X239683311Y-117714575D02*
X239773832Y-117665530D01*
X42636948Y-35150457D02*
X42552405Y-35199835D01*
X74958700Y-115297687D02*
X74929845Y-115391472D01*
X281616779Y-97997038D02*
X281712699Y-97971340D01*
X273993751Y-36537442D02*
X273973521Y-36441424D01*
X32485223Y-96082349D02*
X32489109Y-96181051D01*
X151971058Y-67168511D02*
X151915014Y-67152991D01*
X41636517Y-36537413D02*
X41620982Y-36634604D01*
X185863232Y-143949711D02*
X185944712Y-144003680D01*
X152822246Y-77909887D02*
X152817051Y-77841585D01*
X146010368Y-58909097D02*
X145958231Y-58706881D01*
X240704096Y-115402161D02*
X240675053Y-115306422D01*
X259039589Y-93533800D02*
X259039589Y-93533800D01*
X162851218Y-68016797D02*
X162838397Y-68073620D01*
X152815300Y-77772375D02*
X152815300Y-77772375D01*
X239996498Y-96559194D02*
X240008008Y-96607446D01*
X40963051Y-55204386D02*
X39154152Y-55141216D01*
X240604954Y-97280491D02*
X240650866Y-97297468D01*
X107098957Y-39605683D02*
X107083521Y-39509348D01*
X41711016Y-36253479D02*
X41681607Y-36346688D01*
X127138761Y-51143313D02*
X127145542Y-51094574D01*
X278545021Y-57070200D02*
X278545021Y-57070200D01*
X75111188Y-116911434D02*
X75161179Y-116995604D01*
X56369606Y-97399194D02*
X56399009Y-97305990D01*
X63657922Y-33016098D02*
X63589784Y-33083852D01*
X145724009Y-58137108D02*
X145621644Y-57961196D01*
X152947935Y-78355458D02*
X152921001Y-78295883D01*
X126903225Y-50321164D02*
X126870025Y-50285194D01*
X129911236Y-143840038D02*
X129984384Y-143775388D01*
X161539585Y-79115526D02*
X161470375Y-79117277D01*
X152875773Y-78172317D02*
X152857648Y-78108494D01*
X281428764Y-74030987D02*
X281377296Y-74031477D01*
X210097755Y-37917533D02*
X209997627Y-37941477D01*
X272056515Y-34901850D02*
X271957313Y-34902859D01*
X151800654Y-67130207D02*
X151742534Y-67123022D01*
X37117522Y-56775759D02*
X37101987Y-56872949D01*
X252581032Y-34223130D02*
X252581032Y-34223130D01*
X283014394Y-96766647D02*
X283047012Y-96674632D01*
X56156912Y-97837228D02*
X56207963Y-97753890D01*
X56423863Y-97211299D02*
X56444092Y-97115280D01*
X152830800Y-77977195D02*
X152822246Y-77909887D01*
X209534716Y-38129140D02*
X209450356Y-38179217D01*
X278404446Y-56400311D02*
X278366161Y-56310568D01*
X278545021Y-57070200D02*
X278539106Y-56971166D01*
X63300460Y-33469606D02*
X63253849Y-33555387D01*
X41978913Y-35734536D02*
X41923745Y-35815420D01*
X282319357Y-74609709D02*
X282297799Y-74566142D01*
X129835321Y-143900775D02*
X129911236Y-143840038D01*
X84236193Y-33690238D02*
X84196586Y-33717324D01*
X38476066Y-55234649D02*
X38383865Y-55266570D01*
X208739519Y-38950315D02*
X208697152Y-39036562D01*
X230942114Y-33532892D02*
X230892895Y-33529577D01*
X75280819Y-97132012D02*
X75318469Y-97100328D01*
X33091762Y-97487863D02*
X33164304Y-97554906D01*
X185500843Y-143624449D02*
X185566870Y-143696506D01*
X37192021Y-56491833D02*
X37162613Y-56585040D01*
X74692733Y-97350607D02*
X74741505Y-97347615D01*
X282608244Y-97416925D02*
X282671999Y-97345199D01*
X188612587Y-50481239D02*
X188612587Y-50481239D01*
X126505009Y-50045586D02*
X126458384Y-50029299D01*
X56042558Y-97996370D02*
X56101753Y-97918109D01*
X240472259Y-97215978D02*
X240515563Y-97239730D01*
X240430000Y-97190000D02*
X240430000Y-97190000D01*
X231268439Y-33620671D02*
X231224293Y-33601551D01*
X277060670Y-55207244D02*
X276965639Y-55184417D01*
X271957313Y-34902859D02*
X271957313Y-34902859D01*
X161870315Y-79056807D02*
X161806493Y-79074931D01*
X231311562Y-33641855D02*
X231268439Y-33620671D01*
X188485064Y-51094600D02*
X188491846Y-51143340D01*
X278438327Y-56491867D02*
X278404446Y-56400311D01*
X162222336Y-78887576D02*
X162167768Y-78922560D01*
X259206830Y-97211354D02*
X259231688Y-97306053D01*
X106328833Y-38282765D02*
X106249799Y-38225562D01*
X282320965Y-97671321D02*
X282397381Y-97612858D01*
X153824134Y-79074960D02*
X153760311Y-79056836D01*
X130185549Y-143558508D02*
X130245946Y-143478754D01*
X162374672Y-78767880D02*
X162325872Y-78810152D01*
X152581679Y-67598888D02*
X152545676Y-67552699D01*
X126410805Y-50015278D02*
X126410805Y-50015278D01*
X208557304Y-40289649D02*
X209471168Y-44589130D01*
X283144295Y-95983167D02*
X282411476Y-74995939D01*
X75272935Y-117155753D02*
X75334471Y-117231463D01*
X33730206Y-74158104D02*
X33688756Y-74182686D01*
X42995106Y-34996279D02*
X42902901Y-35028199D01*
X63463361Y-33229086D02*
X63405357Y-33306346D01*
X240312117Y-97100377D02*
X240349769Y-97132062D01*
X239996498Y-96559194D02*
X239996498Y-96559194D01*
X187735203Y-144172884D02*
X187826304Y-144134704D01*
X34415306Y-98051779D02*
X34415306Y-98051779D01*
X75200592Y-97189947D02*
X75241510Y-97161909D01*
X75241510Y-97161909D02*
X75280819Y-97132012D01*
X152133476Y-67231097D02*
X152080387Y-67207605D01*
X153636743Y-79011611D02*
X153577168Y-78984678D01*
X126934695Y-50358805D02*
X126903225Y-50321164D01*
X64873382Y-32472991D02*
X64774622Y-32483366D01*
X144615753Y-56979003D02*
X144436649Y-56880484D01*
X75073250Y-115024587D02*
X75073250Y-115024587D01*
X107063407Y-39413880D02*
X107038647Y-39319453D01*
X75399623Y-117304083D02*
X75468278Y-117373478D01*
X37306813Y-56222760D02*
X37264194Y-56310532D01*
X153045006Y-78524338D02*
X153010022Y-78469770D01*
X54506842Y-98750884D02*
X54605542Y-98747001D01*
X240240927Y-117294241D02*
X240305593Y-117221100D01*
X153255946Y-78767916D02*
X153209237Y-78723384D01*
X163946670Y-67118725D02*
X163888056Y-67123050D01*
X240276175Y-97066978D02*
X240312117Y-97100377D01*
X240704899Y-116458633D02*
X240727961Y-116365435D01*
X231745196Y-34083073D02*
X231722149Y-34039458D01*
X127714760Y-144091429D02*
X127807633Y-144135844D01*
X260638886Y-98683866D02*
X260733925Y-98706686D01*
X281377189Y-74031446D02*
X279140053Y-74109571D01*
X231325661Y-96906362D02*
X231325661Y-96906362D01*
X282384137Y-74795255D02*
X282371289Y-74747298D01*
X151858180Y-67140210D02*
X151800654Y-67130207D01*
X65074175Y-32467108D02*
X64973280Y-32467536D01*
X33222394Y-74944599D02*
X33219299Y-74995977D01*
X282159668Y-97777194D02*
X282241687Y-97726143D01*
X281377296Y-74031477D02*
X281377296Y-74031477D01*
X63109582Y-33923632D02*
X63084760Y-34021427D01*
X283131894Y-96288358D02*
X283141111Y-96187886D01*
X282788985Y-97192904D02*
X282841972Y-97112595D01*
X186969628Y-144309394D02*
X187067248Y-144308883D01*
X240747204Y-115595312D02*
X240728128Y-115498514D01*
X74855631Y-115970687D02*
X74859878Y-116068323D01*
X74861435Y-115775651D02*
X74856155Y-115873071D01*
X84121408Y-33777059D02*
X84085987Y-33809611D01*
X74868910Y-116165802D02*
X74882741Y-116262946D01*
X41610219Y-36732801D02*
X41604301Y-36831840D01*
X126870025Y-50285194D02*
X126835167Y-50250950D01*
X32486229Y-95983145D02*
X32486229Y-95983145D01*
X273462010Y-35508341D02*
X273391151Y-35438906D01*
X241035867Y-97349461D02*
X241084895Y-97345240D01*
X252581032Y-34223130D02*
X252565906Y-34121295D01*
X106738265Y-38702699D02*
X106678469Y-38624080D01*
X128770170Y-144304402D02*
X128866086Y-144294905D01*
X281768999Y-74096458D02*
X281722996Y-74080146D01*
X152809474Y-68189280D02*
X152802252Y-68131161D01*
X127126000Y-50754705D02*
X127113774Y-50707394D01*
X281813962Y-74114927D02*
X281768999Y-74096458D01*
X241133833Y-97338583D02*
X241182594Y-97329473D01*
X34253410Y-74031446D02*
X34201941Y-74030960D01*
X240123866Y-96876849D02*
X240150507Y-96917716D01*
X186115595Y-144099615D02*
X186204728Y-144141349D01*
X259375892Y-97668344D02*
X259422769Y-97753983D01*
X41656750Y-36441387D02*
X41636517Y-36537413D01*
X185784573Y-143891893D02*
X185863232Y-143949711D01*
X126595110Y-50084739D02*
X126550607Y-50064084D01*
X163888056Y-67123050D02*
X163829937Y-67130235D01*
X240645607Y-116641124D02*
X240677429Y-116550586D01*
X162838397Y-68073620D02*
X162828355Y-68131137D01*
X273077994Y-35199926D02*
X272993462Y-35150545D01*
X259186597Y-97115327D02*
X259206830Y-97211354D01*
X63049591Y-34223130D02*
X63049591Y-34223130D01*
X32648052Y-96843924D02*
X32688833Y-96932620D01*
X54703574Y-98738289D02*
X54800771Y-98724809D01*
X187826304Y-144134704D02*
X187915794Y-144091879D01*
X189035505Y-50084765D02*
X188992168Y-50107523D01*
X64302775Y-32605198D02*
X64213777Y-32642790D01*
X126721338Y-50159109D02*
X126680546Y-50132306D01*
X282020893Y-74237520D02*
X281982108Y-74209170D01*
X282297799Y-74566142D02*
X282274226Y-74523825D01*
X282241687Y-97726143D02*
X282320965Y-97671321D01*
X188479172Y-50947959D02*
X188478739Y-50996822D01*
X282841972Y-97112595D02*
X282891128Y-97029684D01*
X37353687Y-56137124D02*
X37306813Y-56222760D01*
X273706566Y-35815500D02*
X273651406Y-35734621D01*
X75553924Y-96791335D02*
X75574383Y-96746867D01*
X129331228Y-144179942D02*
X129420185Y-144143837D01*
X273592211Y-35656360D02*
X273529055Y-35580880D01*
X38117921Y-55388830D02*
X38033381Y-55438208D01*
X84158299Y-33746280D02*
X84121408Y-33777059D01*
X189125606Y-50045612D02*
X189080007Y-50064110D01*
X37951172Y-55491794D02*
X37871459Y-55549527D01*
X75065276Y-116824715D02*
X75111188Y-116911434D01*
X231578532Y-33843877D02*
X231544654Y-33809598D01*
X54605542Y-98747001D02*
X54703574Y-98738289D01*
X169620201Y-58909078D02*
X167804481Y-67119737D01*
X152921001Y-78295883D02*
X152896918Y-78234808D01*
X240349769Y-97132062D02*
X240389080Y-97161961D01*
X37404744Y-56053784D02*
X37353687Y-56137124D01*
X259294983Y-97490823D02*
X259333273Y-97580570D01*
X282936331Y-96944303D02*
X282977460Y-96856580D01*
X281479646Y-74033078D02*
X281428764Y-74030987D01*
X38204626Y-55343723D02*
X38117921Y-55388830D01*
X230641899Y-33550740D02*
X210097755Y-37917533D01*
X188567404Y-50569284D02*
X188548242Y-50614608D01*
X129507391Y-144103490D02*
X129592677Y-144058956D01*
X74871458Y-115678604D02*
X74861435Y-115775651D01*
X74448036Y-97329428D02*
X74496795Y-97338536D01*
X64677138Y-32498551D02*
X64581071Y-32518436D01*
X56470386Y-96919906D02*
X56476303Y-96820875D01*
X74741505Y-97347615D02*
X74790019Y-97342253D01*
X32733946Y-97019317D02*
X32783330Y-97103850D01*
X231610791Y-33879832D02*
X231578532Y-33843877D01*
X63729157Y-32951731D02*
X63657922Y-33016098D01*
X144056829Y-56719955D02*
X143857101Y-56658977D01*
X55912358Y-98144391D02*
X55979402Y-98071852D01*
X163829937Y-67130235D02*
X163772413Y-67140238D01*
X186389702Y-144211775D02*
X186389702Y-144211775D01*
X127996575Y-144209204D02*
X128092306Y-144238257D01*
X84052110Y-33843889D02*
X84019852Y-33879844D01*
X56591003Y-93533800D02*
X74448036Y-97329428D01*
X83712486Y-34745198D02*
X65278396Y-32481777D01*
X252457622Y-33734699D02*
X252419306Y-33643784D01*
X187454003Y-144259407D02*
X187548875Y-144235249D01*
X259160298Y-96919938D02*
X259171062Y-97018135D01*
X63524884Y-33154885D02*
X63463361Y-33229086D01*
X250757225Y-32472986D02*
X250657327Y-32467531D01*
X65175927Y-32471819D02*
X65074175Y-32467108D01*
X75158335Y-97215923D02*
X75200592Y-97189947D01*
X33861708Y-74096456D02*
X33816746Y-74114928D01*
X261223305Y-98749883D02*
X281215385Y-98051725D01*
X231434052Y-33717309D02*
X231394443Y-33690222D01*
X75540320Y-117439514D02*
X75615634Y-117502055D01*
X161470375Y-79117277D02*
X157815300Y-79117300D01*
X54991995Y-98683797D02*
X55085689Y-98656389D01*
X107073311Y-40289652D02*
X107073311Y-40289652D01*
X34151059Y-74033056D02*
X34100827Y-74037672D01*
X271957313Y-34902859D02*
X252746864Y-35573707D01*
X231670155Y-33956581D02*
X231641357Y-33917417D01*
X231697110Y-33997278D02*
X231670155Y-33956581D01*
X74448036Y-97329428D02*
X74448036Y-97329428D01*
X163164009Y-67465448D02*
X163123302Y-67508198D01*
X63049591Y-34223130D02*
X62883735Y-35573707D01*
X163251331Y-67386423D02*
X163206787Y-67424769D01*
X250556432Y-32467105D02*
X250454680Y-32471817D01*
X273885383Y-36161979D02*
X273847099Y-36072238D01*
X281318149Y-98045529D02*
X281419383Y-98034262D01*
X281579392Y-74044765D02*
X281529877Y-74037692D01*
X75574383Y-96746867D02*
X75592681Y-96701345D01*
X240076667Y-96791365D02*
X240099236Y-96834707D01*
X276674207Y-55144047D02*
X276575503Y-55140166D01*
X56591003Y-93533800D02*
X56591003Y-93533800D01*
X188478739Y-50996822D02*
X188480699Y-51045732D01*
X277981056Y-55746652D02*
X277910194Y-55677215D01*
X152236017Y-67285772D02*
X152185386Y-67257166D01*
X188491846Y-51143340D02*
X188501055Y-51191861D01*
X128285443Y-144281387D02*
X128382511Y-144295573D01*
X231133231Y-33569698D02*
X231086464Y-33557061D01*
X32579736Y-96661201D02*
X32611666Y-96753396D01*
X55841499Y-98213827D02*
X55841499Y-98213827D01*
X208521599Y-39689214D02*
X208514970Y-39787651D01*
X250352211Y-32481777D02*
X250352211Y-32481777D01*
X55357109Y-98547300D02*
X55443806Y-98502190D01*
X152423813Y-67424748D02*
X152379269Y-67386402D01*
X130121710Y-143634568D02*
X130185549Y-143558508D01*
X209009895Y-38554976D02*
X208948337Y-38628761D01*
X74986148Y-116644164D02*
X75023557Y-116735580D01*
X170122631Y-57793118D02*
X170008940Y-57961164D01*
X127117904Y-51240051D02*
X127129553Y-51191835D01*
X84688508Y-33532904D02*
X84639792Y-33538623D01*
X161932806Y-79035662D02*
X161870315Y-79056807D01*
X157815300Y-79117300D02*
X157815300Y-79117300D01*
X84639792Y-33538623D02*
X84591652Y-33546697D01*
X37085304Y-57070179D02*
X36490547Y-74109571D01*
X162799803Y-77977161D02*
X162787976Y-78043391D01*
X128673685Y-144309272D02*
X128770170Y-144304402D01*
X251049538Y-32518427D02*
X250953471Y-32498543D01*
X240761377Y-115692386D02*
X240747204Y-115595312D01*
X33502319Y-74333116D02*
X33469648Y-74368282D01*
X152080387Y-67207605D02*
X152026215Y-67186729D01*
X107009274Y-39226242D02*
X106975320Y-39134422D01*
X75608767Y-96654840D02*
X75622590Y-96607427D01*
X145507958Y-57793151D02*
X145383444Y-57633490D01*
X56297443Y-97580488D02*
X56335726Y-97490747D01*
X33246626Y-74795293D02*
X33236122Y-74844197D01*
X152896918Y-78234808D02*
X152875773Y-78172317D01*
X240775240Y-115886686D02*
X240770705Y-115789567D01*
X42101282Y-35580789D02*
X42038116Y-35656272D01*
X152379269Y-67386402D02*
X152333056Y-67350430D01*
X55528339Y-98452809D02*
X55610541Y-98399221D01*
X41604301Y-36831840D02*
X40963051Y-55204386D01*
X188487171Y-50850724D02*
X188481986Y-50899230D01*
X170382004Y-57482693D02*
X170247150Y-57633456D01*
X169737777Y-58510441D02*
X169672339Y-58706859D01*
X208890424Y-38705336D02*
X208836252Y-38784553D01*
X152817051Y-77841585D02*
X152815300Y-77772375D01*
X171193983Y-56880456D02*
X171014872Y-56978973D01*
X33688756Y-74182686D02*
X33648608Y-74209184D01*
X187261724Y-144293604D02*
X187358227Y-144278864D01*
X208514970Y-39787651D02*
X208513244Y-39886941D01*
X152857648Y-78108494D02*
X152842629Y-78043426D01*
X281529877Y-74037692D02*
X281479646Y-74033078D01*
X281982108Y-74209170D02*
X281941957Y-74182676D01*
X106936817Y-39044167D02*
X106893799Y-38955651D01*
X240241993Y-97031940D02*
X240276175Y-97066978D01*
X145621644Y-57961196D02*
X145507958Y-57793151D01*
X281215385Y-98051725D02*
X281318149Y-98045529D01*
X274667549Y-55204386D02*
X274025963Y-36831844D01*
X162167768Y-78922560D02*
X162111446Y-78954945D01*
X240305593Y-117221100D02*
X240366345Y-117145193D01*
X33022323Y-97417005D02*
X33022323Y-97417005D01*
X260273731Y-98547394D02*
X260362437Y-98588167D01*
X273391151Y-35438906D02*
X273391151Y-35438906D01*
X41923745Y-35815420D02*
X41872686Y-35898762D01*
X127129553Y-51191835D02*
X127138761Y-51143313D01*
X127018020Y-50481214D02*
X127018020Y-50481214D01*
X260102480Y-98452910D02*
X260187023Y-98502288D01*
X84406337Y-33601567D02*
X84362192Y-33620687D01*
X32836921Y-97186051D02*
X32894659Y-97265755D01*
X152507300Y-67508180D02*
X152466591Y-67465429D01*
X252491580Y-33828018D02*
X252457622Y-33734699D01*
X74856155Y-115873071D02*
X74855631Y-115970687D01*
X41825810Y-35984400D02*
X41783191Y-36072173D01*
X74885921Y-97324477D02*
X74933134Y-97312098D01*
X277679229Y-55491820D02*
X277597025Y-55438230D01*
X186677362Y-144282242D02*
X186774508Y-144296087D01*
X62883735Y-35573707D02*
X62883735Y-35573707D01*
X74838187Y-97334534D02*
X74885921Y-97324477D01*
X185636257Y-143765175D02*
X185708870Y-143830343D01*
X231918114Y-34745198D02*
X231918114Y-34745198D01*
X37720192Y-55677183D02*
X37649326Y-55746618D01*
X278276676Y-56137161D02*
X278225622Y-56053821D01*
X251670565Y-32780037D02*
X251588339Y-32730313D01*
X56207963Y-97753890D02*
X56254831Y-97668256D01*
X36490547Y-74109571D02*
X36490547Y-74109571D01*
X164005684Y-67117300D02*
X163946670Y-67118725D01*
X34218083Y-98035108D02*
X34316273Y-98045865D01*
X83864470Y-34128079D02*
X83845630Y-34174418D01*
X186389702Y-144211775D02*
X186484782Y-144240100D01*
X162465913Y-78676638D02*
X162421381Y-78723347D01*
X231325661Y-96906362D02*
X239692283Y-95127973D01*
X127151433Y-50947933D02*
X127148618Y-50899204D01*
X188727387Y-50321189D02*
X188695916Y-50358830D01*
X240475891Y-116985756D02*
X240524574Y-116902564D01*
X240557304Y-115024580D02*
X231325661Y-96906362D01*
X240389080Y-97161961D02*
X240430000Y-97190000D01*
X277425791Y-55343739D02*
X277337093Y-55302961D01*
X241182594Y-97329473D02*
X241182594Y-97329473D01*
X186028878Y-144053687D02*
X186115595Y-144099615D01*
X145814558Y-58320370D02*
X145724009Y-58137108D01*
X162816766Y-68247862D02*
X162815300Y-68306875D01*
X33772891Y-74135498D02*
X33730206Y-74158104D01*
X251588339Y-32730313D02*
X251503715Y-32684524D01*
X281898376Y-97906424D02*
X281987891Y-97867464D01*
X42552405Y-35199835D02*
X42470193Y-35253421D01*
X240008008Y-96607446D02*
X240021830Y-96654861D01*
X38383865Y-55266570D02*
X38293330Y-55302949D01*
X259940554Y-98341591D02*
X260020269Y-98399324D01*
X64581071Y-32518436D02*
X64486562Y-32542912D01*
X163550211Y-67207632D02*
X163497122Y-67231124D01*
X145958231Y-58706881D02*
X145892797Y-58510466D01*
X63960049Y-32780048D02*
X63880361Y-32833597D01*
X283145285Y-96086112D02*
X283144295Y-95983167D01*
X34100827Y-74037672D02*
X34051311Y-74044750D01*
X163497122Y-67231124D02*
X163445213Y-67257192D01*
X240601712Y-115117463D02*
X240557304Y-115024580D01*
X162772958Y-78108459D02*
X162754835Y-78172280D01*
X32611666Y-96753396D02*
X32648052Y-96843924D01*
X107115666Y-39800257D02*
X107109683Y-39702711D01*
X240697474Y-97312154D02*
X240744690Y-97324533D01*
X32489109Y-96181051D02*
X32497824Y-96279084D01*
X34253410Y-74031446D02*
X34253410Y-74031446D01*
X33836978Y-97945099D02*
X33930183Y-97974501D01*
X209450356Y-38179217D02*
X209368964Y-38233128D01*
X208785918Y-38866262D02*
X208739519Y-38950315D01*
X153209237Y-78723384D02*
X153164704Y-78676675D01*
X163445213Y-67257192D02*
X163394582Y-67285797D01*
X161993881Y-79011580D02*
X161932806Y-79035662D01*
X252419306Y-33643784D02*
X252376772Y-33555380D01*
X153577168Y-78984678D02*
X153519176Y-78954977D01*
X75634102Y-96559179D02*
X75634102Y-96559179D01*
X210097755Y-37917533D02*
X210097755Y-37917533D01*
X208595208Y-39306979D02*
X208569936Y-39400513D01*
X84837363Y-33530358D02*
X84787368Y-33528723D01*
X187548875Y-144235249D02*
X187642667Y-144206404D01*
X127041749Y-50524774D02*
X127018020Y-50481214D01*
X152724670Y-67851467D02*
X152701143Y-67798392D01*
X251416834Y-32642779D02*
X251327836Y-32605188D01*
X32552325Y-96567506D02*
X32579736Y-96661201D01*
X240430000Y-97190000D02*
X240472259Y-97215978D01*
X127143433Y-50850698D02*
X127135890Y-50802502D01*
X107109683Y-39702711D02*
X107098957Y-39605683D01*
X186871989Y-144305133D02*
X186969628Y-144309394D01*
X33536615Y-74299563D02*
X33502319Y-74333116D01*
X259171062Y-97018135D02*
X259186597Y-97115327D01*
X282977460Y-96856580D02*
X283014394Y-96766647D01*
X162955571Y-67746504D02*
X162929468Y-67798394D01*
X143857101Y-56658977D02*
X143857101Y-56658977D01*
X163297543Y-67350453D02*
X163251331Y-67386423D01*
X153519176Y-78954977D02*
X153462854Y-78922593D01*
X278323547Y-56222797D02*
X278276676Y-56137161D01*
X127018020Y-50481214D02*
X126992163Y-50438884D01*
X127099225Y-50660657D02*
X127082363Y-50614583D01*
X260830131Y-98724861D02*
X260927338Y-98738331D01*
X282192066Y-74404972D02*
X282161082Y-74368256D01*
X128576801Y-144309460D02*
X128673685Y-144309272D01*
X126883636Y-52114342D02*
X127117904Y-51240051D01*
X240770705Y-115789567D02*
X240761377Y-115692386D01*
X65278396Y-32481777D02*
X65278396Y-32481777D01*
X163123302Y-67508198D02*
X163084928Y-67552714D01*
X163206787Y-67424769D02*
X163164009Y-67465448D01*
X259718416Y-98144497D02*
X259789284Y-98213934D01*
X259651363Y-98071957D02*
X259718416Y-98144497D01*
X147826111Y-67119737D02*
X146010368Y-58909097D01*
X37519111Y-55894639D02*
X37459910Y-55972902D01*
X170843625Y-57088971D02*
X170680735Y-57209935D01*
X75615634Y-117502055D02*
X75694105Y-117560967D01*
X189172231Y-50029325D02*
X189125606Y-50045612D01*
X107038647Y-39319453D02*
X107009274Y-39226242D01*
X151624901Y-67117273D02*
X147826111Y-67119737D01*
X209143557Y-38416375D02*
X209075001Y-38484131D01*
X281628127Y-74054240D02*
X281579392Y-74044765D01*
X282411476Y-74995939D02*
X282411476Y-74995939D01*
X163394582Y-67285797D02*
X163345326Y-67316897D01*
X63351010Y-33386556D02*
X63300460Y-33469606D01*
X186296142Y-144178774D02*
X186389702Y-144211775D01*
X42902901Y-35028199D02*
X42812363Y-35064577D01*
X129148735Y-144239204D02*
X129240688Y-144211749D01*
X34002576Y-74054228D02*
X33954688Y-74066045D01*
X169620201Y-58909078D02*
X169620201Y-58909078D01*
X187915794Y-144091879D02*
X239683311Y-117714575D01*
X161741424Y-79089950D02*
X161675194Y-79101778D01*
X185566870Y-143696506D02*
X185636257Y-143765175D01*
X153082504Y-78577068D02*
X153045006Y-78524338D01*
X170680735Y-57209935D02*
X170526697Y-57341348D01*
X56399009Y-97305990D02*
X56423863Y-97211299D01*
X231801642Y-34222044D02*
X231785017Y-34174414D01*
X65278396Y-32481777D02*
X65175927Y-32471819D01*
X106159431Y-44589130D02*
X107073311Y-40289652D01*
X126992163Y-50438884D02*
X126964364Y-50398063D01*
X252521040Y-33923629D02*
X252491580Y-33828018D01*
X188504604Y-50754730D02*
X188494714Y-50802528D01*
X272993462Y-35150545D02*
X272906766Y-35105435D01*
X33259470Y-74747335D02*
X33246626Y-74795293D01*
X172937660Y-119100477D02*
X185225838Y-143217397D01*
X208658913Y-39124854D02*
X208624899Y-39215043D01*
X185225838Y-143217397D02*
X185273038Y-143304659D01*
X209997627Y-37941477D02*
X209899885Y-37970150D01*
X240037914Y-96701369D02*
X240056210Y-96746894D01*
X74933134Y-97312098D02*
X74979740Y-97297411D01*
X75451478Y-96957196D02*
X75480080Y-96917679D01*
X33954688Y-74066045D02*
X33907710Y-74080141D01*
X126638446Y-50107498D02*
X126595110Y-50084739D01*
X162053456Y-78984646D02*
X161993881Y-79011580D01*
X38569767Y-55207246D02*
X38476066Y-55234649D01*
X83845630Y-34174418D02*
X83829004Y-34222046D01*
X273804486Y-35984471D02*
X273757617Y-35898837D01*
X41604301Y-36831840D02*
X41604301Y-36831840D01*
X32894659Y-97265755D02*
X32956480Y-97342795D01*
X39154152Y-55141216D02*
X39054945Y-55140198D01*
X127807633Y-144135844D02*
X127901627Y-144175084D01*
X162905941Y-67851466D02*
X162885030Y-67905622D01*
X63405357Y-33306346D02*
X63351010Y-33386556D01*
X188909276Y-50159134D02*
X188869861Y-50187878D01*
X33318052Y-97677254D02*
X33398934Y-97732412D01*
X152977637Y-78413449D02*
X152947935Y-78355458D01*
X169906571Y-58137077D02*
X169816019Y-58320342D01*
X272906766Y-35105435D02*
X272818071Y-35064657D01*
X162885030Y-67905622D02*
X162866775Y-67960765D01*
X171380462Y-56793937D02*
X171193983Y-56880456D01*
X41872686Y-35898762D02*
X41825810Y-35984400D01*
X84319070Y-33641871D02*
X84277046Y-33665071D01*
X171573817Y-56719933D02*
X171380462Y-56793937D01*
X126410805Y-50015278D02*
X106159431Y-44589130D01*
X37582275Y-55819157D02*
X37519111Y-55894639D01*
X252167257Y-33229076D02*
X252105734Y-33154875D01*
X32497824Y-96279084D02*
X32511307Y-96376281D01*
X231472339Y-33746266D02*
X231434052Y-33717309D01*
X282058249Y-74267664D02*
X282020893Y-74237520D01*
X37871459Y-55549527D02*
X37794411Y-55611344D01*
X143857101Y-56658977D02*
X126883636Y-52114342D01*
X277835980Y-55611374D02*
X277758936Y-55549555D01*
X42313426Y-35372972D02*
X42239204Y-35438812D01*
X152802252Y-68131161D02*
X152792211Y-68073639D01*
X157815300Y-79117300D02*
X154160255Y-79117300D01*
X74790019Y-97342253D02*
X74838187Y-97334534D01*
X240209620Y-96995335D02*
X240241993Y-97031940D01*
X185273038Y-143304659D02*
X185324274Y-143389111D01*
X273948667Y-36346733D02*
X273919263Y-36253531D01*
X231353589Y-33665055D02*
X231311562Y-33641855D01*
X106405027Y-38343789D02*
X106328833Y-38282765D01*
X283117754Y-96387398D02*
X283131894Y-96288358D01*
X231766177Y-34128074D02*
X231745196Y-34083073D01*
X162984209Y-67695894D02*
X162955571Y-67746504D01*
X251750253Y-32833585D02*
X251670565Y-32780037D01*
X55268412Y-98588078D02*
X55357109Y-98547300D01*
X74924853Y-116455524D02*
X74953163Y-116550604D01*
X33816746Y-74114928D02*
X33772891Y-74135498D01*
X172937660Y-119100477D02*
X172937660Y-119100477D01*
X154160255Y-79117300D02*
X154091045Y-79115550D01*
X276869441Y-55166234D02*
X276772242Y-55152757D01*
X84591652Y-33546697D02*
X84544162Y-33557076D01*
X276476295Y-55141178D02*
X274667549Y-55204386D01*
X281900506Y-74158096D02*
X281857819Y-74135493D01*
X251503715Y-32684524D02*
X251416834Y-32642779D01*
X84362192Y-33620687D02*
X84319070Y-33641871D01*
X75334471Y-117231463D02*
X75399623Y-117304083D01*
X75070777Y-97261183D02*
X75115035Y-97239674D01*
X145892797Y-58510466D02*
X145814558Y-58320370D01*
X209711947Y-38041083D02*
X209621945Y-38083045D01*
X147826111Y-67119737D02*
X147826111Y-67119737D01*
X152792211Y-68073639D02*
X152779392Y-68016811D01*
X83802696Y-34320979D02*
X83712486Y-34745198D01*
X37101987Y-56872949D02*
X37091223Y-56971142D01*
X209471168Y-44589130D02*
X209471168Y-44589130D01*
X54407638Y-98749876D02*
X54407638Y-98749876D01*
X240557304Y-115024580D02*
X240557304Y-115024580D01*
X259154381Y-96820898D02*
X259160298Y-96919938D01*
X34201941Y-74030960D02*
X34151059Y-74033056D01*
X74901384Y-116359579D02*
X74924853Y-116455524D01*
X239944231Y-117555761D02*
X240024001Y-117495376D01*
X63589784Y-33083852D02*
X63524884Y-33154885D01*
X127149907Y-51045706D02*
X127151867Y-50996796D01*
X240775038Y-115983574D02*
X240775240Y-115886686D01*
X281857819Y-74135493D02*
X281813962Y-74114927D01*
X43377258Y-34914413D02*
X43280053Y-34927882D01*
X105908175Y-38036962D02*
X105817130Y-38000368D01*
X63084760Y-34021427D02*
X63064717Y-34121296D01*
X74886210Y-115582107D02*
X74871458Y-115678604D01*
X42812363Y-35064577D02*
X42723656Y-35105351D01*
X75694105Y-117560967D02*
X75775617Y-117616114D01*
X240889113Y-97347669D02*
X240937888Y-97350659D01*
X240179108Y-96957236D02*
X240209620Y-96995335D01*
X250454680Y-32471817D02*
X250352211Y-32481777D01*
X56459624Y-97018095D02*
X56470386Y-96919906D01*
X75073250Y-115024587D02*
X75030416Y-115114068D01*
X144786993Y-57089003D02*
X144615753Y-56979003D01*
X250855987Y-32483360D02*
X250757225Y-32472986D01*
X83908497Y-34039465D02*
X83885451Y-34083079D01*
X278539106Y-56971166D02*
X278528346Y-56872975D01*
X209471168Y-44589130D02*
X189219810Y-50015304D01*
X250657327Y-32467531D02*
X250556432Y-32467105D01*
X33745424Y-97911221D02*
X33836978Y-97945099D01*
X162548111Y-78577030D02*
X162508185Y-78627838D01*
X185379410Y-143470636D02*
X185438311Y-143549121D01*
X83960490Y-33956591D02*
X83933535Y-33997286D01*
X252225262Y-33306337D02*
X252167257Y-33229076D01*
X252105734Y-33154875D02*
X252040833Y-33083842D01*
X163164009Y-67465448D02*
X163164009Y-67465448D01*
X278366161Y-56310568D02*
X278323547Y-56222797D01*
X272818071Y-35064657D02*
X272727545Y-35028273D01*
X277758936Y-55549555D02*
X277679229Y-55491820D01*
X63880361Y-32833597D02*
X63803350Y-32890861D01*
X64213777Y-32642790D02*
X64126897Y-32684536D01*
X279140053Y-74109571D02*
X279140053Y-74109571D01*
X153355555Y-78850114D02*
X153304747Y-78810188D01*
X260187023Y-98502288D02*
X260273731Y-98547394D01*
X38033381Y-55438208D02*
X37951172Y-55491794D01*
X128188651Y-144262300D02*
X128285443Y-144281387D01*
X274020045Y-36732813D02*
X274009284Y-36634626D01*
X84887636Y-33534541D02*
X84837363Y-33530358D01*
X33228023Y-74893986D02*
X33222394Y-74944599D01*
X259863504Y-98279774D02*
X259940554Y-98341591D01*
X84451430Y-33584560D02*
X84406337Y-33601567D01*
X106615101Y-38548779D02*
X106548308Y-38476897D01*
X188831895Y-50218510D02*
X188795446Y-50250975D01*
X273160195Y-35253514D02*
X273077994Y-35199926D01*
X107104836Y-40094259D02*
X107113275Y-39996205D01*
X127063201Y-50569259D02*
X127041749Y-50524774D01*
X241084895Y-97345240D02*
X241133833Y-97338583D01*
X276575503Y-55140166D02*
X276476295Y-55141178D01*
X33655680Y-97872940D02*
X33745424Y-97911221D01*
X151683917Y-67118698D02*
X151624901Y-67117273D01*
X274009284Y-36634626D02*
X273993751Y-36537442D01*
X282356167Y-74700347D02*
X282338834Y-74654464D01*
X281712699Y-97971340D02*
X281806605Y-97941092D01*
X130054599Y-143706880D02*
X130121710Y-143634568D01*
X129055538Y-144262251D02*
X129148735Y-144239204D01*
X38293330Y-55302949D02*
X38204626Y-55343723D01*
X152466591Y-67465429D02*
X152423813Y-67424748D01*
X144949877Y-57209969D02*
X144786993Y-57089003D01*
X259039589Y-93533800D02*
X259154381Y-96820898D01*
X152646401Y-67695885D02*
X152615267Y-67646649D01*
X162733690Y-78234771D02*
X162709609Y-78295846D01*
X273391151Y-35438906D02*
X273316940Y-35373066D01*
X128961265Y-144280837D02*
X129055538Y-144262251D01*
X75025650Y-97280434D02*
X75070777Y-97261183D01*
X162813550Y-77841553D02*
X162808356Y-77909853D01*
X240100076Y-117431548D02*
X240172403Y-117364446D01*
X281518967Y-98018056D02*
X281616779Y-97997038D01*
X84196586Y-33717324D02*
X84158299Y-33746280D01*
X127113774Y-50707394D02*
X127099225Y-50660657D01*
X129240688Y-144211749D02*
X129331228Y-144179942D01*
X252330160Y-33469598D02*
X252279610Y-33386547D01*
X127117904Y-51240051D02*
X127117904Y-51240051D01*
X283144295Y-95983167D02*
X283144295Y-95983167D01*
X127148618Y-50899204D02*
X127143433Y-50850698D01*
X144436649Y-56880484D02*
X144250176Y-56793963D01*
X75161179Y-116995604D02*
X75215133Y-117077089D01*
X129984384Y-143775388D02*
X130054599Y-143706880D01*
X126964364Y-50398063D02*
X126934695Y-50358805D01*
X54896967Y-98706625D02*
X54991995Y-98683797D01*
X152285273Y-67316873D02*
X152236017Y-67285772D01*
X152763835Y-67960774D02*
X152745581Y-67905627D01*
X127082363Y-50614583D02*
X127063201Y-50569259D01*
X162821131Y-68189250D02*
X162816766Y-68247862D01*
X185708870Y-143830343D02*
X185784573Y-143891893D01*
X231394443Y-33690222D02*
X231353589Y-33665055D01*
X273529055Y-35580880D02*
X273462010Y-35508341D01*
X152813837Y-68247898D02*
X152809474Y-68189280D01*
X106893799Y-38955651D02*
X106846296Y-38869049D01*
X106548308Y-38476897D02*
X106478234Y-38408533D01*
X187067248Y-144308883D02*
X187164673Y-144303615D01*
X239773832Y-117665530D02*
X239860823Y-117612536D01*
X130404800Y-143217878D02*
X142692940Y-119100477D01*
X152333056Y-67350430D02*
X152285273Y-67316873D01*
X83802696Y-34320979D02*
X83802696Y-34320979D01*
X74859878Y-116068323D02*
X74868910Y-116165802D01*
X171773552Y-56658960D02*
X171773552Y-56658960D01*
X274025963Y-36831844D02*
X274025963Y-36831844D01*
X145103909Y-57341382D02*
X144949877Y-57209969D01*
X230641899Y-33550740D02*
X230641899Y-33550740D01*
X162325872Y-78810152D02*
X162275065Y-78850079D01*
X259789284Y-98213934D02*
X259863504Y-98279774D01*
X33022323Y-97417005D02*
X33091762Y-97487863D01*
X162815300Y-68306875D02*
X162815300Y-68306875D01*
X283141111Y-96187886D02*
X283145285Y-96086112D01*
X37794411Y-55611344D02*
X37720192Y-55677183D01*
X56335726Y-97490747D02*
X56369606Y-97399194D01*
X167804481Y-67119737D02*
X164005684Y-67117300D01*
X38956241Y-55144072D02*
X38858204Y-55152776D01*
X74953163Y-116550604D02*
X74953163Y-116550604D01*
X63173000Y-33734704D02*
X63139042Y-33828022D01*
X83712486Y-34745198D02*
X83712486Y-34745198D01*
X282411476Y-74995939D02*
X282408379Y-74944561D01*
X54800771Y-98724809D02*
X54896967Y-98706625D01*
X37459910Y-55972902D02*
X37404744Y-56053784D01*
X162929468Y-67798394D02*
X162905941Y-67851466D01*
X240524574Y-116902564D02*
X240569124Y-116817282D01*
X250352211Y-32481777D02*
X231918114Y-34745198D01*
X154091045Y-79115550D02*
X154022743Y-79110357D01*
X185324274Y-143389111D02*
X185379410Y-143470636D01*
X272350439Y-34927925D02*
X272253244Y-34914446D01*
X84988716Y-33550745D02*
X84938112Y-33541320D01*
X188746956Y-52114342D02*
X171773552Y-56658960D01*
X142692940Y-119100477D02*
X142692940Y-119100477D01*
X188666246Y-50398088D02*
X188638446Y-50438909D01*
X32956480Y-97342795D02*
X33022323Y-97417005D01*
X43673218Y-34902861D02*
X43574007Y-34901840D01*
X282541141Y-97485530D02*
X282608244Y-97416925D01*
X231179199Y-33584544D02*
X231133231Y-33569698D01*
X162275065Y-78850079D02*
X162222336Y-78887576D01*
X130355741Y-143308384D02*
X130404800Y-143217878D01*
X32688833Y-96932620D02*
X32733946Y-97019317D01*
X208836252Y-38784553D02*
X208785918Y-38866262D01*
X152185386Y-67257166D02*
X152133476Y-67231097D01*
X152815300Y-77772375D02*
X152815300Y-68306917D01*
X231224293Y-33601551D02*
X231179199Y-33584544D01*
X106159431Y-44589130D02*
X106159431Y-44589130D01*
X43088810Y-34968877D02*
X42995106Y-34996279D01*
X283047012Y-96674632D02*
X283075192Y-96580665D01*
X240099236Y-96834707D02*
X240123866Y-96876849D01*
X277246563Y-55266578D02*
X277154366Y-55234651D01*
X240423129Y-117066688D02*
X240475891Y-116985756D01*
X32529494Y-96472478D02*
X32552325Y-96567506D01*
X272446633Y-34946110D02*
X272350439Y-34927925D01*
X146010368Y-58909097D02*
X146010368Y-58909097D01*
X38664801Y-55184425D02*
X38569767Y-55207246D01*
X105817130Y-38000368D02*
X105724121Y-37968198D01*
X33482274Y-97783462D02*
X33567910Y-97830329D01*
X75388593Y-97031896D02*
X75420965Y-96995293D01*
X282470813Y-97550885D02*
X282541141Y-97485530D01*
X282408379Y-74944561D02*
X282402746Y-74893947D01*
X84304947Y-96906362D02*
X75073250Y-115024587D01*
X163084928Y-67552714D02*
X163048928Y-67598901D01*
X282397381Y-97612858D02*
X282470813Y-97550885D01*
X241182594Y-97329473D02*
X259039589Y-93533800D01*
X240744690Y-97324533D02*
X240792427Y-97334590D01*
X83933535Y-33997286D02*
X83908497Y-34039465D01*
X64486562Y-32542912D02*
X64393750Y-32571869D01*
X127145542Y-51094574D02*
X127149907Y-51045706D01*
X282221294Y-74443179D02*
X282192066Y-74404972D01*
X277910194Y-55677215D02*
X277910194Y-55677215D01*
X281806605Y-97941092D02*
X281898376Y-97906424D01*
X55979402Y-98071852D02*
X56042558Y-97996370D01*
X130302733Y-143395361D02*
X130355741Y-143308384D01*
X153955434Y-79101804D02*
X153889203Y-79089977D01*
X171014872Y-56978973D02*
X170843625Y-57088971D01*
X33438667Y-74404999D02*
X33409441Y-74443208D01*
X277910194Y-55677215D02*
X277835980Y-55611374D01*
X55610541Y-98399221D02*
X55690246Y-98341486D01*
X259588198Y-97996473D02*
X259651363Y-98071957D01*
X153164704Y-78676675D02*
X153122431Y-78627875D01*
X153462854Y-78922593D02*
X153408285Y-78887611D01*
X240937888Y-97350659D02*
X240986835Y-97351262D01*
X127714760Y-144091429D02*
X127714760Y-144091429D01*
X188512703Y-51240078D02*
X188512703Y-51240078D01*
X75200592Y-97189947D02*
X75200592Y-97189947D01*
X240024001Y-117495376D02*
X240100076Y-117431548D01*
X56476303Y-96820875D02*
X56476303Y-96820875D01*
X162815300Y-77772344D02*
X162813550Y-77841553D01*
X130245946Y-143478754D02*
X130302733Y-143395361D01*
X188760587Y-50285219D02*
X188727387Y-50321189D01*
X252545862Y-34021425D02*
X252521040Y-33923629D01*
X231038972Y-33546682D02*
X230990831Y-33538610D01*
X274667549Y-55204386D02*
X274667549Y-55204386D01*
X240021830Y-96654861D02*
X240037914Y-96701369D01*
X64042274Y-32730325D02*
X63960049Y-32780048D01*
X129592677Y-144058956D02*
X129675873Y-144010288D01*
X273757617Y-35898837D02*
X273706566Y-35815500D01*
X251827265Y-32890849D02*
X251750253Y-32833585D01*
X33219299Y-74995977D02*
X32486229Y-95983145D01*
X162828355Y-68131137D02*
X162821131Y-68189250D01*
X128866086Y-144294905D02*
X128961265Y-144280837D01*
X34316273Y-98045865D02*
X34415306Y-98051779D01*
X260545181Y-98656465D02*
X260638886Y-98683866D01*
X152701143Y-67798392D02*
X152675040Y-67746499D01*
X128382511Y-144295573D02*
X128479687Y-144304912D01*
X261025380Y-98747033D02*
X261124091Y-98750904D01*
X74594759Y-97349411D02*
X74643788Y-97351211D01*
X252040833Y-33083842D02*
X251972694Y-33016087D01*
X84988716Y-33550745D02*
X84988716Y-33550745D01*
X259154381Y-96820898D02*
X259154381Y-96820898D01*
X75634102Y-96559179D02*
X75938316Y-95127973D01*
X63211315Y-33643790D02*
X63173000Y-33734704D01*
X74979740Y-97297411D02*
X75025650Y-97280434D01*
X105724121Y-37968198D02*
X105629295Y-37940551D01*
X209621945Y-38083045D02*
X209534716Y-38129140D01*
X187642667Y-144206404D02*
X187735203Y-144172884D01*
X188480699Y-51045732D02*
X188485064Y-51094600D01*
X83989287Y-33917427D02*
X83960490Y-33956591D01*
X282248703Y-74482817D02*
X282221294Y-74443179D01*
X37649326Y-55746618D02*
X37582275Y-55819157D01*
X282402746Y-74893947D02*
X282394644Y-74844158D01*
X42168336Y-35508248D02*
X42101282Y-35580789D01*
X33332947Y-74566176D02*
X33311393Y-74609744D01*
X230742981Y-33534533D02*
X230692504Y-33541314D01*
X106794342Y-38784535D02*
X106738265Y-38702699D01*
X163604382Y-67186757D02*
X163550211Y-67207632D01*
X276772242Y-55152757D02*
X276674207Y-55144047D01*
X240640943Y-115211466D02*
X240601712Y-115117463D01*
X209290636Y-38290725D02*
X209215468Y-38351856D01*
X74545732Y-97345192D02*
X74594759Y-97349411D01*
X240150507Y-96917716D02*
X240179108Y-96957236D01*
X152545676Y-67552699D02*
X152507300Y-67508180D01*
X152745581Y-67905627D02*
X152724670Y-67851467D01*
X188992168Y-50107523D02*
X188950069Y-50132331D01*
X126550607Y-50064084D02*
X126505009Y-50045586D01*
X272155214Y-34905733D02*
X272056515Y-34901850D01*
X283075192Y-96580665D02*
X283098813Y-96484878D01*
X161607886Y-79110332D02*
X161539585Y-79115526D01*
X162585608Y-78524301D02*
X162548111Y-78577030D01*
X41681607Y-36346688D02*
X41656750Y-36441387D01*
X189080007Y-50064110D02*
X189035505Y-50084765D01*
X63139042Y-33828022D02*
X63109582Y-33923632D01*
X188695916Y-50358830D02*
X188666246Y-50398088D01*
X64973280Y-32467536D02*
X64873382Y-32472991D01*
X231785017Y-34174414D02*
X231766177Y-34128074D01*
X231827949Y-34320980D02*
X231827949Y-34320980D01*
X33609825Y-74237536D02*
X33572472Y-74267683D01*
X63064717Y-34121296D02*
X63049591Y-34223130D01*
X54407638Y-98749876D02*
X54506842Y-98750884D01*
X152615267Y-67646649D02*
X152581679Y-67598888D01*
X75420965Y-96995293D02*
X75451478Y-96957196D01*
X106975320Y-39134422D02*
X106936817Y-39044167D01*
X186484782Y-144240100D02*
X186580727Y-144263584D01*
X252279610Y-33386547D02*
X252225262Y-33306337D01*
X230692504Y-33541314D02*
X230641899Y-33550740D01*
X127135890Y-50802502D02*
X127126000Y-50754705D01*
X154160255Y-79117300D02*
X154160255Y-79117300D01*
X240675053Y-115306422D02*
X240640943Y-115211466D01*
X272541659Y-34968937D02*
X272446633Y-34946110D01*
X240569124Y-116817282D02*
X240609487Y-116730079D01*
X33219299Y-74995977D02*
X33219299Y-74995977D01*
X189219810Y-50015304D02*
X189219810Y-50015304D01*
X163659538Y-67168539D02*
X163604382Y-67186757D01*
X75592681Y-96701345D02*
X75608767Y-96654840D01*
X74953163Y-116550604D02*
X74986148Y-116644164D01*
X43574007Y-34901840D02*
X43475298Y-34905711D01*
X162111446Y-78954945D02*
X162053456Y-78984646D01*
X252565906Y-34121295D02*
X252545862Y-34021425D01*
X107113275Y-39996205D02*
X107116874Y-39898147D01*
X240366345Y-117145193D02*
X240423129Y-117066688D01*
X153889203Y-79089977D02*
X153824134Y-79074960D01*
X240677429Y-116550586D02*
X240704899Y-116458633D01*
X282338834Y-74654464D02*
X282319357Y-74609709D01*
X153122431Y-78627875D02*
X153082504Y-78577068D01*
X129675873Y-144010288D02*
X129756811Y-143957543D01*
X231086464Y-33557061D02*
X231038972Y-33546682D01*
X278170460Y-55972939D02*
X278111262Y-55894675D01*
X208549179Y-39495496D02*
X208533034Y-39591780D01*
X75947304Y-117714575D02*
X75947304Y-117714575D01*
X56254831Y-97668256D02*
X56297443Y-97580488D01*
X42239204Y-35438812D02*
X42168336Y-35508248D01*
X43475298Y-34905711D02*
X43377258Y-34914413D01*
X153010022Y-78469770D02*
X152977637Y-78413449D01*
X55085689Y-98656389D02*
X55177884Y-98624462D01*
X33311393Y-74609744D02*
X33291918Y-74654500D01*
X208624899Y-39215043D02*
X208595208Y-39306979D01*
X240792427Y-97334590D02*
X240840597Y-97342307D01*
X260020269Y-98399324D02*
X260102480Y-98452910D01*
X34120897Y-98019578D02*
X34218083Y-98035108D01*
X33398934Y-97732412D02*
X33482274Y-97783462D01*
X171773552Y-56658960D02*
X171573817Y-56719933D01*
X260927338Y-98738331D02*
X261025380Y-98747033D01*
X162421381Y-78723347D02*
X162374672Y-78767880D01*
X33567910Y-97830329D02*
X33655680Y-97872940D01*
X33382036Y-74482847D02*
X33356517Y-74523857D01*
X106678469Y-38624080D02*
X106615101Y-38548779D01*
X209075001Y-38484131D02*
X209009895Y-38554976D01*
X208524888Y-40087483D02*
X208538451Y-40188437D01*
X188638446Y-50438909D02*
X188612587Y-50481239D01*
X105997111Y-38077879D02*
X105908175Y-38036962D01*
X281722996Y-74080146D02*
X281676017Y-74066053D01*
X37162613Y-56585040D02*
X37137755Y-56679736D01*
X163015341Y-67646660D02*
X162984209Y-67695894D01*
X145248596Y-57482728D02*
X145103909Y-57341382D01*
X84497396Y-33569713D02*
X84451430Y-33584560D01*
X277597025Y-55438230D02*
X277512490Y-55388849D01*
X188746956Y-52114342D02*
X188746956Y-52114342D01*
X186580727Y-144263584D02*
X186677362Y-144282242D01*
X128092306Y-144238257D02*
X128188651Y-144262300D01*
X186204728Y-144141349D02*
X186296142Y-144178774D01*
X282732287Y-97270482D02*
X282788985Y-97192904D01*
X126835167Y-50250950D02*
X126798719Y-50218485D01*
X106249799Y-38225562D02*
X106168069Y-38172279D01*
X188516830Y-50707419D02*
X188504604Y-50754730D01*
X169816019Y-58320342D02*
X169737777Y-58510441D01*
X259789284Y-98213934D02*
X259789284Y-98213934D01*
X281676017Y-74066053D02*
X281628127Y-74054240D01*
X276476295Y-55141178D02*
X276476295Y-55141178D01*
X167804481Y-67119737D02*
X167804481Y-67119737D01*
X84277046Y-33665071D02*
X84236193Y-33690238D01*
X151624901Y-67117273D02*
X151624901Y-67117273D01*
X34415306Y-98051779D02*
X54407638Y-98749876D01*
X33930183Y-97974501D02*
X34024876Y-97999352D01*
X33907710Y-74080141D02*
X33861708Y-74096456D01*
X239860823Y-117612536D02*
X239944231Y-117555761D01*
X63253849Y-33555387D02*
X63211315Y-33643790D01*
X162652975Y-78413411D02*
X162620591Y-78469733D01*
X281987891Y-97867464D02*
X282075029Y-97824344D01*
X282161082Y-74368256D02*
X282128408Y-74333093D01*
X38858204Y-55152776D02*
X38761003Y-55166247D01*
X74882741Y-116262946D02*
X74901384Y-116359579D01*
X75622590Y-96607427D02*
X75634102Y-96559179D01*
X273239899Y-35311248D02*
X273160195Y-35253514D01*
X162815300Y-68306875D02*
X162815300Y-77772344D01*
X105532799Y-37917529D02*
X105532799Y-37917529D01*
X208533034Y-39591780D02*
X208521599Y-39689214D01*
X107073311Y-40289652D02*
X107091526Y-40192132D01*
X127901627Y-144175084D02*
X127996575Y-144209204D01*
X272253244Y-34914446D02*
X272155214Y-34905733D01*
X128479687Y-144304912D02*
X128576801Y-144309460D01*
X282371289Y-74747298D02*
X282356167Y-74700347D01*
X231544654Y-33809598D02*
X231509231Y-33777045D01*
X273919263Y-36253531D02*
X273885383Y-36161979D01*
X252746864Y-35573707D02*
X252746864Y-35573707D01*
X153408285Y-78887611D02*
X153355555Y-78850114D01*
X186774508Y-144296087D02*
X186871989Y-144305133D01*
X282274226Y-74523825D02*
X282248703Y-74482817D01*
X231641357Y-33917417D02*
X231610791Y-33879832D01*
X208697152Y-39036562D02*
X208658913Y-39124854D01*
X231509231Y-33777045D02*
X231472339Y-33746266D01*
X239683311Y-117714575D02*
X239683311Y-117714575D01*
X37720192Y-55677183D02*
X37720192Y-55677183D01*
X106168069Y-38172279D02*
X106083791Y-38123018D01*
X84304947Y-96906362D02*
X84304947Y-96906362D01*
X75506723Y-96876814D02*
X75531354Y-96834675D01*
X261124091Y-98750904D02*
X261223305Y-98749883D01*
X33648608Y-74209184D02*
X33609825Y-74237536D01*
X277512490Y-55388849D02*
X277425791Y-55343739D01*
X208516518Y-39986934D02*
X208524888Y-40087483D01*
X240840597Y-97342307D02*
X240889113Y-97347669D01*
X55767287Y-98279667D02*
X55841499Y-98213827D01*
X105532799Y-37917529D02*
X84988716Y-33550745D01*
X282128408Y-74333093D02*
X282094108Y-74299542D01*
X63803350Y-32890861D02*
X63729157Y-32951731D01*
X251144048Y-32542902D02*
X251049538Y-32518427D01*
X33291918Y-74654500D02*
X33274589Y-74700384D01*
X107116874Y-39898147D02*
X107115666Y-39800257D01*
X259261097Y-97399263D02*
X259294983Y-97490823D01*
X74643788Y-97351211D02*
X74692733Y-97350607D01*
X185438311Y-143549121D02*
X185500843Y-143624449D01*
X84544162Y-33557076D02*
X84497396Y-33569713D01*
X251972694Y-33016087D02*
X251901458Y-32951720D01*
X276965639Y-55184417D02*
X276869441Y-55166234D01*
X152815300Y-68306917D02*
X152815300Y-68306917D01*
X259231688Y-97306053D02*
X259261097Y-97399263D01*
X185225838Y-143217397D02*
X185225838Y-143217397D01*
X240609487Y-116730079D02*
X240645607Y-116641124D01*
X209368964Y-38233128D02*
X209290636Y-38290725D01*
X230892895Y-33529577D02*
X230843251Y-33528713D01*
X32486229Y-95983145D02*
X32485223Y-96082349D01*
X37264194Y-56310532D02*
X37225906Y-56400276D01*
X105629295Y-37940551D02*
X105532799Y-37917529D01*
X239692283Y-95127973D02*
X239692283Y-95127973D01*
X38761003Y-55166247D02*
X38664801Y-55184425D01*
X75480080Y-96917679D02*
X75506723Y-96876814D01*
X240727961Y-116365435D02*
X240746561Y-116271162D01*
X170526697Y-57341348D02*
X170382004Y-57482693D01*
X107083521Y-39509348D02*
X107063407Y-39413880D01*
X64126897Y-32684536D02*
X64042274Y-32730325D01*
X75468278Y-117373478D02*
X75540320Y-117439514D01*
X189219810Y-50015304D02*
X189172231Y-50029325D01*
X162866775Y-67960765D02*
X162851218Y-68016797D01*
X261223305Y-98749883D02*
X261223305Y-98749883D01*
X43183848Y-34946058D02*
X43088810Y-34968877D01*
X33164304Y-97554906D02*
X33239788Y-97618061D01*
X283098813Y-96484878D02*
X283117754Y-96387398D01*
X75115035Y-97239674D02*
X75158335Y-97215923D01*
X42470193Y-35253421D02*
X42390478Y-35311154D01*
X126458384Y-50029299D02*
X126410805Y-50015278D01*
X152026215Y-67186729D02*
X151971058Y-67168511D01*
X240770155Y-116080062D02*
X240775038Y-115983574D01*
X251236860Y-32571859D02*
X251144048Y-32542902D01*
X251327836Y-32605188D02*
X251236860Y-32571859D01*
X188501055Y-51191861D02*
X188512703Y-51240078D01*
X163345326Y-67316897D02*
X163297543Y-67350453D01*
X129420185Y-144143837D02*
X129507391Y-144103490D01*
X188588857Y-50524799D02*
X188567404Y-50569284D01*
X230990831Y-33538610D02*
X230942114Y-33532892D01*
X83885451Y-34083079D02*
X83864470Y-34128079D01*
X34024876Y-97999352D02*
X34120897Y-98019578D01*
X162754835Y-78172280D02*
X162733690Y-78234771D01*
X42723656Y-35105351D02*
X42636948Y-35150457D01*
X106794342Y-38784535D02*
X106794342Y-38784535D01*
X41783191Y-36072173D02*
X41744901Y-36161920D01*
X208513244Y-39886941D02*
X208516518Y-39986934D01*
X33236122Y-74844197D02*
X33228023Y-74893986D01*
X42390478Y-35311154D02*
X42313426Y-35372972D01*
X75318469Y-97100328D02*
X75354411Y-97066932D01*
X277337093Y-55302961D02*
X277246563Y-55266578D01*
X37091223Y-56971142D02*
X37085304Y-57070179D01*
X240515563Y-97239730D02*
X240559823Y-97261239D01*
X152779392Y-68016811D02*
X152763835Y-67960774D01*
X37137755Y-56679736D02*
X37117522Y-56775759D01*
X152842629Y-78043426D02*
X152830800Y-77977195D01*
X40963051Y-55204386D02*
X40963051Y-55204386D01*
X55443806Y-98502190D02*
X55528339Y-98452809D01*
X282891128Y-97029684D02*
X282936331Y-96944303D01*
X187915794Y-144091879D02*
X187915794Y-144091879D01*
X187358227Y-144278864D02*
X187454003Y-144259407D01*
X161470375Y-79117277D02*
X161470375Y-79117277D01*
X75215133Y-117077089D02*
X75272935Y-117155753D01*
X126883636Y-52114342D02*
X126883636Y-52114342D01*
X231827949Y-34320980D02*
X231815978Y-34270916D01*
X75531354Y-96834675D02*
X75553924Y-96791335D01*
X75860055Y-117667361D02*
X75947304Y-117714575D01*
X250953471Y-32498543D02*
X250855987Y-32483360D01*
X251901458Y-32951720D02*
X251827265Y-32890849D01*
X130404800Y-143217878D02*
X130404800Y-143217878D01*
X188548242Y-50614608D02*
X188531380Y-50660683D01*
X274025963Y-36831844D02*
X274020045Y-36732813D01*
X259528995Y-97918209D02*
X259588198Y-97996473D01*
X33469648Y-74368282D02*
X33438667Y-74404999D01*
X278225622Y-56053821D02*
X278170460Y-55972939D01*
X162620591Y-78469733D02*
X162585608Y-78524301D01*
X239692283Y-95127973D02*
X239996498Y-96559194D01*
X161675194Y-79101778D02*
X161607886Y-79110332D01*
X259473827Y-97837325D02*
X259528995Y-97918209D01*
X42239204Y-35438812D02*
X42239204Y-35438812D01*
X74929845Y-115391472D02*
X74905677Y-115486338D01*
X240746561Y-116271162D02*
X240760644Y-116175981D01*
X74905677Y-115486338D02*
X74886210Y-115582107D01*
X209899885Y-37970150D02*
X209804627Y-38003401D01*
X126680546Y-50132306D02*
X126638446Y-50107498D01*
X277154366Y-55234651D02*
X277060670Y-55207244D01*
X230793255Y-33530349D02*
X230742981Y-33534533D01*
X162508185Y-78627838D02*
X162465913Y-78676638D01*
X84085987Y-33809611D02*
X84052110Y-33843889D01*
X260733925Y-98706686D02*
X260830131Y-98724861D01*
X55690246Y-98341486D02*
X55767287Y-98279667D01*
X231815978Y-34270916D02*
X231801642Y-34222044D01*
X145383444Y-57633490D02*
X145248596Y-57482728D01*
X240760644Y-116175981D02*
X240770155Y-116080062D01*
X152815300Y-68306917D02*
X152813837Y-68247898D01*
X43280053Y-34927882D02*
X43183848Y-34946058D01*
X41620982Y-36634604D02*
X41610219Y-36732801D01*
X273973521Y-36441424D02*
X273948667Y-36346733D01*
X278048103Y-55819193D02*
X277981056Y-55746652D01*
X55177884Y-98624462D02*
X55268412Y-98588078D01*
X55841499Y-98213827D02*
X55912358Y-98144391D01*
X106083791Y-38123018D02*
X105997111Y-38077879D01*
X37225906Y-56400276D02*
X37192021Y-56491833D01*
X188869861Y-50187878D02*
X188831895Y-50218510D01*
X64393750Y-32571869D02*
X64302775Y-32605198D01*
X157815300Y-119100477D02*
X172937660Y-119100477D01*
X153304747Y-78810188D02*
X153255946Y-78767916D01*
X240056210Y-96746894D02*
X240076667Y-96791365D01*
X188531380Y-50660683D02*
X188516830Y-50707419D01*
X37085304Y-57070179D02*
X37085304Y-57070179D01*
X163048928Y-67598901D02*
X163015341Y-67646660D01*
X208538451Y-40188437D02*
X208557304Y-40289649D01*
X162709609Y-78295846D02*
X162682676Y-78355421D01*
X188481986Y-50899230D02*
X188479172Y-50947959D01*
X39154152Y-55141216D02*
X39154152Y-55141216D01*
X34253410Y-74031446D02*
X36490547Y-74109571D01*
X278492585Y-56679767D02*
X278467732Y-56585072D01*
X169672339Y-58706859D02*
X169620201Y-58909078D01*
X39054945Y-55140198D02*
X38956241Y-55144072D01*
X170247150Y-57633456D02*
X170122631Y-57793118D01*
X129756811Y-143957543D02*
X129835321Y-143900775D01*
X84019852Y-33879844D02*
X83989287Y-33917427D01*
X240172403Y-117364446D02*
X240240927Y-117294241D01*
X240728128Y-115498514D02*
X240704096Y-115402161D01*
X188494714Y-50802528D02*
X188487171Y-50850724D01*
X106478234Y-38408533D02*
X106405027Y-38343789D01*
X272635352Y-34996346D02*
X272541659Y-34968937D01*
X153697819Y-79035692D02*
X153636743Y-79011611D01*
X188512703Y-51240078D02*
X188746956Y-52114342D01*
X33274589Y-74700384D02*
X33259470Y-74747335D01*
X42038116Y-35656272D02*
X41978913Y-35734536D01*
X162815300Y-77772344D02*
X162815300Y-77772344D01*
X278467732Y-56585072D02*
X278438327Y-56491867D01*
X74992229Y-115205160D02*
X74958700Y-115297687D01*
X83814668Y-34270916D02*
X83802696Y-34320979D01*
X164005684Y-67117300D02*
X164005684Y-67117300D01*
X75023557Y-116735580D02*
X75065276Y-116824715D01*
X170008940Y-57961164D02*
X169906571Y-58137077D01*
X84737724Y-33529588D02*
X84688508Y-33532904D01*
X188795446Y-50250975D02*
X188760587Y-50285219D01*
X231918114Y-34745198D02*
X231827949Y-34320980D01*
X208569936Y-39400513D02*
X208549179Y-39495496D01*
X185944712Y-144003680D02*
X186028878Y-144053687D01*
X188612587Y-50481239D02*
X188588857Y-50524799D01*
X252746864Y-35573707D02*
X252581032Y-34223130D01*
X43673218Y-34902861D02*
X43673218Y-34902861D01*
X107091526Y-40192132D02*
X107104836Y-40094259D01*
X272727545Y-35028273D02*
X272635352Y-34996346D01*
X260452976Y-98624545D02*
X260545181Y-98656465D01*
X162787976Y-78043391D02*
X162772958Y-78108459D01*
X282394644Y-74844158D02*
X282384137Y-74795255D01*
X281215385Y-98051725D02*
X281215385Y-98051725D01*
X75775617Y-117616114D02*
X75860055Y-117667361D01*
X74496795Y-97338536D02*
X74545732Y-97345192D01*
X273847099Y-36072238D02*
X273804486Y-35984471D01*
X187164673Y-144303615D02*
X187261724Y-144293604D01*
X282075029Y-97824344D02*
X282159668Y-97777194D01*
X240650866Y-97297468D02*
X240697474Y-97312154D01*
X32511307Y-96376281D02*
X32529494Y-96472478D01*
X84787368Y-33528723D02*
X84737724Y-33529588D01*
X144250176Y-56793963D02*
X144056829Y-56719955D01*
X151915014Y-67152991D02*
X151858180Y-67140210D01*
X142692940Y-119100477D02*
X157815300Y-119100477D01*
X240986835Y-97351262D02*
X241035867Y-97349461D01*
X153760311Y-79056836D02*
X153697819Y-79035692D01*
X281941957Y-74182676D02*
X281900506Y-74158096D01*
X75030416Y-115114068D02*
X74992229Y-115205160D01*
X240559823Y-97261239D02*
X240604954Y-97280491D01*
X126798719Y-50218485D02*
X126760752Y-50187853D01*
X209215468Y-38351856D02*
X209143557Y-38416375D01*
X208557304Y-40289649D02*
X208557304Y-40289649D01*
X161806493Y-79074931D02*
X161741424Y-79089950D01*
X127151867Y-50996796D02*
X127151433Y-50947933D01*
X281419383Y-98034262D02*
X281518967Y-98018056D01*
X56476303Y-96820875D02*
X56591003Y-93533800D01*
X273651406Y-35734621D02*
X273592211Y-35656360D01*
X231722149Y-34039458D02*
X231697110Y-33997278D01*
X34051311Y-74044750D02*
X34002576Y-74054228D01*
X279140053Y-74109571D02*
X278545021Y-57070200D01*
X152675040Y-67746499D02*
X152646401Y-67695885D01*
X75947304Y-117714575D02*
X127714760Y-144091429D01*
X75938316Y-95127973D02*
X84304947Y-96906362D01*
X278111262Y-55894675D02*
X278048103Y-55819193D01*
X278528346Y-56872975D02*
X278512815Y-56775788D01*
X64774622Y-32483366D02*
X64677138Y-32498551D01*
X259333273Y-97580570D02*
X259375892Y-97668344D01*
X56101753Y-97918109D02*
X56156912Y-97837228D01*
X33409441Y-74443208D02*
X33382036Y-74482847D01*
X126760752Y-50187853D02*
X126721338Y-50159109D01*
X252376772Y-33555380D02*
X252330160Y-33469598D01*
X157815300Y-119100477D02*
X157815300Y-119100477D01*
X106846296Y-38869049D02*
X106794342Y-38784535D01*
X162808356Y-77909853D02*
X162799803Y-77977161D01*
X33239788Y-97618061D02*
X33318052Y-97677254D01*
X260362437Y-98588167D02*
X260452976Y-98624545D01*
X83829004Y-34222046D02*
X83814668Y-34270916D01*
X62883735Y-35573707D02*
X43673218Y-34902861D01*
X282094108Y-74299542D02*
X282058249Y-74267664D01*
X273316940Y-35373066D02*
X273239899Y-35311248D01*
X209804627Y-38003401D02*
X209711947Y-38041083D01*
X152466591Y-67465429D02*
X152466591Y-67465429D01*
X259422769Y-97753983D02*
X259473827Y-97837325D01*
X230843251Y-33528713D02*
X230793255Y-33530349D01*
X56444092Y-97115280D02*
X56459624Y-97018095D01*
X162682676Y-78355421D02*
X162652975Y-78413411D01*
X33572472Y-74267683D02*
X33536615Y-74299563D01*
M02*
