G04 #@! TF.GenerationSoftware,KiCad,Pcbnew,(6.0.6)*
G04 #@! TF.CreationDate,2022-07-31T21:57:04+09:00*
G04 #@! TF.ProjectId,nowt36lp-top-plate,6e6f7774-3336-46c7-902d-746f702d706c,rev?*
G04 #@! TF.SameCoordinates,Original*
G04 #@! TF.FileFunction,Legend,Bot*
G04 #@! TF.FilePolarity,Positive*
%FSLAX46Y46*%
G04 Gerber Fmt 4.6, Leading zero omitted, Abs format (unit mm)*
G04 Created by KiCad (PCBNEW (6.0.6)) date 2022-07-31 21:57:04*
%MOMM*%
%LPD*%
G01*
G04 APERTURE LIST*
%ADD10C,0.300000*%
%ADD11C,2.200000*%
%ADD12O,4.350000X2.570000*%
G04 APERTURE END LIST*
D10*
X164662571Y-107763571D02*
X164662571Y-108835000D01*
X164734000Y-109049285D01*
X164876857Y-109192142D01*
X165091142Y-109263571D01*
X165234000Y-109263571D01*
X163234000Y-109263571D02*
X163948285Y-109263571D01*
X163948285Y-107763571D01*
X161876857Y-109120714D02*
X161948285Y-109192142D01*
X162162571Y-109263571D01*
X162305428Y-109263571D01*
X162519714Y-109192142D01*
X162662571Y-109049285D01*
X162734000Y-108906428D01*
X162805428Y-108620714D01*
X162805428Y-108406428D01*
X162734000Y-108120714D01*
X162662571Y-107977857D01*
X162519714Y-107835000D01*
X162305428Y-107763571D01*
X162162571Y-107763571D01*
X161948285Y-107835000D01*
X161876857Y-107906428D01*
X160805428Y-107763571D02*
X160805428Y-108835000D01*
X160876857Y-109049285D01*
X161019714Y-109192142D01*
X161234000Y-109263571D01*
X161376857Y-109263571D01*
X159376857Y-109263571D02*
X160091142Y-109263571D01*
X160091142Y-107763571D01*
X158019714Y-109120714D02*
X158091142Y-109192142D01*
X158305428Y-109263571D01*
X158448285Y-109263571D01*
X158662571Y-109192142D01*
X158805428Y-109049285D01*
X158876857Y-108906428D01*
X158948285Y-108620714D01*
X158948285Y-108406428D01*
X158876857Y-108120714D01*
X158805428Y-107977857D01*
X158662571Y-107835000D01*
X158448285Y-107763571D01*
X158305428Y-107763571D01*
X158091142Y-107835000D01*
X158019714Y-107906428D01*
X156948285Y-107763571D02*
X156948285Y-108835000D01*
X157019714Y-109049285D01*
X157162571Y-109192142D01*
X157376857Y-109263571D01*
X157519714Y-109263571D01*
X155519714Y-109263571D02*
X156234000Y-109263571D01*
X156234000Y-107763571D01*
X154162571Y-109120714D02*
X154234000Y-109192142D01*
X154448285Y-109263571D01*
X154591142Y-109263571D01*
X154805428Y-109192142D01*
X154948285Y-109049285D01*
X155019714Y-108906428D01*
X155091142Y-108620714D01*
X155091142Y-108406428D01*
X155019714Y-108120714D01*
X154948285Y-107977857D01*
X154805428Y-107835000D01*
X154591142Y-107763571D01*
X154448285Y-107763571D01*
X154234000Y-107835000D01*
X154162571Y-107906428D01*
X153091142Y-107763571D02*
X153091142Y-108835000D01*
X153162571Y-109049285D01*
X153305428Y-109192142D01*
X153519714Y-109263571D01*
X153662571Y-109263571D01*
X151662571Y-109263571D02*
X152376857Y-109263571D01*
X152376857Y-107763571D01*
X150305428Y-109120714D02*
X150376857Y-109192142D01*
X150591142Y-109263571D01*
X150734000Y-109263571D01*
X150948285Y-109192142D01*
X151091142Y-109049285D01*
X151162571Y-108906428D01*
X151234000Y-108620714D01*
X151234000Y-108406428D01*
X151162571Y-108120714D01*
X151091142Y-107977857D01*
X150948285Y-107835000D01*
X150734000Y-107763571D01*
X150591142Y-107763571D01*
X150376857Y-107835000D01*
X150305428Y-107906428D01*
X166738000Y-114867571D02*
X166738000Y-115867571D01*
X166738000Y-115010428D02*
X166666571Y-114939000D01*
X166523714Y-114867571D01*
X166309428Y-114867571D01*
X166166571Y-114939000D01*
X166095142Y-115081857D01*
X166095142Y-115867571D01*
X165166571Y-115867571D02*
X165309428Y-115796142D01*
X165380857Y-115724714D01*
X165452285Y-115581857D01*
X165452285Y-115153285D01*
X165380857Y-115010428D01*
X165309428Y-114939000D01*
X165166571Y-114867571D01*
X164952285Y-114867571D01*
X164809428Y-114939000D01*
X164738000Y-115010428D01*
X164666571Y-115153285D01*
X164666571Y-115581857D01*
X164738000Y-115724714D01*
X164809428Y-115796142D01*
X164952285Y-115867571D01*
X165166571Y-115867571D01*
X164166571Y-114867571D02*
X163880857Y-115867571D01*
X163595142Y-115153285D01*
X163309428Y-115867571D01*
X163023714Y-114867571D01*
X162666571Y-114867571D02*
X162095142Y-114867571D01*
X162452285Y-114367571D02*
X162452285Y-115653285D01*
X162380857Y-115796142D01*
X162238000Y-115867571D01*
X162095142Y-115867571D01*
X161738000Y-114367571D02*
X160809428Y-114367571D01*
X161309428Y-114939000D01*
X161095142Y-114939000D01*
X160952285Y-115010428D01*
X160880857Y-115081857D01*
X160809428Y-115224714D01*
X160809428Y-115581857D01*
X160880857Y-115724714D01*
X160952285Y-115796142D01*
X161095142Y-115867571D01*
X161523714Y-115867571D01*
X161666571Y-115796142D01*
X161738000Y-115724714D01*
X159523714Y-114367571D02*
X159809428Y-114367571D01*
X159952285Y-114439000D01*
X160023714Y-114510428D01*
X160166571Y-114724714D01*
X160238000Y-115010428D01*
X160238000Y-115581857D01*
X160166571Y-115724714D01*
X160095142Y-115796142D01*
X159952285Y-115867571D01*
X159666571Y-115867571D01*
X159523714Y-115796142D01*
X159452285Y-115724714D01*
X159380857Y-115581857D01*
X159380857Y-115224714D01*
X159452285Y-115081857D01*
X159523714Y-115010428D01*
X159666571Y-114939000D01*
X159952285Y-114939000D01*
X160095142Y-115010428D01*
X160166571Y-115081857D01*
X160238000Y-115224714D01*
X158523714Y-115867571D02*
X158666571Y-115796142D01*
X158738000Y-115653285D01*
X158738000Y-114367571D01*
X157952285Y-114867571D02*
X157952285Y-116367571D01*
X157952285Y-114939000D02*
X157809428Y-114867571D01*
X157523714Y-114867571D01*
X157380857Y-114939000D01*
X157309428Y-115010428D01*
X157238000Y-115153285D01*
X157238000Y-115581857D01*
X157309428Y-115724714D01*
X157380857Y-115796142D01*
X157523714Y-115867571D01*
X157809428Y-115867571D01*
X157952285Y-115796142D01*
X155452285Y-115867571D02*
X155452285Y-114867571D01*
X155452285Y-115153285D02*
X155380857Y-115010428D01*
X155309428Y-114939000D01*
X155166571Y-114867571D01*
X155023714Y-114867571D01*
X153952285Y-115796142D02*
X154095142Y-115867571D01*
X154380857Y-115867571D01*
X154523714Y-115796142D01*
X154595142Y-115653285D01*
X154595142Y-115081857D01*
X154523714Y-114939000D01*
X154380857Y-114867571D01*
X154095142Y-114867571D01*
X153952285Y-114939000D01*
X153880857Y-115081857D01*
X153880857Y-115224714D01*
X154595142Y-115367571D01*
X153380857Y-114867571D02*
X153023714Y-115867571D01*
X152666571Y-114867571D01*
X151809428Y-114367571D02*
X151666571Y-114367571D01*
X151523714Y-114439000D01*
X151452285Y-114510428D01*
X151380857Y-114653285D01*
X151309428Y-114939000D01*
X151309428Y-115296142D01*
X151380857Y-115581857D01*
X151452285Y-115724714D01*
X151523714Y-115796142D01*
X151666571Y-115867571D01*
X151809428Y-115867571D01*
X151952285Y-115796142D01*
X152023714Y-115724714D01*
X152095142Y-115581857D01*
X152166571Y-115296142D01*
X152166571Y-114939000D01*
X152095142Y-114653285D01*
X152023714Y-114510428D01*
X151952285Y-114439000D01*
X151809428Y-114367571D01*
X150666571Y-115724714D02*
X150595142Y-115796142D01*
X150666571Y-115867571D01*
X150738000Y-115796142D01*
X150666571Y-115724714D01*
X150666571Y-115867571D01*
X149166571Y-115867571D02*
X150023714Y-115867571D01*
X149595142Y-115867571D02*
X149595142Y-114367571D01*
X149738000Y-114581857D01*
X149880857Y-114724714D01*
X150023714Y-114796142D01*
%LPC*%
D11*
X135370000Y-110890000D03*
X141970000Y-86200000D03*
X173690000Y-86200000D03*
D12*
X158035000Y-112005000D03*
D11*
X180280000Y-110850000D03*
M02*
