G04 #@! TF.GenerationSoftware,KiCad,Pcbnew,(6.0.6)*
G04 #@! TF.CreationDate,2022-07-31T21:57:04+09:00*
G04 #@! TF.ProjectId,nowt36lp-top-plate,6e6f7774-3336-46c7-902d-746f702d706c,rev?*
G04 #@! TF.SameCoordinates,Original*
G04 #@! TF.FileFunction,Profile,NP*
%FSLAX46Y46*%
G04 Gerber Fmt 4.6, Leading zero omitted, Abs format (unit mm)*
G04 Created by KiCad (PCBNEW (6.0.6)) date 2022-07-31 21:57:04*
%MOMM*%
%LPD*%
G01*
G04 APERTURE LIST*
G04 #@! TA.AperFunction,Profile*
%ADD10C,0.349999*%
G04 #@! TD*
G04 APERTURE END LIST*
D10*
X130847488Y-112967146D02*
X130838538Y-112948200D01*
X130798925Y-112807067D02*
X130796699Y-112786008D01*
X131050000Y-113180000D02*
X131031115Y-113168846D01*
X142919715Y-67440735D02*
X142927164Y-67421228D01*
X130812074Y-112614576D02*
X140811487Y-75356192D01*
X184810946Y-113117172D02*
X184777713Y-113144349D01*
X130962019Y-113117202D02*
X130946415Y-113102667D01*
X143040036Y-67252807D02*
X143054710Y-67238975D01*
X143286640Y-67120410D02*
X143306931Y-67116551D01*
X157886470Y-119099577D02*
X142764110Y-119099577D01*
X184966113Y-112635999D02*
X184970396Y-112657510D01*
X130867736Y-113003861D02*
X130857224Y-112985709D01*
X184976078Y-112700551D02*
X184977994Y-112743440D01*
X184976239Y-112785964D02*
X184970909Y-112827911D01*
X130823048Y-112909263D02*
X130816530Y-112889325D01*
X172424714Y-67111344D02*
X172445479Y-67113526D01*
X131012863Y-113156963D02*
X130995255Y-113144377D01*
X184973714Y-112679036D02*
X184976078Y-112700551D01*
X172486308Y-67120413D02*
X172506330Y-67125086D01*
X130802533Y-112657556D02*
X130806815Y-112636045D01*
X130796854Y-112700596D02*
X130799217Y-112679082D01*
X130838538Y-112948200D02*
X130830388Y-112928897D01*
X130796699Y-112786008D02*
X130795367Y-112764805D01*
X172845775Y-67421210D02*
X172853225Y-67440715D01*
X142764110Y-119099577D02*
X142764110Y-119099577D01*
X172619683Y-67169348D02*
X172654395Y-67189905D01*
X143306931Y-67116551D02*
X143327471Y-67113523D01*
X130978303Y-113131114D02*
X130962019Y-113117202D01*
X184741855Y-113168820D02*
X184722971Y-113179975D01*
X130795367Y-112764805D02*
X130794941Y-112743485D01*
X143171242Y-67160118D02*
X143189617Y-67151608D01*
X172865764Y-67480997D02*
X174961451Y-75356192D01*
X143348237Y-67111340D02*
X143369210Y-67110019D01*
X142927164Y-67421228D02*
X142935373Y-67402159D01*
X130806815Y-112636045D02*
X130812074Y-112614576D01*
X130946415Y-113102667D02*
X130931503Y-113087536D01*
X184841460Y-113087503D02*
X184810946Y-113117172D01*
X130830388Y-112928897D02*
X130823048Y-112909263D01*
X142987087Y-67313922D02*
X142999421Y-67297806D01*
X130816530Y-112889325D02*
X130810847Y-112869110D01*
X143025916Y-67267233D02*
X143040036Y-67252807D01*
X142935373Y-67402159D02*
X142944321Y-67383543D01*
X172859896Y-67460642D02*
X172865767Y-67480974D01*
X184703467Y-113190374D02*
X173008830Y-119099577D01*
X130799217Y-112679082D02*
X130802533Y-112657556D01*
X184915730Y-112985670D02*
X184893947Y-113021539D01*
X172445479Y-67113526D02*
X172466017Y-67116554D01*
X130806011Y-112848644D02*
X130802033Y-112827954D01*
X172506330Y-67125086D02*
X172545487Y-67136813D01*
X130810847Y-112869110D02*
X130806011Y-112848644D01*
X184893947Y-113021539D02*
X184869158Y-113055554D01*
X172747022Y-67267226D02*
X172773516Y-67297797D01*
X172382583Y-67109579D02*
X172403741Y-67110023D01*
X184949900Y-112909222D02*
X184934413Y-112948160D01*
X142964350Y-67347732D02*
X142975390Y-67330569D01*
X142999421Y-67297806D02*
X143012371Y-67282238D01*
X174961451Y-75356192D02*
X184960853Y-112614531D01*
X172853225Y-67440715D02*
X172859896Y-67460642D01*
X143390370Y-67109575D02*
X157886470Y-67109579D01*
X184934413Y-112948160D02*
X184915730Y-112985670D01*
X143208362Y-67143833D02*
X143227458Y-67136811D01*
X184703467Y-113190374D02*
X184703467Y-113190374D01*
X157886470Y-119099577D02*
X157886470Y-119099577D01*
X172545487Y-67136813D02*
X172583326Y-67151608D01*
X172818951Y-67365380D02*
X172828617Y-67383527D01*
X130891036Y-113038828D02*
X130879010Y-113021576D01*
X130879010Y-113021576D02*
X130867736Y-113003861D01*
X172828617Y-67383527D02*
X172837565Y-67402142D01*
X174961451Y-75356192D02*
X174961451Y-75356192D01*
X140811487Y-75356192D02*
X140811487Y-75356192D01*
X157886470Y-67109579D02*
X172382583Y-67109579D01*
X173008830Y-119099577D02*
X157886470Y-119099577D01*
X172382583Y-67109579D02*
X172382583Y-67109579D01*
X142913044Y-67460663D02*
X142919715Y-67440735D01*
X184777713Y-113144349D02*
X184760106Y-113156936D01*
X172797547Y-67330557D02*
X172818951Y-67365380D01*
X130802033Y-112827954D02*
X130798925Y-112807067D01*
X142975390Y-67330569D02*
X142987087Y-67313922D01*
X130917295Y-113071834D02*
X130903802Y-113055589D01*
X130903802Y-113055589D02*
X130891036Y-113038828D01*
X140811487Y-75356192D02*
X142907174Y-67480997D01*
X184970909Y-112827911D02*
X184962097Y-112869068D01*
X172773516Y-67297797D02*
X172797547Y-67330557D01*
X143085641Y-67213158D02*
X143101857Y-67201204D01*
X143369210Y-67110019D02*
X143390370Y-67109575D01*
X184970396Y-112657510D02*
X184973714Y-112679036D01*
X143118545Y-67189907D02*
X143135686Y-67179283D01*
X184977994Y-112743440D02*
X184976239Y-112785964D01*
X142764110Y-119099577D02*
X131069505Y-113190397D01*
X172403741Y-67110023D02*
X172424714Y-67111344D01*
X172837565Y-67402142D02*
X172845775Y-67421210D01*
X130795433Y-112722073D02*
X130796854Y-112700596D01*
X142907174Y-67480997D02*
X142907174Y-67480997D01*
X143069919Y-67225753D02*
X143085641Y-67213158D01*
X143153258Y-67169348D02*
X143171242Y-67160118D01*
X184960853Y-112614531D02*
X184960853Y-112614531D01*
X143101857Y-67201204D02*
X143118545Y-67189907D01*
X184960853Y-112614531D02*
X184966113Y-112635999D01*
X131069505Y-113190397D02*
X131069505Y-113190397D01*
X184760106Y-113156936D02*
X184741855Y-113168820D01*
X130931503Y-113087536D02*
X130917295Y-113071834D01*
X131069505Y-113190397D02*
X131050000Y-113180000D01*
X143227458Y-67136811D02*
X143246883Y-67130555D01*
X143135686Y-67179283D02*
X143153258Y-67169348D01*
X143327471Y-67113523D02*
X143348237Y-67111340D01*
X157886470Y-67109579D02*
X157886470Y-67109579D01*
X184722971Y-113179975D02*
X184703467Y-113190374D01*
X142953986Y-67365395D02*
X142964350Y-67347732D01*
X143390370Y-67109575D02*
X143390370Y-67109575D01*
X172718228Y-67238969D02*
X172747022Y-67267226D01*
X142907174Y-67480997D02*
X142913044Y-67460663D01*
X130812074Y-112614576D02*
X130812074Y-112614576D01*
X131031115Y-113168846D02*
X131012863Y-113156963D01*
X143054710Y-67238975D02*
X143069919Y-67225753D01*
X172654395Y-67189905D02*
X172687298Y-67213154D01*
X172466017Y-67116554D02*
X172486308Y-67120413D01*
X173008830Y-119099577D02*
X173008830Y-119099577D01*
X130995255Y-113144377D02*
X130978303Y-113131114D01*
X184869158Y-113055554D02*
X184841460Y-113087503D01*
X142944321Y-67383543D02*
X142953986Y-67365395D01*
X143266617Y-67125083D02*
X143286640Y-67120410D01*
X172687298Y-67213154D02*
X172718228Y-67238969D01*
X130857224Y-112985709D02*
X130847488Y-112967146D01*
X184962097Y-112869068D02*
X184949900Y-112909222D01*
X143189617Y-67151608D02*
X143208362Y-67143833D01*
X172583326Y-67151608D02*
X172619683Y-67169348D01*
X130794941Y-112743485D02*
X130795433Y-112722073D01*
X143246883Y-67130555D02*
X143266617Y-67125083D01*
X143012371Y-67282238D02*
X143025916Y-67267233D01*
M02*
