M48
; DRILL file {KiCad (6.0.6)} date 2022年07月31日 21時57分04秒
; FORMAT={-:-/ absolute / metric / decimal}
; #@! TF.CreationDate,2022-07-31T21:57:04+09:00
; #@! TF.GenerationSoftware,Kicad,Pcbnew,(6.0.6)
; #@! TF.FileFunction,Plated,1,2,PTH
FMAT,2
METRIC
; #@! TA.AperFunction,Plated,PTH,ViaDrill
T1C0.400
; #@! TA.AperFunction,Plated,PTH,ComponentDrill
T2C0.813
; #@! TA.AperFunction,Plated,PTH,ComponentDrill
T3C1.200
; #@! TA.AperFunction,Plated,PTH,ComponentDrill
T4C1.300
%
G90
G05
T1
X148.359Y-97.288
X155.28Y-97.64
X161.54Y-96.59
X181.63Y-127.14
X184.41Y-98.95
T2
X150.252Y-74.927
X150.252Y-77.467
X150.252Y-80.007
X150.252Y-82.547
X150.252Y-85.087
X150.252Y-87.627
X150.252Y-90.167
X150.252Y-92.707
X150.252Y-95.247
X150.252Y-97.787
X150.252Y-100.327
X150.252Y-102.867
X165.472Y-74.927
X165.472Y-77.467
X165.472Y-80.007
X165.472Y-82.547
X165.472Y-85.087
X165.472Y-87.627
X165.472Y-90.167
X165.472Y-92.707
X165.472Y-95.247
X165.472Y-97.787
X165.472Y-100.327
X165.472Y-102.867
T3
X39.752Y-90.059
X43.588Y-71.111
X44.676Y-92.333
X48.134Y-50.867
X48.511Y-73.384
X53.058Y-53.14
X60.537Y-86.015
X64.499Y-67.371
X64.991Y-89.108
X68.336Y-48.806
X68.954Y-70.465
X73.043Y-51.5
X79.663Y-87.564
X83.651Y-68.921
X84.117Y-90.658
X84.142Y-112.723
X87.613Y-50.277
X87.644Y-116.865
X88.105Y-72.014
X92.068Y-53.371
X98.53Y-98.363
X101.135Y-121.359
X102.816Y-101.686
X102.899Y-79.796
X104.636Y-125.501
X106.912Y-61.177
X107.185Y-83.118
X111.198Y-64.5
X116.412Y-105.119
X118.083Y-130.001
X120.698Y-108.442
X120.78Y-86.577
X121.585Y-134.142
X125.067Y-89.9
X125.149Y-68.035
X129.435Y-71.358
X180.863Y-70.624
X185.231Y-89.166
X186.236Y-71.358
X188.659Y-134.561
X189.6Y-107.733
X190.605Y-89.9
X194.068Y-134.162
X194.973Y-108.467
X199.125Y-63.74
X203.138Y-82.409
X204.498Y-64.475
X205.626Y-125.899
X207.537Y-100.928
X208.512Y-83.144
X211.035Y-125.501
X212.91Y-101.662
X218.302Y-52.382
X222.239Y-71.0
X222.619Y-117.238
X223.629Y-53.396
X226.227Y-89.643
X227.566Y-72.014
X228.027Y-116.839
X231.554Y-90.658
X237.41Y-49.999
X241.39Y-69.425
X242.629Y-51.474
X245.327Y-88.069
X246.718Y-70.439
X250.655Y-89.083
X257.543Y-51.216
X262.064Y-71.435
X262.613Y-53.14
X265.95Y-90.408
X267.135Y-73.359
X271.021Y-92.333
T4
X154.85Y-111.95
X161.35Y-111.95
T0
M30
