G04 #@! TF.GenerationSoftware,KiCad,Pcbnew,(6.0.6)*
G04 #@! TF.CreationDate,2022-07-31T21:57:04+09:00*
G04 #@! TF.ProjectId,nowt36lp,6e6f7774-3336-46c7-902e-6b696361645f,rev?*
G04 #@! TF.SameCoordinates,Original*
G04 #@! TF.FileFunction,Legend,Top*
G04 #@! TF.FilePolarity,Positive*
%FSLAX46Y46*%
G04 Gerber Fmt 4.6, Leading zero omitted, Abs format (unit mm)*
G04 Created by KiCad (PCBNEW (6.0.6)) date 2022-07-31 21:57:04*
%MOMM*%
%LPD*%
G01*
G04 APERTURE LIST*
%ADD10C,0.150000*%
%ADD11C,0.125000*%
%ADD12C,1.524000*%
%ADD13C,3.400000*%
%ADD14C,1.700000*%
%ADD15C,2.000000*%
%ADD16C,2.200000*%
G04 APERTURE END LIST*
D10*
X131230438Y-68522368D02*
X131136190Y-68460140D01*
X130963703Y-68413922D01*
X130885465Y-68429933D01*
X130841724Y-68455187D01*
X130788740Y-68514938D01*
X130770252Y-68583932D01*
X130786263Y-68662171D01*
X130811517Y-68705911D01*
X130871268Y-68758896D01*
X131000014Y-68830367D01*
X131059765Y-68883352D01*
X131085019Y-68927093D01*
X131101029Y-69005331D01*
X131082542Y-69074326D01*
X131029557Y-69134077D01*
X130985816Y-69159331D01*
X130907578Y-69175341D01*
X130735091Y-69129123D01*
X130640843Y-69066895D01*
X130390118Y-69036688D02*
X130411746Y-68266026D01*
X130135103Y-68746512D01*
X130135767Y-68192078D01*
X129769166Y-68870304D01*
X129148213Y-68703921D02*
X129493187Y-68796356D01*
X129620120Y-68460626D01*
X129576379Y-68485880D01*
X129498140Y-68501890D01*
X129325654Y-68455672D01*
X129265903Y-68402688D01*
X129240649Y-68358947D01*
X129224638Y-68280709D01*
X129270856Y-68108222D01*
X129323841Y-68048471D01*
X129367581Y-68023217D01*
X129445820Y-68007207D01*
X129618306Y-68053424D01*
X129678058Y-68106409D01*
X129703311Y-68150150D01*
X112993238Y-61664368D02*
X112898990Y-61602140D01*
X112726503Y-61555922D01*
X112648265Y-61571933D01*
X112604524Y-61597187D01*
X112551540Y-61656938D01*
X112533052Y-61725932D01*
X112549063Y-61804171D01*
X112574317Y-61847911D01*
X112634068Y-61900896D01*
X112762814Y-61972367D01*
X112822565Y-62025352D01*
X112847819Y-62069093D01*
X112863829Y-62147331D01*
X112845342Y-62216326D01*
X112792357Y-62276077D01*
X112748616Y-62301331D01*
X112670378Y-62317341D01*
X112497891Y-62271123D01*
X112403643Y-62208895D01*
X112152918Y-62178688D02*
X112174546Y-61408026D01*
X111897903Y-61888512D01*
X111898567Y-61334078D01*
X111531966Y-62012304D01*
X111010215Y-61613683D02*
X111139625Y-61130720D01*
X111108754Y-61935879D02*
X111419894Y-61464637D01*
X110971428Y-61344471D01*
X66984667Y-86257071D02*
X66887290Y-86199861D01*
X66712621Y-86162734D01*
X66635328Y-86182817D01*
X66592969Y-86210325D01*
X66543184Y-86272767D01*
X66528333Y-86342635D01*
X66548416Y-86419928D01*
X66575925Y-86462287D01*
X66638367Y-86512072D01*
X66770677Y-86576707D01*
X66833119Y-86626492D01*
X66860628Y-86668851D01*
X66880711Y-86746145D01*
X66865860Y-86816012D01*
X66816075Y-86878454D01*
X66773716Y-86905963D01*
X66696423Y-86926046D01*
X66521754Y-86888919D01*
X66424378Y-86831709D01*
X66172415Y-86814665D02*
X66153680Y-86043927D01*
X65902563Y-86538233D01*
X65874209Y-85984523D01*
X65543606Y-86681007D01*
X65313920Y-86559162D02*
X65271561Y-86586670D01*
X65194268Y-86606753D01*
X65019598Y-86569626D01*
X64957156Y-86519841D01*
X64929648Y-86477482D01*
X64909565Y-86400189D01*
X64924416Y-86330321D01*
X64981626Y-86232945D01*
X65489937Y-85902844D01*
X65035797Y-85806313D01*
X64615243Y-86410653D02*
X64572884Y-86438162D01*
X64495591Y-86458245D01*
X64320922Y-86421117D01*
X64258479Y-86371333D01*
X64230971Y-86328974D01*
X64210888Y-86251680D01*
X64225739Y-86181813D01*
X64282949Y-86084437D01*
X64791260Y-85754336D01*
X64337120Y-85657805D01*
X248787365Y-86825546D02*
X248899591Y-86838204D01*
X249074261Y-86801077D01*
X249136703Y-86751292D01*
X249164211Y-86708933D01*
X249184294Y-86631639D01*
X249169444Y-86561772D01*
X249119659Y-86499330D01*
X249077300Y-86471821D01*
X249000007Y-86451738D01*
X248852846Y-86446506D01*
X248775553Y-86426423D01*
X248733193Y-86398914D01*
X248683409Y-86336472D01*
X248668558Y-86266605D01*
X248688641Y-86189311D01*
X248716149Y-86146952D01*
X248778592Y-86097168D01*
X248953261Y-86060040D01*
X249065488Y-86072698D01*
X249302599Y-85985786D02*
X249633202Y-86682270D01*
X249661556Y-86128561D01*
X249912673Y-86622867D01*
X249931408Y-85852129D01*
X250190796Y-85870018D02*
X250218305Y-85827659D01*
X250280747Y-85777875D01*
X250455416Y-85740747D01*
X250532709Y-85760830D01*
X250575068Y-85788339D01*
X250624853Y-85850781D01*
X250639704Y-85920649D01*
X250627046Y-86032876D01*
X250296945Y-86541187D01*
X250751085Y-86444656D01*
X251100424Y-86370402D02*
X251240159Y-86340701D01*
X251302601Y-86290916D01*
X251330110Y-86248557D01*
X251377701Y-86128904D01*
X251382933Y-85981744D01*
X251323530Y-85702273D01*
X251273745Y-85639831D01*
X251231386Y-85612322D01*
X251154093Y-85592239D01*
X251014357Y-85621941D01*
X250951915Y-85671725D01*
X250924407Y-85714085D01*
X250904324Y-85791378D01*
X250941451Y-85966047D01*
X250991236Y-86028489D01*
X251033595Y-86055998D01*
X251110888Y-86076081D01*
X251250623Y-86046379D01*
X251313066Y-85996594D01*
X251340574Y-85954235D01*
X251360657Y-85876942D01*
X192990527Y-106310658D02*
X193103263Y-106317425D01*
X193275750Y-106271207D01*
X193335501Y-106218223D01*
X193360755Y-106174482D01*
X193376765Y-106096244D01*
X193358278Y-106027249D01*
X193305293Y-105967498D01*
X193261552Y-105942244D01*
X193183314Y-105926234D01*
X193036081Y-105928711D01*
X192957843Y-105912700D01*
X192914102Y-105887447D01*
X192861118Y-105827695D01*
X192842631Y-105758701D01*
X192858641Y-105680463D01*
X192883895Y-105636722D01*
X192943646Y-105583737D01*
X193116133Y-105537520D01*
X193228868Y-105544286D01*
X193461106Y-105445084D02*
X193827707Y-106123311D01*
X193827044Y-105568876D01*
X194103686Y-106049363D01*
X194082058Y-105278701D01*
X194342027Y-105282990D02*
X194367281Y-105239250D01*
X194427032Y-105186265D01*
X194599519Y-105140047D01*
X194677757Y-105156058D01*
X194721498Y-105181312D01*
X194774482Y-105241063D01*
X194792969Y-105310057D01*
X194786203Y-105422793D01*
X194483157Y-105947684D01*
X194931622Y-105827518D01*
X195358460Y-104936690D02*
X195220471Y-104973664D01*
X195160720Y-105026648D01*
X195135466Y-105070389D01*
X195094202Y-105192368D01*
X195096679Y-105339601D01*
X195170627Y-105615580D01*
X195223612Y-105675331D01*
X195267352Y-105700585D01*
X195345591Y-105716595D01*
X195483580Y-105679621D01*
X195543331Y-105626637D01*
X195568585Y-105582896D01*
X195584595Y-105504658D01*
X195538378Y-105332171D01*
X195485393Y-105272420D01*
X195441652Y-105247166D01*
X195363414Y-105231156D01*
X195225425Y-105268130D01*
X195165673Y-105321114D01*
X195140420Y-105364855D01*
X195124409Y-105443093D01*
X127206612Y-87156803D02*
X127112363Y-87094575D01*
X126939877Y-87048358D01*
X126861638Y-87064368D01*
X126817898Y-87089622D01*
X126764913Y-87149373D01*
X126746426Y-87218368D01*
X126762436Y-87296606D01*
X126787690Y-87340347D01*
X126847441Y-87393331D01*
X126976187Y-87464803D01*
X127035938Y-87517787D01*
X127061192Y-87561528D01*
X127077202Y-87639766D01*
X127058715Y-87708761D01*
X127005731Y-87768512D01*
X126961990Y-87793766D01*
X126883752Y-87809776D01*
X126711265Y-87763559D01*
X126617016Y-87701331D01*
X126366291Y-87671123D02*
X126387919Y-86900461D01*
X126111277Y-87380947D01*
X126111940Y-86826513D01*
X125745339Y-87504740D01*
X125284004Y-86604668D02*
X125697972Y-86715590D01*
X125490988Y-86660129D02*
X125296874Y-87384574D01*
X125393599Y-87299569D01*
X125481081Y-87249061D01*
X125559319Y-87233051D01*
X124434440Y-87153485D02*
X124779413Y-87245921D01*
X124906346Y-86910191D01*
X124862605Y-86935444D01*
X124784367Y-86951455D01*
X124611880Y-86905237D01*
X124552129Y-86852253D01*
X124526875Y-86808512D01*
X124510865Y-86730273D01*
X124557083Y-86557787D01*
X124610067Y-86498035D01*
X124653808Y-86472782D01*
X124732046Y-86456771D01*
X124904533Y-86502989D01*
X124964284Y-86555974D01*
X124989538Y-86599714D01*
X191679566Y-132464634D02*
X191791245Y-132447813D01*
X191950353Y-132366744D01*
X191997783Y-132302494D01*
X192013390Y-132254459D01*
X192012784Y-132174601D01*
X191980356Y-132110958D01*
X191916107Y-132063529D01*
X191868071Y-132047921D01*
X191788214Y-132048527D01*
X191644713Y-132081561D01*
X191564856Y-132082167D01*
X191516820Y-132066560D01*
X191452571Y-132019130D01*
X191420143Y-131955487D01*
X191419537Y-131875630D01*
X191435144Y-131827594D01*
X191482574Y-131763345D01*
X191641682Y-131682275D01*
X191753361Y-131665455D01*
X191959899Y-131520135D02*
X192459500Y-132107321D01*
X192343577Y-131565140D01*
X192714073Y-131977609D01*
X192532688Y-131228284D01*
X192723618Y-131131001D02*
X193137300Y-130920219D01*
X193044260Y-131288290D01*
X193139725Y-131239648D01*
X193219582Y-131239042D01*
X193267618Y-131254650D01*
X193331867Y-131302079D01*
X193412937Y-131461188D01*
X193413543Y-131541045D01*
X193397936Y-131589080D01*
X193350506Y-131653330D01*
X193159576Y-131750614D01*
X193079719Y-131751220D01*
X193031683Y-131735612D01*
X193823588Y-130851120D02*
X194050583Y-131296623D01*
X193534768Y-130677616D02*
X193618869Y-131236011D01*
X194032550Y-131025230D01*
X122837812Y-105698803D02*
X122743563Y-105636575D01*
X122571077Y-105590358D01*
X122492838Y-105606368D01*
X122449098Y-105631622D01*
X122396113Y-105691373D01*
X122377626Y-105760368D01*
X122393636Y-105838606D01*
X122418890Y-105882347D01*
X122478641Y-105935331D01*
X122607387Y-106006803D01*
X122667138Y-106059787D01*
X122692392Y-106103528D01*
X122708402Y-106181766D01*
X122689915Y-106250761D01*
X122636931Y-106310512D01*
X122593190Y-106335766D01*
X122514952Y-106351776D01*
X122342465Y-106305559D01*
X122248216Y-106243331D01*
X121997491Y-106213123D02*
X122019119Y-105442461D01*
X121742477Y-105922947D01*
X121743140Y-105368513D01*
X121376539Y-106046740D01*
X121153545Y-105913040D02*
X121109804Y-105938294D01*
X121031566Y-105954304D01*
X120859079Y-105908087D01*
X120799328Y-105855102D01*
X120774074Y-105811361D01*
X120758064Y-105733123D01*
X120776551Y-105664128D01*
X120838779Y-105569880D01*
X121363669Y-105266834D01*
X120915204Y-105146668D01*
X120065640Y-105695485D02*
X120410613Y-105787921D01*
X120537546Y-105452191D01*
X120493805Y-105477444D01*
X120415567Y-105493455D01*
X120243080Y-105447237D01*
X120183329Y-105394253D01*
X120158075Y-105350512D01*
X120142065Y-105272273D01*
X120188283Y-105099787D01*
X120241267Y-105040035D01*
X120285008Y-105014782D01*
X120363246Y-104998771D01*
X120535733Y-105044989D01*
X120595484Y-105097974D01*
X120620738Y-105141714D01*
X225639366Y-115141834D02*
X225751045Y-115125013D01*
X225910153Y-115043944D01*
X225957583Y-114979694D01*
X225973190Y-114931659D01*
X225972584Y-114851801D01*
X225940156Y-114788158D01*
X225875907Y-114740729D01*
X225827871Y-114725121D01*
X225748014Y-114725727D01*
X225604513Y-114758761D01*
X225524656Y-114759367D01*
X225476620Y-114743760D01*
X225412371Y-114696330D01*
X225379943Y-114632687D01*
X225379337Y-114552830D01*
X225394944Y-114504794D01*
X225442374Y-114440545D01*
X225601482Y-114359475D01*
X225713161Y-114342655D01*
X225919699Y-114197335D02*
X226419300Y-114784521D01*
X226303377Y-114242340D01*
X226673873Y-114654809D01*
X226492488Y-113905484D01*
X226683418Y-113808201D02*
X227097100Y-113597419D01*
X227004060Y-113965490D01*
X227099525Y-113916848D01*
X227179382Y-113916242D01*
X227227418Y-113931850D01*
X227291667Y-113979279D01*
X227372737Y-114138388D01*
X227373343Y-114218245D01*
X227357736Y-114266280D01*
X227310306Y-114330530D01*
X227119376Y-114427814D01*
X227039519Y-114428420D01*
X226991483Y-114412812D01*
X227669890Y-113305568D02*
X227542603Y-113370424D01*
X227495174Y-113434674D01*
X227479566Y-113482709D01*
X227464565Y-113610602D01*
X227497599Y-113754103D01*
X227627310Y-114008676D01*
X227691560Y-114056105D01*
X227739596Y-114071713D01*
X227819453Y-114071107D01*
X227946739Y-114006251D01*
X227994169Y-113942002D01*
X228009777Y-113893966D01*
X228009170Y-113814109D01*
X227928101Y-113655000D01*
X227863851Y-113607571D01*
X227815815Y-113591963D01*
X227735958Y-113592570D01*
X227608672Y-113657425D01*
X227561242Y-113721675D01*
X227545634Y-113769710D01*
X227546241Y-113849568D01*
X49979412Y-70229949D02*
X49873581Y-70190517D01*
X49695118Y-70184285D01*
X49622487Y-70217484D01*
X49585548Y-70251931D01*
X49547363Y-70322069D01*
X49544870Y-70393454D01*
X49578069Y-70466086D01*
X49612516Y-70503025D01*
X49682654Y-70541210D01*
X49824178Y-70581888D01*
X49894317Y-70620074D01*
X49928763Y-70657013D01*
X49961962Y-70729644D01*
X49959470Y-70801029D01*
X49921284Y-70871168D01*
X49884345Y-70905614D01*
X49811714Y-70938814D01*
X49633251Y-70932581D01*
X49527420Y-70893150D01*
X49276326Y-70920117D02*
X49124038Y-70164342D01*
X48962572Y-70694745D01*
X48838498Y-70154371D01*
X48633860Y-70897682D01*
X47981877Y-70124457D02*
X48410187Y-70139414D01*
X48196032Y-70131936D02*
X48169857Y-70881479D01*
X48244982Y-70776894D01*
X48318860Y-70708002D01*
X48391491Y-70674802D01*
X47268026Y-70099529D02*
X47696337Y-70114486D01*
X47482181Y-70107007D02*
X47456007Y-70856550D01*
X47531131Y-70751966D01*
X47605009Y-70683073D01*
X47677640Y-70649874D01*
X70947067Y-67613471D02*
X70849690Y-67556261D01*
X70675021Y-67519134D01*
X70597728Y-67539217D01*
X70555369Y-67566725D01*
X70505584Y-67629167D01*
X70490733Y-67699035D01*
X70510816Y-67776328D01*
X70538325Y-67818687D01*
X70600767Y-67868472D01*
X70733077Y-67933107D01*
X70795519Y-67982892D01*
X70823028Y-68025251D01*
X70843111Y-68102545D01*
X70828260Y-68172412D01*
X70778475Y-68234854D01*
X70736116Y-68262363D01*
X70658823Y-68282446D01*
X70484154Y-68245319D01*
X70386778Y-68188109D01*
X70134815Y-68171065D02*
X70116080Y-67400327D01*
X69864963Y-67894633D01*
X69836609Y-67340923D01*
X69506006Y-68037407D01*
X68998197Y-67162713D02*
X69417403Y-67251818D01*
X69207800Y-67207266D02*
X69051866Y-67940877D01*
X69144010Y-67850926D01*
X69228729Y-67795909D01*
X69306022Y-67775826D01*
X68577643Y-67767053D02*
X68535284Y-67794562D01*
X68457991Y-67814645D01*
X68283322Y-67777517D01*
X68220879Y-67727733D01*
X68193371Y-67685374D01*
X68173288Y-67608080D01*
X68188139Y-67538213D01*
X68245349Y-67440837D01*
X68753660Y-67110736D01*
X68299520Y-67014205D01*
X90098667Y-69162871D02*
X90001290Y-69105661D01*
X89826621Y-69068534D01*
X89749328Y-69088617D01*
X89706969Y-69116125D01*
X89657184Y-69178567D01*
X89642333Y-69248435D01*
X89662416Y-69325728D01*
X89689925Y-69368087D01*
X89752367Y-69417872D01*
X89884677Y-69482507D01*
X89947119Y-69532292D01*
X89974628Y-69574651D01*
X89994711Y-69651945D01*
X89979860Y-69721812D01*
X89930075Y-69784254D01*
X89887716Y-69811763D01*
X89810423Y-69831846D01*
X89635754Y-69794719D01*
X89538378Y-69737509D01*
X89286415Y-69720465D02*
X89267680Y-68949727D01*
X89016563Y-69444033D01*
X88988209Y-68890323D01*
X88657606Y-69586807D01*
X88149797Y-68712113D02*
X88569003Y-68801218D01*
X88359400Y-68756666D02*
X88203466Y-69490277D01*
X88295610Y-69400326D01*
X88380329Y-69345309D01*
X88457622Y-69325226D01*
X87749326Y-69393746D02*
X87295186Y-69297216D01*
X87599126Y-69069723D01*
X87494325Y-69047447D01*
X87431883Y-68997662D01*
X87404374Y-68955303D01*
X87384291Y-68878010D01*
X87421418Y-68703340D01*
X87471203Y-68640898D01*
X87513562Y-68613390D01*
X87590855Y-68593307D01*
X87800458Y-68637859D01*
X87862901Y-68687644D01*
X87890409Y-68730003D01*
X184597901Y-69108823D02*
X184710636Y-69115590D01*
X184883123Y-69069372D01*
X184942874Y-69016388D01*
X184968128Y-68972647D01*
X184984138Y-68894409D01*
X184965651Y-68825414D01*
X184912667Y-68765663D01*
X184868926Y-68740409D01*
X184790688Y-68724399D01*
X184643455Y-68726875D01*
X184565217Y-68710865D01*
X184521476Y-68685611D01*
X184468491Y-68625860D01*
X184450004Y-68556865D01*
X184466014Y-68478627D01*
X184491268Y-68434886D01*
X184551019Y-68381902D01*
X184723506Y-68335684D01*
X184836242Y-68342451D01*
X185068480Y-68243249D02*
X185435081Y-68921475D01*
X185434417Y-68367041D01*
X185711060Y-68847527D01*
X185689432Y-68076865D01*
X186275887Y-67919725D02*
X186137898Y-67956699D01*
X186078146Y-68009684D01*
X186052893Y-68053424D01*
X186011628Y-68175404D01*
X186014105Y-68322637D01*
X186088054Y-68598615D01*
X186141038Y-68658366D01*
X186184779Y-68683620D01*
X186263017Y-68699631D01*
X186401007Y-68662656D01*
X186460758Y-68609672D01*
X186486012Y-68565931D01*
X186502022Y-68487693D01*
X186455804Y-68315206D01*
X186402820Y-68255455D01*
X186359079Y-68230201D01*
X186280841Y-68214191D01*
X186142851Y-68251165D01*
X186083100Y-68304149D01*
X186057846Y-68347890D01*
X186041836Y-68426129D01*
X265687576Y-70811322D02*
X265795900Y-70843275D01*
X265974363Y-70837043D01*
X266044501Y-70798857D01*
X266078947Y-70761919D01*
X266112147Y-70689287D01*
X266109654Y-70617902D01*
X266071469Y-70547763D01*
X266034530Y-70513317D01*
X265961898Y-70480118D01*
X265817882Y-70449411D01*
X265745250Y-70416211D01*
X265708311Y-70381765D01*
X265670126Y-70311626D01*
X265667633Y-70240241D01*
X265700833Y-70167610D01*
X265735279Y-70130671D01*
X265805418Y-70092485D01*
X265983880Y-70086253D01*
X266092204Y-70118207D01*
X266340806Y-70073789D02*
X266545443Y-70817100D01*
X266669517Y-70276727D01*
X266830983Y-70807129D01*
X266983271Y-70051354D01*
X267235612Y-70114014D02*
X267270058Y-70077075D01*
X267340197Y-70038890D01*
X267518659Y-70032658D01*
X267591291Y-70065857D01*
X267628230Y-70100303D01*
X267666415Y-70170442D01*
X267668908Y-70241827D01*
X267636954Y-70350151D01*
X267223601Y-70793418D01*
X267687604Y-70777215D01*
X268125432Y-70011469D02*
X268196817Y-70008976D01*
X268269449Y-70042176D01*
X268306388Y-70076622D01*
X268344573Y-70146760D01*
X268385251Y-70288284D01*
X268391483Y-70466747D01*
X268360776Y-70610763D01*
X268327577Y-70683395D01*
X268293131Y-70720334D01*
X268222992Y-70758519D01*
X268151607Y-70761012D01*
X268078975Y-70727812D01*
X268042036Y-70693366D01*
X268003851Y-70623227D01*
X267963173Y-70481704D01*
X267956941Y-70303241D01*
X267987648Y-70159224D01*
X268020847Y-70086593D01*
X268055294Y-70049654D01*
X268125432Y-70011469D01*
X208646766Y-123803234D02*
X208758445Y-123786413D01*
X208917553Y-123705344D01*
X208964983Y-123641094D01*
X208980590Y-123593059D01*
X208979984Y-123513201D01*
X208947556Y-123449558D01*
X208883307Y-123402129D01*
X208835271Y-123386521D01*
X208755414Y-123387127D01*
X208611913Y-123420161D01*
X208532056Y-123420767D01*
X208484020Y-123405160D01*
X208419771Y-123357730D01*
X208387343Y-123294087D01*
X208386737Y-123214230D01*
X208402344Y-123166194D01*
X208449774Y-123101945D01*
X208608882Y-123020875D01*
X208720561Y-123004055D01*
X208927099Y-122858735D02*
X209426700Y-123445921D01*
X209310777Y-122903740D01*
X209681273Y-123316209D01*
X209499888Y-122566884D01*
X209690818Y-122469601D02*
X210104500Y-122258819D01*
X210011460Y-122626890D01*
X210106925Y-122578248D01*
X210186782Y-122577642D01*
X210234818Y-122593250D01*
X210299067Y-122640679D01*
X210380137Y-122799788D01*
X210380743Y-122879645D01*
X210365136Y-122927680D01*
X210317706Y-122991930D01*
X210126776Y-123089214D01*
X210046919Y-123089820D01*
X209998883Y-123074212D01*
X210709112Y-121950754D02*
X210390895Y-122112894D01*
X210521213Y-122447324D01*
X210536820Y-122399289D01*
X210584250Y-122335039D01*
X210743358Y-122253970D01*
X210823215Y-122253363D01*
X210871251Y-122268971D01*
X210935501Y-122316400D01*
X211016570Y-122475509D01*
X211017177Y-122555366D01*
X211001569Y-122603402D01*
X210954139Y-122667651D01*
X210795031Y-122748721D01*
X210715174Y-122749327D01*
X210667138Y-122733719D01*
X210927227Y-99505158D02*
X211039963Y-99511925D01*
X211212450Y-99465707D01*
X211272201Y-99412723D01*
X211297455Y-99368982D01*
X211313465Y-99290744D01*
X211294978Y-99221749D01*
X211241993Y-99161998D01*
X211198252Y-99136744D01*
X211120014Y-99120734D01*
X210972781Y-99123211D01*
X210894543Y-99107200D01*
X210850802Y-99081947D01*
X210797818Y-99022195D01*
X210779331Y-98953201D01*
X210795341Y-98874963D01*
X210820595Y-98831222D01*
X210880346Y-98778237D01*
X211052833Y-98732020D01*
X211165568Y-98738786D01*
X211397806Y-98639584D02*
X211764407Y-99317811D01*
X211763744Y-98763376D01*
X212040386Y-99243863D01*
X212018758Y-98473201D01*
X212278727Y-98477490D02*
X212303981Y-98433750D01*
X212363732Y-98380765D01*
X212536219Y-98334547D01*
X212614457Y-98350558D01*
X212658198Y-98375812D01*
X212711182Y-98435563D01*
X212729669Y-98504557D01*
X212722903Y-98617293D01*
X212419857Y-99142184D01*
X212868322Y-99022018D01*
X212915690Y-98232869D02*
X213398653Y-98103459D01*
X213282291Y-98911095D01*
X86110867Y-87806471D02*
X86013490Y-87749261D01*
X85838821Y-87712134D01*
X85761528Y-87732217D01*
X85719169Y-87759725D01*
X85669384Y-87822167D01*
X85654533Y-87892035D01*
X85674616Y-87969328D01*
X85702125Y-88011687D01*
X85764567Y-88061472D01*
X85896877Y-88126107D01*
X85959319Y-88175892D01*
X85986828Y-88218251D01*
X86006911Y-88295545D01*
X85992060Y-88365412D01*
X85942275Y-88427854D01*
X85899916Y-88455363D01*
X85822623Y-88475446D01*
X85647954Y-88438319D01*
X85550578Y-88381109D01*
X85298615Y-88364065D02*
X85279880Y-87593327D01*
X85028763Y-88087633D01*
X85000409Y-87533923D01*
X84669806Y-88230407D01*
X84440120Y-88108562D02*
X84397761Y-88136070D01*
X84320468Y-88156153D01*
X84145798Y-88119026D01*
X84083356Y-88069241D01*
X84055848Y-88026882D01*
X84035765Y-87949589D01*
X84050616Y-87879721D01*
X84107826Y-87782345D01*
X84616137Y-87452244D01*
X84161997Y-87355713D01*
X83761526Y-88037346D02*
X83307386Y-87940816D01*
X83611326Y-87713323D01*
X83506525Y-87691047D01*
X83444083Y-87641262D01*
X83416574Y-87598903D01*
X83396491Y-87521610D01*
X83433618Y-87346940D01*
X83483403Y-87284498D01*
X83525762Y-87256990D01*
X83603055Y-87236907D01*
X83812658Y-87281459D01*
X83875101Y-87331244D01*
X83902609Y-87373603D01*
X54169087Y-49973684D02*
X54063256Y-49934253D01*
X53884793Y-49928021D01*
X53812162Y-49961220D01*
X53775223Y-49995667D01*
X53737037Y-50065805D01*
X53734544Y-50137190D01*
X53767744Y-50209822D01*
X53802190Y-50246761D01*
X53872329Y-50284946D01*
X54013853Y-50325624D01*
X54083991Y-50363809D01*
X54118437Y-50400748D01*
X54151637Y-50473380D01*
X54149144Y-50544765D01*
X54110959Y-50614904D01*
X54074020Y-50649350D01*
X54001388Y-50682549D01*
X53822926Y-50676317D01*
X53717095Y-50636886D01*
X53466001Y-50663853D02*
X53313713Y-49908078D01*
X53152246Y-50438480D01*
X53028172Y-49898107D01*
X52823535Y-50641418D01*
X52171552Y-49868193D02*
X52599862Y-49883150D01*
X52385707Y-49875671D02*
X52359532Y-50625215D01*
X52434656Y-50520630D01*
X52508534Y-50451738D01*
X52581166Y-50418538D01*
X222111103Y-51064292D02*
X222223330Y-51076949D01*
X222397999Y-51039822D01*
X222460441Y-50990038D01*
X222487950Y-50947678D01*
X222508033Y-50870385D01*
X222493182Y-50800518D01*
X222443397Y-50738075D01*
X222401038Y-50710567D01*
X222323745Y-50690484D01*
X222176584Y-50685252D01*
X222099291Y-50665169D01*
X222056932Y-50637660D01*
X222007147Y-50575218D01*
X221992296Y-50505350D01*
X222012379Y-50428057D01*
X222039888Y-50385698D01*
X222102330Y-50335913D01*
X222276999Y-50298786D01*
X222389226Y-50311444D01*
X222626338Y-50224532D02*
X222956941Y-50921016D01*
X222985295Y-50367306D01*
X223236411Y-50861612D01*
X223255147Y-50090875D01*
X223706248Y-50323600D02*
X223628955Y-50303517D01*
X223586595Y-50276008D01*
X223536811Y-50213566D01*
X223529385Y-50178632D01*
X223549468Y-50101339D01*
X223576977Y-50058980D01*
X223639419Y-50009195D01*
X223779154Y-49979493D01*
X223856448Y-49999576D01*
X223898807Y-50027085D01*
X223948591Y-50089527D01*
X223956017Y-50124461D01*
X223935934Y-50201754D01*
X223908425Y-50244113D01*
X223845983Y-50293898D01*
X223706248Y-50323600D01*
X223643806Y-50373384D01*
X223616297Y-50415743D01*
X223596214Y-50493037D01*
X223625916Y-50632772D01*
X223675700Y-50695214D01*
X223718060Y-50722723D01*
X223795353Y-50742806D01*
X223935088Y-50713104D01*
X223997530Y-50663319D01*
X224025039Y-50620960D01*
X224045122Y-50543667D01*
X224015420Y-50403932D01*
X223965636Y-50341489D01*
X223923276Y-50313981D01*
X223845983Y-50293898D01*
X104956212Y-98942403D02*
X104861963Y-98880175D01*
X104689477Y-98833958D01*
X104611238Y-98849968D01*
X104567498Y-98875222D01*
X104514513Y-98934973D01*
X104496026Y-99003968D01*
X104512036Y-99082206D01*
X104537290Y-99125947D01*
X104597041Y-99178931D01*
X104725787Y-99250403D01*
X104785538Y-99303387D01*
X104810792Y-99347128D01*
X104826802Y-99425366D01*
X104808315Y-99494361D01*
X104755331Y-99554112D01*
X104711590Y-99579366D01*
X104633352Y-99595376D01*
X104460865Y-99549159D01*
X104366616Y-99486931D01*
X104115891Y-99456723D02*
X104137519Y-98686061D01*
X103860877Y-99166547D01*
X103861540Y-98612113D01*
X103494939Y-99290340D01*
X103271945Y-99156640D02*
X103228204Y-99181894D01*
X103149966Y-99197904D01*
X102977479Y-99151687D01*
X102917728Y-99098702D01*
X102892474Y-99054961D01*
X102876464Y-98976723D01*
X102894951Y-98907728D01*
X102957179Y-98813480D01*
X103482069Y-98510434D01*
X103033604Y-98390268D01*
X102283242Y-98706847D02*
X102412651Y-98223884D01*
X102381780Y-99029044D02*
X102692920Y-98557801D01*
X102244455Y-98437635D01*
X74425534Y-48441998D02*
X74323542Y-48393493D01*
X74146302Y-48371730D01*
X74071053Y-48398473D01*
X74031252Y-48429569D01*
X73987099Y-48496113D01*
X73978394Y-48567009D01*
X74005138Y-48642257D01*
X74036233Y-48682058D01*
X74102777Y-48726211D01*
X74240217Y-48779069D01*
X74306760Y-48823222D01*
X74337856Y-48863023D01*
X74364599Y-48938271D01*
X74355894Y-49009167D01*
X74311741Y-49075711D01*
X74271940Y-49106807D01*
X74196692Y-49133550D01*
X74019451Y-49111787D01*
X73917460Y-49063282D01*
X73664971Y-49068263D02*
X73579132Y-48302091D01*
X73372053Y-48816402D01*
X73295548Y-48267271D01*
X73026905Y-48989918D01*
X72787474Y-48888555D02*
X72747673Y-48919650D01*
X72672425Y-48946393D01*
X72495184Y-48924631D01*
X72428640Y-48880478D01*
X72397545Y-48840677D01*
X72370802Y-48765429D01*
X72379507Y-48694533D01*
X72428012Y-48592541D01*
X72905619Y-48219394D01*
X72444794Y-48162811D01*
X93711728Y-50445017D02*
X93614352Y-50387806D01*
X93439683Y-50350679D01*
X93362390Y-50370762D01*
X93320030Y-50398271D01*
X93270246Y-50460713D01*
X93255395Y-50530581D01*
X93275478Y-50607874D01*
X93302986Y-50650233D01*
X93365429Y-50700018D01*
X93497739Y-50764653D01*
X93560181Y-50814438D01*
X93587689Y-50856797D01*
X93607772Y-50934090D01*
X93592921Y-51003958D01*
X93543137Y-51066400D01*
X93500778Y-51093909D01*
X93423484Y-51113992D01*
X93248815Y-51076865D01*
X93151439Y-51019655D01*
X92899477Y-51002610D02*
X92880741Y-50231873D01*
X92629625Y-50726179D01*
X92601271Y-50172469D01*
X92270668Y-50868953D01*
X92061065Y-50824400D02*
X91606925Y-50727870D01*
X91910865Y-50500377D01*
X91806063Y-50478101D01*
X91743621Y-50428316D01*
X91716113Y-50385957D01*
X91696030Y-50308664D01*
X91733157Y-50133995D01*
X91782941Y-50071552D01*
X91825301Y-50044044D01*
X91902594Y-50023961D01*
X92112197Y-50068513D01*
X92174639Y-50118298D01*
X92202147Y-50160657D01*
X241319657Y-49019215D02*
X241430354Y-49041606D01*
X241607594Y-49019844D01*
X241674138Y-48975691D01*
X241705234Y-48935890D01*
X241731977Y-48860642D01*
X241723272Y-48789745D01*
X241679119Y-48723202D01*
X241639318Y-48692106D01*
X241564070Y-48665363D01*
X241417925Y-48647325D01*
X241342676Y-48620582D01*
X241302876Y-48589486D01*
X241258723Y-48522942D01*
X241250018Y-48452046D01*
X241276761Y-48376798D01*
X241307856Y-48336997D01*
X241374400Y-48292844D01*
X241551641Y-48271082D01*
X241662337Y-48293472D01*
X241906121Y-48227557D02*
X242174764Y-48950204D01*
X242251269Y-48401073D01*
X242458348Y-48915384D01*
X242544187Y-48149212D01*
X242954621Y-48854450D02*
X243096414Y-48837040D01*
X243162957Y-48792887D01*
X243194053Y-48753086D01*
X243251892Y-48638037D01*
X243269930Y-48491892D01*
X243235110Y-48208308D01*
X243190957Y-48141764D01*
X243151156Y-48110668D01*
X243075908Y-48083925D01*
X242934116Y-48101335D01*
X242867572Y-48145488D01*
X242836476Y-48185289D01*
X242809733Y-48260537D01*
X242831496Y-48437778D01*
X242875649Y-48504321D01*
X242915449Y-48535417D01*
X242990698Y-48562160D01*
X243132490Y-48544750D01*
X243199034Y-48500597D01*
X243230129Y-48460797D01*
X243256872Y-48385548D01*
X244850365Y-68181946D02*
X244962591Y-68194604D01*
X245137261Y-68157477D01*
X245199703Y-68107692D01*
X245227211Y-68065333D01*
X245247294Y-67988039D01*
X245232444Y-67918172D01*
X245182659Y-67855730D01*
X245140300Y-67828221D01*
X245063007Y-67808138D01*
X244915846Y-67802906D01*
X244838553Y-67782823D01*
X244796193Y-67755314D01*
X244746409Y-67692872D01*
X244731558Y-67623005D01*
X244751641Y-67545711D01*
X244779149Y-67503352D01*
X244841592Y-67453568D01*
X245016261Y-67416440D01*
X245128488Y-67429098D01*
X245365599Y-67342186D02*
X245696202Y-68038670D01*
X245724556Y-67484961D01*
X245975673Y-67979267D01*
X245994408Y-67208529D01*
X246814085Y-67801056D02*
X246394879Y-67890162D01*
X246604482Y-67845609D02*
X246448548Y-67111998D01*
X246400957Y-67231651D01*
X246345940Y-67316369D01*
X246283498Y-67366154D01*
X247163424Y-67726802D02*
X247303159Y-67697101D01*
X247365601Y-67647316D01*
X247393110Y-67604957D01*
X247440701Y-67485304D01*
X247445933Y-67338144D01*
X247386530Y-67058673D01*
X247336745Y-66996231D01*
X247294386Y-66968722D01*
X247217093Y-66948639D01*
X247077357Y-66978341D01*
X247014915Y-67028125D01*
X246987407Y-67070485D01*
X246967324Y-67147778D01*
X247004451Y-67322447D01*
X247054236Y-67384889D01*
X247096595Y-67412398D01*
X247173888Y-67432481D01*
X247313623Y-67402779D01*
X247376066Y-67352994D01*
X247403574Y-67310635D01*
X247423657Y-67233342D01*
X269573776Y-89785122D02*
X269682100Y-89817075D01*
X269860563Y-89810843D01*
X269930701Y-89772657D01*
X269965147Y-89735719D01*
X269998347Y-89663087D01*
X269995854Y-89591702D01*
X269957669Y-89521563D01*
X269920730Y-89487117D01*
X269848098Y-89453918D01*
X269704082Y-89423211D01*
X269631450Y-89390011D01*
X269594511Y-89355565D01*
X269556326Y-89285426D01*
X269553833Y-89214041D01*
X269587033Y-89141410D01*
X269621479Y-89104471D01*
X269691618Y-89066285D01*
X269870080Y-89060053D01*
X269978404Y-89092007D01*
X270227006Y-89047589D02*
X270431643Y-89790900D01*
X270555717Y-89250527D01*
X270717183Y-89780929D01*
X270869471Y-89025154D01*
X271083626Y-89017675D02*
X271547629Y-89001472D01*
X271307753Y-89295737D01*
X271414830Y-89291998D01*
X271487462Y-89325198D01*
X271524401Y-89359644D01*
X271562586Y-89429782D01*
X271568818Y-89608245D01*
X271535619Y-89680876D01*
X271501172Y-89717815D01*
X271431034Y-89756001D01*
X271216879Y-89763479D01*
X271144247Y-89730280D01*
X271107308Y-89695833D01*
X272011632Y-88985269D02*
X272083017Y-88982776D01*
X272155649Y-89015976D01*
X272192588Y-89050422D01*
X272230773Y-89120560D01*
X272271451Y-89262084D01*
X272277683Y-89440547D01*
X272246976Y-89584563D01*
X272213777Y-89657195D01*
X272179331Y-89694134D01*
X272109192Y-89732319D01*
X272037807Y-89734812D01*
X271965175Y-89701612D01*
X271928236Y-89667166D01*
X271890051Y-89597027D01*
X271849373Y-89455504D01*
X271843141Y-89277041D01*
X271873848Y-89133024D01*
X271907047Y-89060393D01*
X271941494Y-89023454D01*
X272011632Y-88985269D01*
X225698765Y-69756746D02*
X225810991Y-69769404D01*
X225985661Y-69732277D01*
X226048103Y-69682492D01*
X226075611Y-69640133D01*
X226095694Y-69562839D01*
X226080844Y-69492972D01*
X226031059Y-69430530D01*
X225988700Y-69403021D01*
X225911407Y-69382938D01*
X225764246Y-69377706D01*
X225686953Y-69357623D01*
X225644593Y-69330114D01*
X225594809Y-69267672D01*
X225579958Y-69197805D01*
X225600041Y-69120511D01*
X225627549Y-69078152D01*
X225689992Y-69028368D01*
X225864661Y-68991240D01*
X225976888Y-69003898D01*
X226213999Y-68916986D02*
X226544602Y-69613470D01*
X226572956Y-69059761D01*
X226824073Y-69554067D01*
X226842808Y-68783329D01*
X227662485Y-69375856D02*
X227243279Y-69464962D01*
X227452882Y-69420409D02*
X227296948Y-68686798D01*
X227249357Y-68806451D01*
X227194340Y-68891169D01*
X227131898Y-68940954D01*
X227992586Y-68867545D02*
X227915293Y-68847462D01*
X227872934Y-68819954D01*
X227823149Y-68757512D01*
X227815724Y-68722578D01*
X227835807Y-68645285D01*
X227863315Y-68602925D01*
X227925757Y-68553141D01*
X228065493Y-68523439D01*
X228142786Y-68543522D01*
X228185145Y-68571031D01*
X228234930Y-68633473D01*
X228242355Y-68668407D01*
X228222272Y-68745700D01*
X228194764Y-68788059D01*
X228132322Y-68837844D01*
X227992586Y-68867545D01*
X227930144Y-68917330D01*
X227902636Y-68959689D01*
X227882553Y-69036982D01*
X227912254Y-69176718D01*
X227962039Y-69239160D01*
X228004398Y-69266668D01*
X228081691Y-69286751D01*
X228221427Y-69257050D01*
X228283869Y-69207265D01*
X228311377Y-69164906D01*
X228331460Y-69087613D01*
X228301759Y-68947877D01*
X228251974Y-68885435D01*
X228209615Y-68857927D01*
X228132322Y-68837844D01*
X90307470Y-114626265D02*
X90228219Y-114545802D01*
X90069111Y-114464732D01*
X89989254Y-114464126D01*
X89941218Y-114479734D01*
X89876968Y-114527163D01*
X89844541Y-114590806D01*
X89843934Y-114670664D01*
X89859542Y-114718699D01*
X89906971Y-114782949D01*
X90018044Y-114879626D01*
X90065473Y-114943876D01*
X90081081Y-114991911D01*
X90080475Y-115071769D01*
X90048047Y-115135412D01*
X89983797Y-115182841D01*
X89935762Y-115198449D01*
X89855905Y-115197843D01*
X89696796Y-115116773D01*
X89617545Y-115036310D01*
X89378580Y-114954634D02*
X89559964Y-114205309D01*
X89189468Y-114617778D01*
X89305391Y-114075597D01*
X88805790Y-114662783D01*
X88614860Y-114565499D02*
X88201178Y-114354718D01*
X88553641Y-114213642D01*
X88458176Y-114165000D01*
X88410747Y-114100751D01*
X88395139Y-114052715D01*
X88395746Y-113972858D01*
X88476815Y-113813749D01*
X88541065Y-113766320D01*
X88589100Y-113750712D01*
X88668958Y-113751318D01*
X88859888Y-113848602D01*
X88907317Y-113912852D01*
X88922925Y-113960887D01*
X87905238Y-113362184D02*
X88287098Y-113556751D01*
X88096168Y-113459467D02*
X87755675Y-114127722D01*
X87867960Y-114064685D01*
X87964031Y-114033470D01*
X88043889Y-114034076D01*
X46144012Y-89178349D02*
X46038181Y-89138917D01*
X45859718Y-89132685D01*
X45787087Y-89165884D01*
X45750148Y-89200331D01*
X45711963Y-89270469D01*
X45709470Y-89341854D01*
X45742669Y-89414486D01*
X45777116Y-89451425D01*
X45847254Y-89489610D01*
X45988778Y-89530288D01*
X46058917Y-89568474D01*
X46093363Y-89605413D01*
X46126562Y-89678044D01*
X46124070Y-89749429D01*
X46085884Y-89819568D01*
X46048945Y-89854014D01*
X45976314Y-89887214D01*
X45797851Y-89880981D01*
X45692020Y-89841550D01*
X45440926Y-89868517D02*
X45288638Y-89112742D01*
X45127172Y-89643145D01*
X45003098Y-89102771D01*
X44798460Y-89846082D01*
X44551105Y-89765972D02*
X44514166Y-89800418D01*
X44441535Y-89833618D01*
X44263072Y-89827386D01*
X44192934Y-89789200D01*
X44158488Y-89752262D01*
X44125288Y-89679630D01*
X44127781Y-89608245D01*
X44167212Y-89502414D01*
X44610480Y-89089060D01*
X44146477Y-89072857D01*
X43432626Y-89047929D02*
X43860937Y-89062886D01*
X43646781Y-89055407D02*
X43620607Y-89804950D01*
X43695731Y-89700366D01*
X43769609Y-89631473D01*
X43842240Y-89598274D01*
D11*
X165045476Y-79069285D02*
X165045476Y-78319285D01*
X165205000Y-78319285D01*
X165300714Y-78355000D01*
X165364523Y-78426428D01*
X165396428Y-78497857D01*
X165428333Y-78640714D01*
X165428333Y-78747857D01*
X165396428Y-78890714D01*
X165364523Y-78962142D01*
X165300714Y-79033571D01*
X165205000Y-79069285D01*
X165045476Y-79069285D01*
X165683571Y-78390714D02*
X165715476Y-78355000D01*
X165779285Y-78319285D01*
X165938809Y-78319285D01*
X166002619Y-78355000D01*
X166034523Y-78390714D01*
X166066428Y-78462142D01*
X166066428Y-78533571D01*
X166034523Y-78640714D01*
X165651666Y-79069285D01*
X166066428Y-79069285D01*
X150190523Y-78350000D02*
X150126714Y-78314285D01*
X150031000Y-78314285D01*
X149935285Y-78350000D01*
X149871476Y-78421428D01*
X149839571Y-78492857D01*
X149807666Y-78635714D01*
X149807666Y-78742857D01*
X149839571Y-78885714D01*
X149871476Y-78957142D01*
X149935285Y-79028571D01*
X150031000Y-79064285D01*
X150094809Y-79064285D01*
X150190523Y-79028571D01*
X150222428Y-78992857D01*
X150222428Y-78742857D01*
X150094809Y-78742857D01*
X150509571Y-79064285D02*
X150509571Y-78314285D01*
X150892428Y-79064285D01*
X150892428Y-78314285D01*
X151211476Y-79064285D02*
X151211476Y-78314285D01*
X151371000Y-78314285D01*
X151466714Y-78350000D01*
X151530523Y-78421428D01*
X151562428Y-78492857D01*
X151594333Y-78635714D01*
X151594333Y-78742857D01*
X151562428Y-78885714D01*
X151530523Y-78957142D01*
X151466714Y-79028571D01*
X151371000Y-79064285D01*
X151211476Y-79064285D01*
X151550285Y-87830000D02*
X151869333Y-87830000D01*
X151486476Y-88044285D02*
X151709809Y-87294285D01*
X151933142Y-88044285D01*
X152124571Y-87365714D02*
X152156476Y-87330000D01*
X152220285Y-87294285D01*
X152379809Y-87294285D01*
X152443619Y-87330000D01*
X152475523Y-87365714D01*
X152507428Y-87437142D01*
X152507428Y-87508571D01*
X152475523Y-87615714D01*
X152092666Y-88044285D01*
X152507428Y-88044285D01*
X153273142Y-87258571D02*
X152698857Y-88222857D01*
X153719809Y-87651428D02*
X153496476Y-87651428D01*
X153496476Y-88044285D02*
X153496476Y-87294285D01*
X153815523Y-87294285D01*
X154389809Y-87294285D02*
X154070761Y-87294285D01*
X154038857Y-87651428D01*
X154070761Y-87615714D01*
X154134571Y-87580000D01*
X154294095Y-87580000D01*
X154357904Y-87615714D01*
X154389809Y-87651428D01*
X154421714Y-87722857D01*
X154421714Y-87901428D01*
X154389809Y-87972857D01*
X154357904Y-88008571D01*
X154294095Y-88044285D01*
X154134571Y-88044285D01*
X154070761Y-88008571D01*
X154038857Y-87972857D01*
X151550285Y-85330000D02*
X151869333Y-85330000D01*
X151486476Y-85544285D02*
X151709809Y-84794285D01*
X151933142Y-85544285D01*
X152092666Y-84794285D02*
X152507428Y-84794285D01*
X152284095Y-85080000D01*
X152379809Y-85080000D01*
X152443619Y-85115714D01*
X152475523Y-85151428D01*
X152507428Y-85222857D01*
X152507428Y-85401428D01*
X152475523Y-85472857D01*
X152443619Y-85508571D01*
X152379809Y-85544285D01*
X152188380Y-85544285D01*
X152124571Y-85508571D01*
X152092666Y-85472857D01*
X153273142Y-84758571D02*
X152698857Y-85722857D01*
X153719809Y-85151428D02*
X153496476Y-85151428D01*
X153496476Y-85544285D02*
X153496476Y-84794285D01*
X153815523Y-84794285D01*
X154357904Y-85044285D02*
X154357904Y-85544285D01*
X154198380Y-84758571D02*
X154038857Y-85294285D01*
X154453619Y-85294285D01*
X162144809Y-100226428D02*
X162240523Y-100262142D01*
X162272428Y-100297857D01*
X162304333Y-100369285D01*
X162304333Y-100476428D01*
X162272428Y-100547857D01*
X162240523Y-100583571D01*
X162176714Y-100619285D01*
X161921476Y-100619285D01*
X161921476Y-99869285D01*
X162144809Y-99869285D01*
X162208619Y-99905000D01*
X162240523Y-99940714D01*
X162272428Y-100012142D01*
X162272428Y-100083571D01*
X162240523Y-100155000D01*
X162208619Y-100190714D01*
X162144809Y-100226428D01*
X161921476Y-100226428D01*
X162878619Y-100119285D02*
X162878619Y-100619285D01*
X162719095Y-99833571D02*
X162559571Y-100369285D01*
X162974333Y-100369285D01*
X163708142Y-99833571D02*
X163133857Y-100797857D01*
X164027190Y-100190714D02*
X163963380Y-100155000D01*
X163931476Y-100119285D01*
X163899571Y-100047857D01*
X163899571Y-100012142D01*
X163931476Y-99940714D01*
X163963380Y-99905000D01*
X164027190Y-99869285D01*
X164154809Y-99869285D01*
X164218619Y-99905000D01*
X164250523Y-99940714D01*
X164282428Y-100012142D01*
X164282428Y-100047857D01*
X164250523Y-100119285D01*
X164218619Y-100155000D01*
X164154809Y-100190714D01*
X164027190Y-100190714D01*
X163963380Y-100226428D01*
X163931476Y-100262142D01*
X163899571Y-100333571D01*
X163899571Y-100476428D01*
X163931476Y-100547857D01*
X163963380Y-100583571D01*
X164027190Y-100619285D01*
X164154809Y-100619285D01*
X164218619Y-100583571D01*
X164250523Y-100547857D01*
X164282428Y-100476428D01*
X164282428Y-100333571D01*
X164250523Y-100262142D01*
X164218619Y-100226428D01*
X164154809Y-100190714D01*
X150128380Y-76524285D02*
X149905047Y-76167142D01*
X149745523Y-76524285D02*
X149745523Y-75774285D01*
X150000761Y-75774285D01*
X150064571Y-75810000D01*
X150096476Y-75845714D01*
X150128380Y-75917142D01*
X150128380Y-76024285D01*
X150096476Y-76095714D01*
X150064571Y-76131428D01*
X150000761Y-76167142D01*
X149745523Y-76167142D01*
X150383619Y-76310000D02*
X150702666Y-76310000D01*
X150319809Y-76524285D02*
X150543142Y-75774285D01*
X150766476Y-76524285D01*
X150926000Y-75774285D02*
X151085523Y-76524285D01*
X151213142Y-75988571D01*
X151340761Y-76524285D01*
X151500285Y-75774285D01*
X161746476Y-90394285D02*
X161746476Y-89644285D01*
X161906000Y-89644285D01*
X162001714Y-89680000D01*
X162065523Y-89751428D01*
X162097428Y-89822857D01*
X162129333Y-89965714D01*
X162129333Y-90072857D01*
X162097428Y-90215714D01*
X162065523Y-90287142D01*
X162001714Y-90358571D01*
X161906000Y-90394285D01*
X161746476Y-90394285D01*
X162703619Y-89894285D02*
X162703619Y-90394285D01*
X162544095Y-89608571D02*
X162384571Y-90144285D01*
X162799333Y-90144285D01*
X163533142Y-89608571D02*
X162958857Y-90572857D01*
X164043619Y-89894285D02*
X164043619Y-90394285D01*
X163884095Y-89608571D02*
X163724571Y-90144285D01*
X164139333Y-90144285D01*
X162003380Y-97751428D02*
X162226714Y-97751428D01*
X162322428Y-98144285D02*
X162003380Y-98144285D01*
X162003380Y-97394285D01*
X162322428Y-97394285D01*
X162896714Y-97394285D02*
X162769095Y-97394285D01*
X162705285Y-97430000D01*
X162673380Y-97465714D01*
X162609571Y-97572857D01*
X162577666Y-97715714D01*
X162577666Y-98001428D01*
X162609571Y-98072857D01*
X162641476Y-98108571D01*
X162705285Y-98144285D01*
X162832904Y-98144285D01*
X162896714Y-98108571D01*
X162928619Y-98072857D01*
X162960523Y-98001428D01*
X162960523Y-97822857D01*
X162928619Y-97751428D01*
X162896714Y-97715714D01*
X162832904Y-97680000D01*
X162705285Y-97680000D01*
X162641476Y-97715714D01*
X162609571Y-97751428D01*
X162577666Y-97822857D01*
X163726238Y-97358571D02*
X163151952Y-98322857D01*
X163885761Y-97394285D02*
X164332428Y-97394285D01*
X164045285Y-98144285D01*
X162304333Y-92922857D02*
X162272428Y-92958571D01*
X162176714Y-92994285D01*
X162112904Y-92994285D01*
X162017190Y-92958571D01*
X161953380Y-92887142D01*
X161921476Y-92815714D01*
X161889571Y-92672857D01*
X161889571Y-92565714D01*
X161921476Y-92422857D01*
X161953380Y-92351428D01*
X162017190Y-92280000D01*
X162112904Y-92244285D01*
X162176714Y-92244285D01*
X162272428Y-92280000D01*
X162304333Y-92315714D01*
X162878619Y-92244285D02*
X162751000Y-92244285D01*
X162687190Y-92280000D01*
X162655285Y-92315714D01*
X162591476Y-92422857D01*
X162559571Y-92565714D01*
X162559571Y-92851428D01*
X162591476Y-92922857D01*
X162623380Y-92958571D01*
X162687190Y-92994285D01*
X162814809Y-92994285D01*
X162878619Y-92958571D01*
X162910523Y-92922857D01*
X162942428Y-92851428D01*
X162942428Y-92672857D01*
X162910523Y-92601428D01*
X162878619Y-92565714D01*
X162814809Y-92530000D01*
X162687190Y-92530000D01*
X162623380Y-92565714D01*
X162591476Y-92601428D01*
X162559571Y-92672857D01*
X163708142Y-92208571D02*
X163133857Y-93172857D01*
X164250523Y-92244285D02*
X163931476Y-92244285D01*
X163899571Y-92601428D01*
X163931476Y-92565714D01*
X163995285Y-92530000D01*
X164154809Y-92530000D01*
X164218619Y-92565714D01*
X164250523Y-92601428D01*
X164282428Y-92672857D01*
X164282428Y-92851428D01*
X164250523Y-92922857D01*
X164218619Y-92958571D01*
X164154809Y-92994285D01*
X163995285Y-92994285D01*
X163931476Y-92958571D01*
X163899571Y-92922857D01*
X151853380Y-98194285D02*
X151470523Y-98194285D01*
X151661952Y-98194285D02*
X151661952Y-97444285D01*
X151598142Y-97551428D01*
X151534333Y-97622857D01*
X151470523Y-97658571D01*
X152427666Y-97694285D02*
X152427666Y-98194285D01*
X152268142Y-97408571D02*
X152108619Y-97944285D01*
X152523380Y-97944285D01*
X153257190Y-97408571D02*
X152682904Y-98372857D01*
X153703857Y-97801428D02*
X153799571Y-97837142D01*
X153831476Y-97872857D01*
X153863380Y-97944285D01*
X153863380Y-98051428D01*
X153831476Y-98122857D01*
X153799571Y-98158571D01*
X153735761Y-98194285D01*
X153480523Y-98194285D01*
X153480523Y-97444285D01*
X153703857Y-97444285D01*
X153767666Y-97480000D01*
X153799571Y-97515714D01*
X153831476Y-97587142D01*
X153831476Y-97658571D01*
X153799571Y-97730000D01*
X153767666Y-97765714D01*
X153703857Y-97801428D01*
X153480523Y-97801428D01*
X154086714Y-97444285D02*
X154501476Y-97444285D01*
X154278142Y-97730000D01*
X154373857Y-97730000D01*
X154437666Y-97765714D01*
X154469571Y-97801428D01*
X154501476Y-97872857D01*
X154501476Y-98051428D01*
X154469571Y-98122857D01*
X154437666Y-98158571D01*
X154373857Y-98194285D01*
X154182428Y-98194285D01*
X154118619Y-98158571D01*
X154086714Y-98122857D01*
X151853380Y-103244285D02*
X151470523Y-103244285D01*
X151661952Y-103244285D02*
X151661952Y-102494285D01*
X151598142Y-102601428D01*
X151534333Y-102672857D01*
X151470523Y-102708571D01*
X152268142Y-102494285D02*
X152331952Y-102494285D01*
X152395761Y-102530000D01*
X152427666Y-102565714D01*
X152459571Y-102637142D01*
X152491476Y-102780000D01*
X152491476Y-102958571D01*
X152459571Y-103101428D01*
X152427666Y-103172857D01*
X152395761Y-103208571D01*
X152331952Y-103244285D01*
X152268142Y-103244285D01*
X152204333Y-103208571D01*
X152172428Y-103172857D01*
X152140523Y-103101428D01*
X152108619Y-102958571D01*
X152108619Y-102780000D01*
X152140523Y-102637142D01*
X152172428Y-102565714D01*
X152204333Y-102530000D01*
X152268142Y-102494285D01*
X153257190Y-102458571D02*
X152682904Y-103422857D01*
X153703857Y-102851428D02*
X153799571Y-102887142D01*
X153831476Y-102922857D01*
X153863380Y-102994285D01*
X153863380Y-103101428D01*
X153831476Y-103172857D01*
X153799571Y-103208571D01*
X153735761Y-103244285D01*
X153480523Y-103244285D01*
X153480523Y-102494285D01*
X153703857Y-102494285D01*
X153767666Y-102530000D01*
X153799571Y-102565714D01*
X153831476Y-102637142D01*
X153831476Y-102708571D01*
X153799571Y-102780000D01*
X153767666Y-102815714D01*
X153703857Y-102851428D01*
X153480523Y-102851428D01*
X154437666Y-102494285D02*
X154310047Y-102494285D01*
X154246238Y-102530000D01*
X154214333Y-102565714D01*
X154150523Y-102672857D01*
X154118619Y-102815714D01*
X154118619Y-103101428D01*
X154150523Y-103172857D01*
X154182428Y-103208571D01*
X154246238Y-103244285D01*
X154373857Y-103244285D01*
X154437666Y-103208571D01*
X154469571Y-103172857D01*
X154501476Y-103101428D01*
X154501476Y-102922857D01*
X154469571Y-102851428D01*
X154437666Y-102815714D01*
X154373857Y-102780000D01*
X154246238Y-102780000D01*
X154182428Y-102815714D01*
X154150523Y-102851428D01*
X154118619Y-102922857D01*
X161721476Y-95544285D02*
X161721476Y-94794285D01*
X161881000Y-94794285D01*
X161976714Y-94830000D01*
X162040523Y-94901428D01*
X162072428Y-94972857D01*
X162104333Y-95115714D01*
X162104333Y-95222857D01*
X162072428Y-95365714D01*
X162040523Y-95437142D01*
X161976714Y-95508571D01*
X161881000Y-95544285D01*
X161721476Y-95544285D01*
X162327666Y-94794285D02*
X162774333Y-94794285D01*
X162487190Y-95544285D01*
X163508142Y-94758571D02*
X162933857Y-95722857D01*
X164018619Y-94794285D02*
X163891000Y-94794285D01*
X163827190Y-94830000D01*
X163795285Y-94865714D01*
X163731476Y-94972857D01*
X163699571Y-95115714D01*
X163699571Y-95401428D01*
X163731476Y-95472857D01*
X163763380Y-95508571D01*
X163827190Y-95544285D01*
X163954809Y-95544285D01*
X164018619Y-95508571D01*
X164050523Y-95472857D01*
X164082428Y-95401428D01*
X164082428Y-95222857D01*
X164050523Y-95151428D01*
X164018619Y-95115714D01*
X163954809Y-95080000D01*
X163827190Y-95080000D01*
X163763380Y-95115714D01*
X163731476Y-95151428D01*
X163699571Y-95222857D01*
X151550285Y-92880000D02*
X151869333Y-92880000D01*
X151486476Y-93094285D02*
X151709809Y-92344285D01*
X151933142Y-93094285D01*
X152284095Y-92344285D02*
X152347904Y-92344285D01*
X152411714Y-92380000D01*
X152443619Y-92415714D01*
X152475523Y-92487142D01*
X152507428Y-92630000D01*
X152507428Y-92808571D01*
X152475523Y-92951428D01*
X152443619Y-93022857D01*
X152411714Y-93058571D01*
X152347904Y-93094285D01*
X152284095Y-93094285D01*
X152220285Y-93058571D01*
X152188380Y-93022857D01*
X152156476Y-92951428D01*
X152124571Y-92808571D01*
X152124571Y-92630000D01*
X152156476Y-92487142D01*
X152188380Y-92415714D01*
X152220285Y-92380000D01*
X152284095Y-92344285D01*
X153273142Y-92308571D02*
X152698857Y-93272857D01*
X153719809Y-92701428D02*
X153496476Y-92701428D01*
X153496476Y-93094285D02*
X153496476Y-92344285D01*
X153815523Y-92344285D01*
X154006952Y-92344285D02*
X154453619Y-92344285D01*
X154166476Y-93094285D01*
X151617666Y-82094285D02*
X151841000Y-82844285D01*
X152064333Y-82094285D01*
X152670523Y-82772857D02*
X152638619Y-82808571D01*
X152542904Y-82844285D01*
X152479095Y-82844285D01*
X152383380Y-82808571D01*
X152319571Y-82737142D01*
X152287666Y-82665714D01*
X152255761Y-82522857D01*
X152255761Y-82415714D01*
X152287666Y-82272857D01*
X152319571Y-82201428D01*
X152383380Y-82130000D01*
X152479095Y-82094285D01*
X152542904Y-82094285D01*
X152638619Y-82130000D01*
X152670523Y-82165714D01*
X153340523Y-82772857D02*
X153308619Y-82808571D01*
X153212904Y-82844285D01*
X153149095Y-82844285D01*
X153053380Y-82808571D01*
X152989571Y-82737142D01*
X152957666Y-82665714D01*
X152925761Y-82522857D01*
X152925761Y-82415714D01*
X152957666Y-82272857D01*
X152989571Y-82201428D01*
X153053380Y-82130000D01*
X153149095Y-82094285D01*
X153212904Y-82094285D01*
X153308619Y-82130000D01*
X153340523Y-82165714D01*
D10*
X156935047Y-72076428D02*
X157696952Y-72076428D01*
D11*
X151853380Y-95644285D02*
X151470523Y-95644285D01*
X151661952Y-95644285D02*
X151661952Y-94894285D01*
X151598142Y-95001428D01*
X151534333Y-95072857D01*
X151470523Y-95108571D01*
X152459571Y-94894285D02*
X152140523Y-94894285D01*
X152108619Y-95251428D01*
X152140523Y-95215714D01*
X152204333Y-95180000D01*
X152363857Y-95180000D01*
X152427666Y-95215714D01*
X152459571Y-95251428D01*
X152491476Y-95322857D01*
X152491476Y-95501428D01*
X152459571Y-95572857D01*
X152427666Y-95608571D01*
X152363857Y-95644285D01*
X152204333Y-95644285D01*
X152140523Y-95608571D01*
X152108619Y-95572857D01*
X153257190Y-94858571D02*
X152682904Y-95822857D01*
X153703857Y-95251428D02*
X153799571Y-95287142D01*
X153831476Y-95322857D01*
X153863380Y-95394285D01*
X153863380Y-95501428D01*
X153831476Y-95572857D01*
X153799571Y-95608571D01*
X153735761Y-95644285D01*
X153480523Y-95644285D01*
X153480523Y-94894285D01*
X153703857Y-94894285D01*
X153767666Y-94930000D01*
X153799571Y-94965714D01*
X153831476Y-95037142D01*
X153831476Y-95108571D01*
X153799571Y-95180000D01*
X153767666Y-95215714D01*
X153703857Y-95251428D01*
X153480523Y-95251428D01*
X154501476Y-95644285D02*
X154118619Y-95644285D01*
X154310047Y-95644285D02*
X154310047Y-94894285D01*
X154246238Y-95001428D01*
X154182428Y-95072857D01*
X154118619Y-95108571D01*
X159447428Y-85483571D02*
X159543142Y-85519285D01*
X159702666Y-85519285D01*
X159766476Y-85483571D01*
X159798380Y-85447857D01*
X159830285Y-85376428D01*
X159830285Y-85305000D01*
X159798380Y-85233571D01*
X159766476Y-85197857D01*
X159702666Y-85162142D01*
X159575047Y-85126428D01*
X159511238Y-85090714D01*
X159479333Y-85055000D01*
X159447428Y-84983571D01*
X159447428Y-84912142D01*
X159479333Y-84840714D01*
X159511238Y-84805000D01*
X159575047Y-84769285D01*
X159734571Y-84769285D01*
X159830285Y-84805000D01*
X160117428Y-85519285D02*
X160117428Y-84769285D01*
X160276952Y-84769285D01*
X160372666Y-84805000D01*
X160436476Y-84876428D01*
X160468380Y-84947857D01*
X160500285Y-85090714D01*
X160500285Y-85197857D01*
X160468380Y-85340714D01*
X160436476Y-85412142D01*
X160372666Y-85483571D01*
X160276952Y-85519285D01*
X160117428Y-85519285D01*
X160755523Y-85305000D02*
X161074571Y-85305000D01*
X160691714Y-85519285D02*
X160915047Y-84769285D01*
X161138380Y-85519285D01*
X161840285Y-84733571D02*
X161266000Y-85697857D01*
X162063619Y-85519285D02*
X162063619Y-84769285D01*
X162223142Y-84769285D01*
X162318857Y-84805000D01*
X162382666Y-84876428D01*
X162414571Y-84947857D01*
X162446476Y-85090714D01*
X162446476Y-85197857D01*
X162414571Y-85340714D01*
X162382666Y-85412142D01*
X162318857Y-85483571D01*
X162223142Y-85519285D01*
X162063619Y-85519285D01*
X163084571Y-85519285D02*
X162701714Y-85519285D01*
X162893142Y-85519285D02*
X162893142Y-84769285D01*
X162829333Y-84876428D01*
X162765523Y-84947857D01*
X162701714Y-84983571D01*
X163850285Y-84733571D02*
X163276000Y-85697857D01*
X164041714Y-84840714D02*
X164073619Y-84805000D01*
X164137428Y-84769285D01*
X164296952Y-84769285D01*
X164360761Y-84805000D01*
X164392666Y-84840714D01*
X164424571Y-84912142D01*
X164424571Y-84983571D01*
X164392666Y-85090714D01*
X164009809Y-85519285D01*
X164424571Y-85519285D01*
X151550285Y-90330000D02*
X151869333Y-90330000D01*
X151486476Y-90544285D02*
X151709809Y-89794285D01*
X151933142Y-90544285D01*
X152507428Y-90544285D02*
X152124571Y-90544285D01*
X152316000Y-90544285D02*
X152316000Y-89794285D01*
X152252190Y-89901428D01*
X152188380Y-89972857D01*
X152124571Y-90008571D01*
X153273142Y-89758571D02*
X152698857Y-90722857D01*
X153719809Y-90151428D02*
X153496476Y-90151428D01*
X153496476Y-90544285D02*
X153496476Y-89794285D01*
X153815523Y-89794285D01*
X154357904Y-89794285D02*
X154230285Y-89794285D01*
X154166476Y-89830000D01*
X154134571Y-89865714D01*
X154070761Y-89972857D01*
X154038857Y-90115714D01*
X154038857Y-90401428D01*
X154070761Y-90472857D01*
X154102666Y-90508571D01*
X154166476Y-90544285D01*
X154294095Y-90544285D01*
X154357904Y-90508571D01*
X154389809Y-90472857D01*
X154421714Y-90401428D01*
X154421714Y-90222857D01*
X154389809Y-90151428D01*
X154357904Y-90115714D01*
X154294095Y-90080000D01*
X154166476Y-90080000D01*
X154102666Y-90115714D01*
X154070761Y-90151428D01*
X154038857Y-90222857D01*
X151853380Y-100744285D02*
X151470523Y-100744285D01*
X151661952Y-100744285D02*
X151661952Y-99994285D01*
X151598142Y-100101428D01*
X151534333Y-100172857D01*
X151470523Y-100208571D01*
X152427666Y-99994285D02*
X152300047Y-99994285D01*
X152236238Y-100030000D01*
X152204333Y-100065714D01*
X152140523Y-100172857D01*
X152108619Y-100315714D01*
X152108619Y-100601428D01*
X152140523Y-100672857D01*
X152172428Y-100708571D01*
X152236238Y-100744285D01*
X152363857Y-100744285D01*
X152427666Y-100708571D01*
X152459571Y-100672857D01*
X152491476Y-100601428D01*
X152491476Y-100422857D01*
X152459571Y-100351428D01*
X152427666Y-100315714D01*
X152363857Y-100280000D01*
X152236238Y-100280000D01*
X152172428Y-100315714D01*
X152140523Y-100351428D01*
X152108619Y-100422857D01*
X153257190Y-99958571D02*
X152682904Y-100922857D01*
X153703857Y-100351428D02*
X153799571Y-100387142D01*
X153831476Y-100422857D01*
X153863380Y-100494285D01*
X153863380Y-100601428D01*
X153831476Y-100672857D01*
X153799571Y-100708571D01*
X153735761Y-100744285D01*
X153480523Y-100744285D01*
X153480523Y-99994285D01*
X153703857Y-99994285D01*
X153767666Y-100030000D01*
X153799571Y-100065714D01*
X153831476Y-100137142D01*
X153831476Y-100208571D01*
X153799571Y-100280000D01*
X153767666Y-100315714D01*
X153703857Y-100351428D01*
X153480523Y-100351428D01*
X154118619Y-100065714D02*
X154150523Y-100030000D01*
X154214333Y-99994285D01*
X154373857Y-99994285D01*
X154437666Y-100030000D01*
X154469571Y-100065714D01*
X154501476Y-100137142D01*
X154501476Y-100208571D01*
X154469571Y-100315714D01*
X154086714Y-100744285D01*
X154501476Y-100744285D01*
X151919095Y-80419285D02*
X151695761Y-80062142D01*
X151536238Y-80419285D02*
X151536238Y-79669285D01*
X151791476Y-79669285D01*
X151855285Y-79705000D01*
X151887190Y-79740714D01*
X151919095Y-79812142D01*
X151919095Y-79919285D01*
X151887190Y-79990714D01*
X151855285Y-80026428D01*
X151791476Y-80062142D01*
X151536238Y-80062142D01*
X152174333Y-80383571D02*
X152270047Y-80419285D01*
X152429571Y-80419285D01*
X152493380Y-80383571D01*
X152525285Y-80347857D01*
X152557190Y-80276428D01*
X152557190Y-80205000D01*
X152525285Y-80133571D01*
X152493380Y-80097857D01*
X152429571Y-80062142D01*
X152301952Y-80026428D01*
X152238142Y-79990714D01*
X152206238Y-79955000D01*
X152174333Y-79883571D01*
X152174333Y-79812142D01*
X152206238Y-79740714D01*
X152238142Y-79705000D01*
X152301952Y-79669285D01*
X152461476Y-79669285D01*
X152557190Y-79705000D01*
X152748619Y-79669285D02*
X153131476Y-79669285D01*
X152940047Y-80419285D02*
X152940047Y-79669285D01*
X164796476Y-76524285D02*
X164796476Y-75774285D01*
X164956000Y-75774285D01*
X165051714Y-75810000D01*
X165115523Y-75881428D01*
X165147428Y-75952857D01*
X165179333Y-76095714D01*
X165179333Y-76202857D01*
X165147428Y-76345714D01*
X165115523Y-76417142D01*
X165051714Y-76488571D01*
X164956000Y-76524285D01*
X164796476Y-76524285D01*
X165402666Y-75774285D02*
X165817428Y-75774285D01*
X165594095Y-76060000D01*
X165689809Y-76060000D01*
X165753619Y-76095714D01*
X165785523Y-76131428D01*
X165817428Y-76202857D01*
X165817428Y-76381428D01*
X165785523Y-76452857D01*
X165753619Y-76488571D01*
X165689809Y-76524285D01*
X165498380Y-76524285D01*
X165434571Y-76488571D01*
X165402666Y-76452857D01*
X159463380Y-87983571D02*
X159559095Y-88019285D01*
X159718619Y-88019285D01*
X159782428Y-87983571D01*
X159814333Y-87947857D01*
X159846238Y-87876428D01*
X159846238Y-87805000D01*
X159814333Y-87733571D01*
X159782428Y-87697857D01*
X159718619Y-87662142D01*
X159591000Y-87626428D01*
X159527190Y-87590714D01*
X159495285Y-87555000D01*
X159463380Y-87483571D01*
X159463380Y-87412142D01*
X159495285Y-87340714D01*
X159527190Y-87305000D01*
X159591000Y-87269285D01*
X159750523Y-87269285D01*
X159846238Y-87305000D01*
X160516238Y-87947857D02*
X160484333Y-87983571D01*
X160388619Y-88019285D01*
X160324809Y-88019285D01*
X160229095Y-87983571D01*
X160165285Y-87912142D01*
X160133380Y-87840714D01*
X160101476Y-87697857D01*
X160101476Y-87590714D01*
X160133380Y-87447857D01*
X160165285Y-87376428D01*
X160229095Y-87305000D01*
X160324809Y-87269285D01*
X160388619Y-87269285D01*
X160484333Y-87305000D01*
X160516238Y-87340714D01*
X161122428Y-88019285D02*
X160803380Y-88019285D01*
X160803380Y-87269285D01*
X161824333Y-87233571D02*
X161250047Y-88197857D01*
X162047666Y-88019285D02*
X162047666Y-87269285D01*
X162207190Y-87269285D01*
X162302904Y-87305000D01*
X162366714Y-87376428D01*
X162398619Y-87447857D01*
X162430523Y-87590714D01*
X162430523Y-87697857D01*
X162398619Y-87840714D01*
X162366714Y-87912142D01*
X162302904Y-87983571D01*
X162207190Y-88019285D01*
X162047666Y-88019285D01*
X162845285Y-87269285D02*
X162909095Y-87269285D01*
X162972904Y-87305000D01*
X163004809Y-87340714D01*
X163036714Y-87412142D01*
X163068619Y-87555000D01*
X163068619Y-87733571D01*
X163036714Y-87876428D01*
X163004809Y-87947857D01*
X162972904Y-87983571D01*
X162909095Y-88019285D01*
X162845285Y-88019285D01*
X162781476Y-87983571D01*
X162749571Y-87947857D01*
X162717666Y-87876428D01*
X162685761Y-87733571D01*
X162685761Y-87555000D01*
X162717666Y-87412142D01*
X162749571Y-87340714D01*
X162781476Y-87305000D01*
X162845285Y-87269285D01*
X163834333Y-87233571D02*
X163260047Y-88197857D01*
X163993857Y-87269285D02*
X164408619Y-87269285D01*
X164185285Y-87555000D01*
X164281000Y-87555000D01*
X164344809Y-87590714D01*
X164376714Y-87626428D01*
X164408619Y-87697857D01*
X164408619Y-87876428D01*
X164376714Y-87947857D01*
X164344809Y-87983571D01*
X164281000Y-88019285D01*
X164089571Y-88019285D01*
X164025761Y-87983571D01*
X163993857Y-87947857D01*
X162119809Y-102776428D02*
X162215523Y-102812142D01*
X162247428Y-102847857D01*
X162279333Y-102919285D01*
X162279333Y-103026428D01*
X162247428Y-103097857D01*
X162215523Y-103133571D01*
X162151714Y-103169285D01*
X161896476Y-103169285D01*
X161896476Y-102419285D01*
X162119809Y-102419285D01*
X162183619Y-102455000D01*
X162215523Y-102490714D01*
X162247428Y-102562142D01*
X162247428Y-102633571D01*
X162215523Y-102705000D01*
X162183619Y-102740714D01*
X162119809Y-102776428D01*
X161896476Y-102776428D01*
X162885523Y-102419285D02*
X162566476Y-102419285D01*
X162534571Y-102776428D01*
X162566476Y-102740714D01*
X162630285Y-102705000D01*
X162789809Y-102705000D01*
X162853619Y-102740714D01*
X162885523Y-102776428D01*
X162917428Y-102847857D01*
X162917428Y-103026428D01*
X162885523Y-103097857D01*
X162853619Y-103133571D01*
X162789809Y-103169285D01*
X162630285Y-103169285D01*
X162566476Y-103133571D01*
X162534571Y-103097857D01*
X163683142Y-102383571D02*
X163108857Y-103347857D01*
X163938380Y-103169285D02*
X164066000Y-103169285D01*
X164129809Y-103133571D01*
X164161714Y-103097857D01*
X164225523Y-102990714D01*
X164257428Y-102847857D01*
X164257428Y-102562142D01*
X164225523Y-102490714D01*
X164193619Y-102455000D01*
X164129809Y-102419285D01*
X164002190Y-102419285D01*
X163938380Y-102455000D01*
X163906476Y-102490714D01*
X163874571Y-102562142D01*
X163874571Y-102740714D01*
X163906476Y-102812142D01*
X163938380Y-102847857D01*
X164002190Y-102883571D01*
X164129809Y-102883571D01*
X164193619Y-102847857D01*
X164225523Y-102812142D01*
X164257428Y-102740714D01*
X162800523Y-79630000D02*
X162736714Y-79594285D01*
X162641000Y-79594285D01*
X162545285Y-79630000D01*
X162481476Y-79701428D01*
X162449571Y-79772857D01*
X162417666Y-79915714D01*
X162417666Y-80022857D01*
X162449571Y-80165714D01*
X162481476Y-80237142D01*
X162545285Y-80308571D01*
X162641000Y-80344285D01*
X162704809Y-80344285D01*
X162800523Y-80308571D01*
X162832428Y-80272857D01*
X162832428Y-80022857D01*
X162704809Y-80022857D01*
X163119571Y-80344285D02*
X163119571Y-79594285D01*
X163502428Y-80344285D01*
X163502428Y-79594285D01*
X163821476Y-80344285D02*
X163821476Y-79594285D01*
X163981000Y-79594285D01*
X164076714Y-79630000D01*
X164140523Y-79701428D01*
X164172428Y-79772857D01*
X164204333Y-79915714D01*
X164204333Y-80022857D01*
X164172428Y-80165714D01*
X164140523Y-80237142D01*
X164076714Y-80308571D01*
X163981000Y-80344285D01*
X163821476Y-80344285D01*
D10*
D11*
X162750523Y-82180000D02*
X162686714Y-82144285D01*
X162591000Y-82144285D01*
X162495285Y-82180000D01*
X162431476Y-82251428D01*
X162399571Y-82322857D01*
X162367666Y-82465714D01*
X162367666Y-82572857D01*
X162399571Y-82715714D01*
X162431476Y-82787142D01*
X162495285Y-82858571D01*
X162591000Y-82894285D01*
X162654809Y-82894285D01*
X162750523Y-82858571D01*
X162782428Y-82822857D01*
X162782428Y-82572857D01*
X162654809Y-82572857D01*
X163069571Y-82894285D02*
X163069571Y-82144285D01*
X163452428Y-82894285D01*
X163452428Y-82144285D01*
X163771476Y-82894285D02*
X163771476Y-82144285D01*
X163931000Y-82144285D01*
X164026714Y-82180000D01*
X164090523Y-82251428D01*
X164122428Y-82322857D01*
X164154333Y-82465714D01*
X164154333Y-82572857D01*
X164122428Y-82715714D01*
X164090523Y-82787142D01*
X164026714Y-82858571D01*
X163931000Y-82894285D01*
X163771476Y-82894285D01*
D10*
X261166376Y-50592922D02*
X261274700Y-50624875D01*
X261453163Y-50618643D01*
X261523301Y-50580457D01*
X261557747Y-50543519D01*
X261590947Y-50470887D01*
X261588454Y-50399502D01*
X261550269Y-50329363D01*
X261513330Y-50294917D01*
X261440698Y-50261718D01*
X261296682Y-50231011D01*
X261224050Y-50197811D01*
X261187111Y-50163365D01*
X261148926Y-50093226D01*
X261146433Y-50021841D01*
X261179633Y-49949210D01*
X261214079Y-49912271D01*
X261284218Y-49874085D01*
X261462680Y-49867853D01*
X261571004Y-49899807D01*
X261819606Y-49855389D02*
X262024243Y-50598700D01*
X262148317Y-50058327D01*
X262309783Y-50588729D01*
X262462071Y-49832954D01*
X263166404Y-50558815D02*
X262738094Y-50573772D01*
X262952249Y-50566294D02*
X262926074Y-49816750D01*
X262858428Y-49926321D01*
X262789536Y-50000199D01*
X262719397Y-50038384D01*
X263604232Y-49793069D02*
X263675617Y-49790576D01*
X263748249Y-49823776D01*
X263785188Y-49858222D01*
X263823373Y-49928360D01*
X263864051Y-50069884D01*
X263870283Y-50248347D01*
X263839576Y-50392363D01*
X263806377Y-50464995D01*
X263771931Y-50501934D01*
X263701792Y-50540119D01*
X263630407Y-50542612D01*
X263557775Y-50509412D01*
X263520836Y-50474966D01*
X263482651Y-50404827D01*
X263441973Y-50263304D01*
X263435741Y-50084841D01*
X263466448Y-49940824D01*
X263499647Y-49868193D01*
X263534094Y-49831254D01*
X263604232Y-49793069D01*
X156647619Y-112402380D02*
X156314285Y-111926190D01*
X156076190Y-112402380D02*
X156076190Y-111402380D01*
X156457142Y-111402380D01*
X156552380Y-111450000D01*
X156600000Y-111497619D01*
X156647619Y-111592857D01*
X156647619Y-111735714D01*
X156600000Y-111830952D01*
X156552380Y-111878571D01*
X156457142Y-111926190D01*
X156076190Y-111926190D01*
X157076190Y-111878571D02*
X157409523Y-111878571D01*
X157552380Y-112402380D02*
X157076190Y-112402380D01*
X157076190Y-111402380D01*
X157552380Y-111402380D01*
X157933333Y-112354761D02*
X158076190Y-112402380D01*
X158314285Y-112402380D01*
X158409523Y-112354761D01*
X158457142Y-112307142D01*
X158504761Y-112211904D01*
X158504761Y-112116666D01*
X158457142Y-112021428D01*
X158409523Y-111973809D01*
X158314285Y-111926190D01*
X158123809Y-111878571D01*
X158028571Y-111830952D01*
X157980952Y-111783333D01*
X157933333Y-111688095D01*
X157933333Y-111592857D01*
X157980952Y-111497619D01*
X158028571Y-111450000D01*
X158123809Y-111402380D01*
X158361904Y-111402380D01*
X158504761Y-111450000D01*
X158933333Y-111878571D02*
X159266666Y-111878571D01*
X159409523Y-112402380D02*
X158933333Y-112402380D01*
X158933333Y-111402380D01*
X159409523Y-111402380D01*
X159695238Y-111402380D02*
X160266666Y-111402380D01*
X159980952Y-112402380D02*
X159980952Y-111402380D01*
X202860501Y-62225423D02*
X202973236Y-62232190D01*
X203145723Y-62185972D01*
X203205474Y-62132988D01*
X203230728Y-62089247D01*
X203246738Y-62011009D01*
X203228251Y-61942014D01*
X203175267Y-61882263D01*
X203131526Y-61857009D01*
X203053288Y-61840999D01*
X202906055Y-61843475D01*
X202827817Y-61827465D01*
X202784076Y-61802211D01*
X202731091Y-61742460D01*
X202712604Y-61673465D01*
X202728614Y-61595227D01*
X202753868Y-61551486D01*
X202813619Y-61498502D01*
X202986106Y-61452284D01*
X203098842Y-61459051D01*
X203331080Y-61359849D02*
X203697681Y-62038075D01*
X203697017Y-61483641D01*
X203973660Y-61964127D01*
X203952032Y-61193465D01*
X204159016Y-61138004D02*
X204641979Y-61008594D01*
X204525617Y-61816231D01*
X107300070Y-123262265D02*
X107220819Y-123181802D01*
X107061711Y-123100732D01*
X106981854Y-123100126D01*
X106933818Y-123115734D01*
X106869568Y-123163163D01*
X106837141Y-123226806D01*
X106836534Y-123306664D01*
X106852142Y-123354699D01*
X106899571Y-123418949D01*
X107010644Y-123515626D01*
X107058073Y-123579876D01*
X107073681Y-123627911D01*
X107073075Y-123707769D01*
X107040647Y-123771412D01*
X106976397Y-123818841D01*
X106928362Y-123834449D01*
X106848505Y-123833843D01*
X106689396Y-123752773D01*
X106610145Y-123672310D01*
X106371180Y-123590634D02*
X106552564Y-122841309D01*
X106182068Y-123253778D01*
X106297991Y-122711597D01*
X105798390Y-123298783D01*
X105607460Y-123201499D02*
X105193778Y-122990718D01*
X105546241Y-122849642D01*
X105450776Y-122801000D01*
X105403347Y-122736751D01*
X105387739Y-122688715D01*
X105388346Y-122608858D01*
X105469415Y-122449749D01*
X105533665Y-122402320D01*
X105581700Y-122386712D01*
X105661558Y-122387318D01*
X105852488Y-122484602D01*
X105899917Y-122548852D01*
X105915525Y-122596887D01*
X104971633Y-122797363D02*
X104923597Y-122812970D01*
X104843740Y-122812364D01*
X104684632Y-122731294D01*
X104637202Y-122667045D01*
X104621595Y-122619009D01*
X104622201Y-122539152D01*
X104654629Y-122475509D01*
X104735092Y-122396258D01*
X105311519Y-122208965D01*
X104897838Y-121998184D01*
X206528727Y-80986858D02*
X206641463Y-80993625D01*
X206813950Y-80947407D01*
X206873701Y-80894423D01*
X206898955Y-80850682D01*
X206914965Y-80772444D01*
X206896478Y-80703449D01*
X206843493Y-80643698D01*
X206799752Y-80618444D01*
X206721514Y-80602434D01*
X206574281Y-80604911D01*
X206496043Y-80588900D01*
X206452302Y-80563647D01*
X206399318Y-80503895D01*
X206380831Y-80434901D01*
X206396841Y-80356663D01*
X206422095Y-80312922D01*
X206481846Y-80259937D01*
X206654333Y-80213720D01*
X206767068Y-80220486D01*
X206999306Y-80121284D02*
X207365907Y-80799511D01*
X207365244Y-80245076D01*
X207641886Y-80725563D01*
X207620258Y-79954901D01*
X208469822Y-80503718D02*
X208055854Y-80614640D01*
X208262838Y-80559179D02*
X208068724Y-79834735D01*
X208027460Y-79956714D01*
X207976952Y-80044195D01*
X207917201Y-80097180D01*
X208517190Y-79714569D02*
X209000153Y-79585159D01*
X208883791Y-80392795D01*
X124248270Y-131903365D02*
X124169019Y-131822902D01*
X124009911Y-131741832D01*
X123930054Y-131741226D01*
X123882018Y-131756834D01*
X123817768Y-131804263D01*
X123785341Y-131867906D01*
X123784734Y-131947764D01*
X123800342Y-131995799D01*
X123847771Y-132060049D01*
X123958844Y-132156726D01*
X124006273Y-132220976D01*
X124021881Y-132269011D01*
X124021275Y-132348869D01*
X123988847Y-132412512D01*
X123924597Y-132459941D01*
X123876562Y-132475549D01*
X123796705Y-132474943D01*
X123637596Y-132393873D01*
X123558345Y-132313410D01*
X123319380Y-132231734D02*
X123500764Y-131482409D01*
X123130268Y-131894878D01*
X123246191Y-131352697D01*
X122746590Y-131939883D01*
X122555660Y-131842599D02*
X122141978Y-131631818D01*
X122494441Y-131490742D01*
X122398976Y-131442100D01*
X122351547Y-131377851D01*
X122335939Y-131329815D01*
X122336546Y-131249958D01*
X122417615Y-131090849D01*
X122481865Y-131043420D01*
X122529900Y-131027812D01*
X122609758Y-131028418D01*
X122800688Y-131125702D01*
X122848117Y-131189952D01*
X122863725Y-131237987D01*
X121919227Y-131518320D02*
X121505545Y-131307539D01*
X121858008Y-131166463D01*
X121762543Y-131117821D01*
X121715114Y-131053572D01*
X121699506Y-131005536D01*
X121700112Y-130925679D01*
X121781182Y-130766570D01*
X121845432Y-130719141D01*
X121893467Y-130703533D01*
X121973324Y-130704140D01*
X122164254Y-130801423D01*
X122211684Y-130865673D01*
X122227292Y-130913708D01*
X229686565Y-88400346D02*
X229798791Y-88413004D01*
X229973461Y-88375877D01*
X230035903Y-88326092D01*
X230063411Y-88283733D01*
X230083494Y-88206439D01*
X230068644Y-88136572D01*
X230018859Y-88074130D01*
X229976500Y-88046621D01*
X229899207Y-88026538D01*
X229752046Y-88021306D01*
X229674753Y-88001223D01*
X229632393Y-87973714D01*
X229582609Y-87911272D01*
X229567758Y-87841405D01*
X229587841Y-87764111D01*
X229615349Y-87721752D01*
X229677792Y-87671968D01*
X229852461Y-87634840D01*
X229964688Y-87647498D01*
X230201799Y-87560586D02*
X230532402Y-88257070D01*
X230560756Y-87703361D01*
X230811873Y-88197667D01*
X230830608Y-87426929D01*
X231089996Y-87444818D02*
X231117505Y-87402459D01*
X231179947Y-87352675D01*
X231354616Y-87315547D01*
X231431909Y-87335630D01*
X231474268Y-87363139D01*
X231524053Y-87425581D01*
X231538904Y-87495449D01*
X231526246Y-87607676D01*
X231196145Y-88115987D01*
X231650285Y-88019456D01*
X231980386Y-87511145D02*
X231903093Y-87491062D01*
X231860734Y-87463554D01*
X231810949Y-87401112D01*
X231803524Y-87366178D01*
X231823607Y-87288885D01*
X231851115Y-87246525D01*
X231913557Y-87196741D01*
X232053293Y-87167039D01*
X232130586Y-87187122D01*
X232172945Y-87214631D01*
X232222730Y-87277073D01*
X232230155Y-87312007D01*
X232210072Y-87389300D01*
X232182564Y-87431659D01*
X232120122Y-87481444D01*
X231980386Y-87511145D01*
X231917944Y-87560930D01*
X231890436Y-87603289D01*
X231870353Y-87680582D01*
X231900054Y-87820318D01*
X231949839Y-87882760D01*
X231992198Y-87910268D01*
X232069491Y-87930351D01*
X232209227Y-87900650D01*
X232271669Y-87850865D01*
X232299177Y-87808506D01*
X232319260Y-87731213D01*
X232289559Y-87591477D01*
X232239774Y-87529035D01*
X232197415Y-87501527D01*
X232120122Y-87481444D01*
X188621727Y-87743258D02*
X188734463Y-87750025D01*
X188906950Y-87703807D01*
X188966701Y-87650823D01*
X188991955Y-87607082D01*
X189007965Y-87528844D01*
X188989478Y-87459849D01*
X188936493Y-87400098D01*
X188892752Y-87374844D01*
X188814514Y-87358834D01*
X188667281Y-87361311D01*
X188589043Y-87345300D01*
X188545302Y-87320047D01*
X188492318Y-87260295D01*
X188473831Y-87191301D01*
X188489841Y-87113063D01*
X188515095Y-87069322D01*
X188574846Y-87016337D01*
X188747333Y-86970120D01*
X188860068Y-86976886D01*
X189092306Y-86877684D02*
X189458907Y-87555911D01*
X189458244Y-87001476D01*
X189734886Y-87481963D01*
X189713258Y-86711301D01*
X190562822Y-87260118D02*
X190148854Y-87371040D01*
X190355838Y-87315579D02*
X190161724Y-86591135D01*
X190120460Y-86713114D01*
X190069952Y-86800595D01*
X190010201Y-86853580D01*
X190989660Y-86369290D02*
X190851671Y-86406264D01*
X190791920Y-86459248D01*
X190766666Y-86502989D01*
X190725402Y-86624968D01*
X190727879Y-86772201D01*
X190801827Y-87048180D01*
X190854812Y-87107931D01*
X190898552Y-87133185D01*
X190976791Y-87149195D01*
X191114780Y-87112221D01*
X191174531Y-87059237D01*
X191199785Y-87015496D01*
X191215795Y-86937258D01*
X191169578Y-86764771D01*
X191116593Y-86705020D01*
X191072852Y-86679766D01*
X190994614Y-86663756D01*
X190856625Y-86700730D01*
X190796873Y-86753714D01*
X190771620Y-86797455D01*
X190755609Y-86875693D01*
X109325012Y-80375003D02*
X109230763Y-80312775D01*
X109058277Y-80266558D01*
X108980038Y-80282568D01*
X108936298Y-80307822D01*
X108883313Y-80367573D01*
X108864826Y-80436568D01*
X108880836Y-80514806D01*
X108906090Y-80558547D01*
X108965841Y-80611531D01*
X109094587Y-80683003D01*
X109154338Y-80735987D01*
X109179592Y-80779728D01*
X109195602Y-80857966D01*
X109177115Y-80926961D01*
X109124131Y-80986712D01*
X109080390Y-81011966D01*
X109002152Y-81027976D01*
X108829665Y-80981759D01*
X108735416Y-80919531D01*
X108484691Y-80889323D02*
X108506319Y-80118661D01*
X108229677Y-80599147D01*
X108230340Y-80044713D01*
X107863739Y-80722940D01*
X107402404Y-79822868D02*
X107816372Y-79933790D01*
X107609388Y-79878329D02*
X107415274Y-80602774D01*
X107511999Y-80517769D01*
X107599481Y-80467261D01*
X107677719Y-80451251D01*
X106652042Y-80139447D02*
X106781451Y-79656484D01*
X106750580Y-80461644D02*
X107061720Y-79990401D01*
X106613255Y-79870235D01*
X148961000Y-104155000D02*
X149961000Y-104155000D01*
X166761000Y-103155000D02*
X166761000Y-104155000D01*
X166761000Y-104155000D02*
X165751000Y-104155000D01*
X148961000Y-103105000D02*
X148961000Y-104155000D01*
X160950000Y-110350000D02*
X155250000Y-110350000D01*
X160950000Y-113550000D02*
X160950000Y-113300000D01*
X155250000Y-113550000D02*
X155250000Y-113300000D01*
X155250000Y-110350000D02*
X155250000Y-110600000D01*
X160950000Y-110350000D02*
X160950000Y-110600000D01*
X160950000Y-113550000D02*
X155250000Y-113550000D01*
D12*
X165472400Y-74927000D03*
X165472400Y-77467000D03*
X165472400Y-80007000D03*
X165472400Y-82547000D03*
X165472400Y-85087000D03*
X165472400Y-87627000D03*
X165472400Y-90167000D03*
X165472400Y-92707000D03*
X165472400Y-95247000D03*
X165472400Y-97787000D03*
X165472400Y-100327000D03*
X165472400Y-102867000D03*
X150252400Y-102867000D03*
X150252400Y-100327000D03*
X150252400Y-97787000D03*
X150252400Y-95247000D03*
X150252400Y-92707000D03*
X150252400Y-90167000D03*
X150252400Y-87627000D03*
X150252400Y-85087000D03*
X150252400Y-82547000D03*
X150252400Y-80007000D03*
X150252400Y-77467000D03*
X150252400Y-74927000D03*
%LPC*%
D13*
X130962400Y-65659000D03*
D14*
X125649808Y-64235495D03*
X136274992Y-67082505D03*
D15*
X129435368Y-71357962D03*
X125149258Y-68035423D03*
D14*
X107412608Y-57377495D03*
X118037792Y-60224505D03*
D13*
X112725200Y-58801000D03*
D15*
X111198168Y-64499962D03*
X106912058Y-61177423D03*
D14*
X71597612Y-84480914D03*
D13*
X66217800Y-83337400D03*
D14*
X60837988Y-82193886D03*
D15*
X64991121Y-89108471D03*
X60536998Y-86014802D03*
D14*
X254807812Y-82168486D03*
D13*
X249428000Y-83312000D03*
D14*
X244048188Y-84455514D03*
D15*
X250654679Y-89083071D03*
X245327326Y-88068519D03*
D14*
X198758992Y-101344895D03*
D13*
X193446400Y-102768400D03*
D14*
X188133808Y-104191905D03*
D15*
X194973432Y-108467362D03*
X189600283Y-107733013D03*
D14*
X131906192Y-85624505D03*
X121281008Y-82777495D03*
D13*
X126593600Y-84201000D03*
D15*
X125066568Y-89899962D03*
X120780458Y-86577423D03*
D14*
X196289536Y-126408052D03*
D13*
X191389000Y-128905000D03*
D14*
X186488464Y-131401948D03*
D15*
X194067544Y-134161938D03*
X188659131Y-134560777D03*
D14*
X116912208Y-101319495D03*
D13*
X122224800Y-102743000D03*
D14*
X127537392Y-104166505D03*
D15*
X120697768Y-108441962D03*
X116411658Y-105119423D03*
D16*
X135370000Y-110890000D03*
D14*
X230249336Y-109085252D03*
X220448264Y-114079148D03*
D13*
X225348800Y-111582200D03*
D15*
X228027344Y-116839138D03*
X222618931Y-117237977D03*
D14*
X54213850Y-67679747D03*
D13*
X48717200Y-67487800D03*
D14*
X43220550Y-67295853D03*
D15*
X48511293Y-73384206D03*
X43587628Y-71110988D03*
D14*
X75560012Y-65837314D03*
D13*
X70180200Y-64693800D03*
D14*
X64800388Y-63550286D03*
D15*
X68953521Y-70464871D03*
X64499398Y-67371202D03*
D14*
X94711612Y-67386714D03*
D13*
X89331800Y-66243200D03*
D14*
X83951988Y-65099686D03*
D15*
X88105121Y-72014271D03*
X83650998Y-68920602D03*
D13*
X184708800Y-65659000D03*
D14*
X179396208Y-67082505D03*
X190021392Y-64235495D03*
D15*
X186235832Y-71357962D03*
X180862683Y-70623613D03*
D13*
X266928600Y-67462400D03*
D14*
X272425250Y-67270453D03*
X261431950Y-67654347D03*
D15*
X267134507Y-73358806D03*
X262064264Y-71434583D03*
D14*
X203455664Y-122740548D03*
X213256736Y-117746652D03*
D13*
X208356200Y-120243600D03*
D15*
X211034744Y-125500538D03*
X205626331Y-125899377D03*
D14*
X216695692Y-94539395D03*
X206070508Y-97386405D03*
D13*
X211383100Y-95962900D03*
D15*
X212910132Y-101661862D03*
X207536983Y-100927513D03*
D14*
X79964188Y-83743286D03*
X90723812Y-86030314D03*
D13*
X85344000Y-84886800D03*
D15*
X84117321Y-90657871D03*
X79663198Y-87564202D03*
D14*
X47767150Y-47052053D03*
D13*
X53263800Y-47244000D03*
D14*
X58760450Y-47435947D03*
D15*
X53057893Y-53140406D03*
X48134228Y-50867188D03*
D14*
X217022588Y-48768514D03*
X227782212Y-46481486D03*
D13*
X222402400Y-47625000D03*
D15*
X223629079Y-53396071D03*
X218301726Y-52381519D03*
D14*
X109655792Y-97410105D03*
D13*
X104343200Y-95986600D03*
D14*
X99030608Y-94563095D03*
D15*
X102816168Y-101685562D03*
X98530058Y-98363023D03*
D16*
X141970000Y-86200000D03*
D13*
X73761600Y-45643800D03*
D14*
X79220604Y-46314081D03*
X68302596Y-44973519D03*
D15*
X73042571Y-51499822D03*
X68335766Y-48806129D03*
D14*
X98674012Y-48743114D03*
D13*
X93294200Y-47599600D03*
D14*
X87914388Y-46456086D03*
D15*
X92067521Y-53370671D03*
X87613398Y-50277002D03*
D14*
X247368604Y-44948119D03*
X236450596Y-46288681D03*
D13*
X241909600Y-45618400D03*
D15*
X242628629Y-51474422D03*
X237409973Y-49999422D03*
D13*
X245491000Y-64668400D03*
D14*
X250870812Y-63524886D03*
X240111188Y-65811914D03*
D15*
X246717679Y-70439471D03*
X241390326Y-69424919D03*
D14*
X276311450Y-86244253D03*
X265318150Y-86628147D03*
D13*
X270814800Y-86436200D03*
D15*
X271020707Y-92332606D03*
X265950464Y-90408383D03*
D13*
X226339400Y-66243200D03*
D14*
X231719212Y-65099686D03*
X220959588Y-67386714D03*
D15*
X227566079Y-72014271D03*
X222238726Y-70999719D03*
D13*
X90322400Y-111607600D03*
D14*
X85421864Y-109110652D03*
X95222936Y-114104548D03*
D15*
X87643856Y-116864538D03*
X84142203Y-112723472D03*
D16*
X173690000Y-86200000D03*
D13*
X44881800Y-86436200D03*
D14*
X39385150Y-86244253D03*
X50378450Y-86628147D03*
D15*
X44675893Y-92332606D03*
X39752228Y-90059388D03*
D14*
X267904050Y-47052053D03*
X256910750Y-47435947D03*
D13*
X262407400Y-47244000D03*
D15*
X262613307Y-53140406D03*
X257543064Y-51216183D03*
D14*
X197658808Y-60199105D03*
D13*
X202971400Y-58775600D03*
D14*
X208283992Y-57352095D03*
D15*
X204498432Y-64474562D03*
X199125283Y-63740213D03*
D14*
X112215536Y-122740548D03*
D13*
X107315000Y-120243600D03*
D14*
X102414464Y-117746652D03*
D15*
X104636456Y-125500538D03*
X101134803Y-121359472D03*
D13*
X206984600Y-77444600D03*
D14*
X201672008Y-78868105D03*
X212297192Y-76021095D03*
D15*
X208511632Y-83143562D03*
X203138483Y-82409213D03*
D14*
X119362664Y-126387752D03*
X129163736Y-131381648D03*
D13*
X124263200Y-128884700D03*
D15*
X121584656Y-134141638D03*
X118083003Y-130000572D03*
D13*
X230327200Y-84886800D03*
D14*
X224947388Y-86030314D03*
X235707012Y-83743286D03*
D15*
X231553879Y-90657871D03*
X226226526Y-89643319D03*
D13*
X189077600Y-84201000D03*
D14*
X183765008Y-85624505D03*
X194390192Y-82777495D03*
D15*
X190604632Y-89899962D03*
X185231483Y-89165613D03*
D16*
X180280000Y-110850000D03*
D14*
X114024592Y-78842705D03*
X103399408Y-75995695D03*
D13*
X108712000Y-77419200D03*
D15*
X107184968Y-83118162D03*
X102898858Y-79795623D03*
M02*
