M48
; DRILL file {KiCad (6.0.6)} date 2022年07月31日 21時57分04秒
; FORMAT={-:-/ absolute / metric / decimal}
; #@! TF.CreationDate,2022-07-31T21:57:04+09:00
; #@! TF.GenerationSoftware,Kicad,Pcbnew,(6.0.6)
; #@! TF.FileFunction,NonPlated,1,2,NPTH
FMAT,2
METRIC
; #@! TA.AperFunction,NonPlated,NPTH,ComponentDrill
T1C1.700
; #@! TA.AperFunction,NonPlated,NPTH,ComponentDrill
T2C2.200
; #@! TA.AperFunction,NonPlated,NPTH,ComponentDrill
T3C3.400
%
G90
G05
T1
X39.385Y-86.244
X43.221Y-67.296
X47.767Y-47.052
X50.378Y-86.628
X54.214Y-67.68
X58.76Y-47.436
X60.838Y-82.194
X64.8Y-63.55
X68.303Y-44.974
X71.598Y-84.481
X75.56Y-65.837
X79.221Y-46.314
X79.964Y-83.743
X83.952Y-65.1
X85.422Y-109.111
X87.914Y-46.456
X90.724Y-86.03
X94.712Y-67.387
X95.223Y-114.105
X98.674Y-48.743
X99.031Y-94.563
X102.414Y-117.747
X103.399Y-75.996
X107.413Y-57.377
X109.656Y-97.41
X112.216Y-122.741
X114.025Y-78.843
X116.912Y-101.319
X118.038Y-60.225
X119.363Y-126.388
X121.281Y-82.777
X125.65Y-64.235
X127.537Y-104.167
X129.164Y-131.382
X131.906Y-85.625
X136.275Y-67.083
X179.396Y-67.083
X183.765Y-85.625
X186.488Y-131.402
X188.134Y-104.192
X190.021Y-64.235
X194.39Y-82.777
X196.29Y-126.408
X197.659Y-60.199
X198.759Y-101.345
X201.672Y-78.868
X203.456Y-122.741
X206.071Y-97.386
X208.284Y-57.352
X212.297Y-76.021
X213.257Y-117.747
X216.696Y-94.539
X217.023Y-48.769
X220.448Y-114.079
X220.96Y-67.387
X224.947Y-86.03
X227.782Y-46.481
X230.249Y-109.085
X231.719Y-65.1
X235.707Y-83.743
X236.451Y-46.289
X240.111Y-65.812
X244.048Y-84.456
X247.369Y-44.948
X250.871Y-63.525
X254.808Y-82.168
X256.911Y-47.436
X261.432Y-67.654
X265.318Y-86.628
X267.904Y-47.052
X272.425Y-67.27
X276.311Y-86.244
T2
X135.37Y-110.89
X141.97Y-86.2
X173.69Y-86.2
X180.28Y-110.85
T3
X44.882Y-86.436
X48.717Y-67.488
X53.264Y-47.244
X66.218Y-83.337
X70.18Y-64.694
X73.762Y-45.644
X85.344Y-84.887
X89.332Y-66.243
X90.322Y-111.608
X93.294Y-47.6
X104.343Y-95.987
X107.315Y-120.244
X108.712Y-77.419
X112.725Y-58.801
X122.225Y-102.743
X124.263Y-128.885
X126.594Y-84.201
X130.962Y-65.659
X184.709Y-65.659
X189.078Y-84.201
X191.389Y-128.905
X193.446Y-102.768
X202.971Y-58.776
X206.985Y-77.445
X208.356Y-120.244
X211.383Y-95.963
X222.402Y-47.625
X225.349Y-111.582
X226.339Y-66.243
X230.327Y-84.887
X241.91Y-45.618
X245.491Y-64.668
X249.428Y-83.312
X262.407Y-47.244
X266.929Y-67.462
X270.815Y-86.436
T0
M30
