G04 #@! TF.GenerationSoftware,KiCad,Pcbnew,(6.0.6)*
G04 #@! TF.CreationDate,2022-07-31T21:57:04+09:00*
G04 #@! TF.ProjectId,nowt36lp,6e6f7774-3336-46c7-902e-6b696361645f,rev?*
G04 #@! TF.SameCoordinates,Original*
G04 #@! TF.FileFunction,Legend,Bot*
G04 #@! TF.FilePolarity,Positive*
%FSLAX46Y46*%
G04 Gerber Fmt 4.6, Leading zero omitted, Abs format (unit mm)*
G04 Created by KiCad (PCBNEW (6.0.6)) date 2022-07-31 21:57:04*
%MOMM*%
%LPD*%
G01*
G04 APERTURE LIST*
G04 Aperture macros list*
%AMRotRect*
0 Rectangle, with rotation*
0 The origin of the aperture is its center*
0 $1 length*
0 $2 width*
0 $3 Rotation angle, in degrees counterclockwise*
0 Add horizontal line*
21,1,$1,$2,0,0,$3*%
G04 Aperture macros list end*
%ADD10C,0.300000*%
%ADD11C,0.125000*%
%ADD12C,0.150000*%
%ADD13C,3.400000*%
%ADD14C,1.700000*%
%ADD15C,2.000000*%
%ADD16RotRect,1.300000X0.950000X255.000000*%
%ADD17RotRect,1.300000X0.950000X272.000000*%
%ADD18RotRect,1.300000X0.950000X258.000000*%
%ADD19RotRect,1.300000X0.950000X243.000000*%
%ADD20RotRect,1.300000X0.950000X277.000000*%
%ADD21C,2.200000*%
%ADD22RotRect,1.300000X0.950000X268.000000*%
%ADD23RotRect,1.300000X0.950000X297.000000*%
%ADD24RotRect,1.300000X0.950000X285.000000*%
%ADD25RotRect,1.300000X0.950000X282.000000*%
%ADD26C,1.524000*%
%ADD27RotRect,1.300000X0.950000X263.000000*%
%ADD28O,4.350000X2.570000*%
G04 APERTURE END LIST*
D10*
X164662571Y-107763571D02*
X164662571Y-108835000D01*
X164734000Y-109049285D01*
X164876857Y-109192142D01*
X165091142Y-109263571D01*
X165234000Y-109263571D01*
X163234000Y-109263571D02*
X163948285Y-109263571D01*
X163948285Y-107763571D01*
X161876857Y-109120714D02*
X161948285Y-109192142D01*
X162162571Y-109263571D01*
X162305428Y-109263571D01*
X162519714Y-109192142D01*
X162662571Y-109049285D01*
X162734000Y-108906428D01*
X162805428Y-108620714D01*
X162805428Y-108406428D01*
X162734000Y-108120714D01*
X162662571Y-107977857D01*
X162519714Y-107835000D01*
X162305428Y-107763571D01*
X162162571Y-107763571D01*
X161948285Y-107835000D01*
X161876857Y-107906428D01*
X160805428Y-107763571D02*
X160805428Y-108835000D01*
X160876857Y-109049285D01*
X161019714Y-109192142D01*
X161234000Y-109263571D01*
X161376857Y-109263571D01*
X159376857Y-109263571D02*
X160091142Y-109263571D01*
X160091142Y-107763571D01*
X158019714Y-109120714D02*
X158091142Y-109192142D01*
X158305428Y-109263571D01*
X158448285Y-109263571D01*
X158662571Y-109192142D01*
X158805428Y-109049285D01*
X158876857Y-108906428D01*
X158948285Y-108620714D01*
X158948285Y-108406428D01*
X158876857Y-108120714D01*
X158805428Y-107977857D01*
X158662571Y-107835000D01*
X158448285Y-107763571D01*
X158305428Y-107763571D01*
X158091142Y-107835000D01*
X158019714Y-107906428D01*
X156948285Y-107763571D02*
X156948285Y-108835000D01*
X157019714Y-109049285D01*
X157162571Y-109192142D01*
X157376857Y-109263571D01*
X157519714Y-109263571D01*
X155519714Y-109263571D02*
X156234000Y-109263571D01*
X156234000Y-107763571D01*
X154162571Y-109120714D02*
X154234000Y-109192142D01*
X154448285Y-109263571D01*
X154591142Y-109263571D01*
X154805428Y-109192142D01*
X154948285Y-109049285D01*
X155019714Y-108906428D01*
X155091142Y-108620714D01*
X155091142Y-108406428D01*
X155019714Y-108120714D01*
X154948285Y-107977857D01*
X154805428Y-107835000D01*
X154591142Y-107763571D01*
X154448285Y-107763571D01*
X154234000Y-107835000D01*
X154162571Y-107906428D01*
X153091142Y-107763571D02*
X153091142Y-108835000D01*
X153162571Y-109049285D01*
X153305428Y-109192142D01*
X153519714Y-109263571D01*
X153662571Y-109263571D01*
X151662571Y-109263571D02*
X152376857Y-109263571D01*
X152376857Y-107763571D01*
X150305428Y-109120714D02*
X150376857Y-109192142D01*
X150591142Y-109263571D01*
X150734000Y-109263571D01*
X150948285Y-109192142D01*
X151091142Y-109049285D01*
X151162571Y-108906428D01*
X151234000Y-108620714D01*
X151234000Y-108406428D01*
X151162571Y-108120714D01*
X151091142Y-107977857D01*
X150948285Y-107835000D01*
X150734000Y-107763571D01*
X150591142Y-107763571D01*
X150376857Y-107835000D01*
X150305428Y-107906428D01*
X166738000Y-114867571D02*
X166738000Y-115867571D01*
X166738000Y-115010428D02*
X166666571Y-114939000D01*
X166523714Y-114867571D01*
X166309428Y-114867571D01*
X166166571Y-114939000D01*
X166095142Y-115081857D01*
X166095142Y-115867571D01*
X165166571Y-115867571D02*
X165309428Y-115796142D01*
X165380857Y-115724714D01*
X165452285Y-115581857D01*
X165452285Y-115153285D01*
X165380857Y-115010428D01*
X165309428Y-114939000D01*
X165166571Y-114867571D01*
X164952285Y-114867571D01*
X164809428Y-114939000D01*
X164738000Y-115010428D01*
X164666571Y-115153285D01*
X164666571Y-115581857D01*
X164738000Y-115724714D01*
X164809428Y-115796142D01*
X164952285Y-115867571D01*
X165166571Y-115867571D01*
X164166571Y-114867571D02*
X163880857Y-115867571D01*
X163595142Y-115153285D01*
X163309428Y-115867571D01*
X163023714Y-114867571D01*
X162666571Y-114867571D02*
X162095142Y-114867571D01*
X162452285Y-114367571D02*
X162452285Y-115653285D01*
X162380857Y-115796142D01*
X162238000Y-115867571D01*
X162095142Y-115867571D01*
X161738000Y-114367571D02*
X160809428Y-114367571D01*
X161309428Y-114939000D01*
X161095142Y-114939000D01*
X160952285Y-115010428D01*
X160880857Y-115081857D01*
X160809428Y-115224714D01*
X160809428Y-115581857D01*
X160880857Y-115724714D01*
X160952285Y-115796142D01*
X161095142Y-115867571D01*
X161523714Y-115867571D01*
X161666571Y-115796142D01*
X161738000Y-115724714D01*
X159523714Y-114367571D02*
X159809428Y-114367571D01*
X159952285Y-114439000D01*
X160023714Y-114510428D01*
X160166571Y-114724714D01*
X160238000Y-115010428D01*
X160238000Y-115581857D01*
X160166571Y-115724714D01*
X160095142Y-115796142D01*
X159952285Y-115867571D01*
X159666571Y-115867571D01*
X159523714Y-115796142D01*
X159452285Y-115724714D01*
X159380857Y-115581857D01*
X159380857Y-115224714D01*
X159452285Y-115081857D01*
X159523714Y-115010428D01*
X159666571Y-114939000D01*
X159952285Y-114939000D01*
X160095142Y-115010428D01*
X160166571Y-115081857D01*
X160238000Y-115224714D01*
X158523714Y-115867571D02*
X158666571Y-115796142D01*
X158738000Y-115653285D01*
X158738000Y-114367571D01*
X157952285Y-114867571D02*
X157952285Y-116367571D01*
X157952285Y-114939000D02*
X157809428Y-114867571D01*
X157523714Y-114867571D01*
X157380857Y-114939000D01*
X157309428Y-115010428D01*
X157238000Y-115153285D01*
X157238000Y-115581857D01*
X157309428Y-115724714D01*
X157380857Y-115796142D01*
X157523714Y-115867571D01*
X157809428Y-115867571D01*
X157952285Y-115796142D01*
X155452285Y-115867571D02*
X155452285Y-114867571D01*
X155452285Y-115153285D02*
X155380857Y-115010428D01*
X155309428Y-114939000D01*
X155166571Y-114867571D01*
X155023714Y-114867571D01*
X153952285Y-115796142D02*
X154095142Y-115867571D01*
X154380857Y-115867571D01*
X154523714Y-115796142D01*
X154595142Y-115653285D01*
X154595142Y-115081857D01*
X154523714Y-114939000D01*
X154380857Y-114867571D01*
X154095142Y-114867571D01*
X153952285Y-114939000D01*
X153880857Y-115081857D01*
X153880857Y-115224714D01*
X154595142Y-115367571D01*
X153380857Y-114867571D02*
X153023714Y-115867571D01*
X152666571Y-114867571D01*
X151809428Y-114367571D02*
X151666571Y-114367571D01*
X151523714Y-114439000D01*
X151452285Y-114510428D01*
X151380857Y-114653285D01*
X151309428Y-114939000D01*
X151309428Y-115296142D01*
X151380857Y-115581857D01*
X151452285Y-115724714D01*
X151523714Y-115796142D01*
X151666571Y-115867571D01*
X151809428Y-115867571D01*
X151952285Y-115796142D01*
X152023714Y-115724714D01*
X152095142Y-115581857D01*
X152166571Y-115296142D01*
X152166571Y-114939000D01*
X152095142Y-114653285D01*
X152023714Y-114510428D01*
X151952285Y-114439000D01*
X151809428Y-114367571D01*
X150666571Y-115724714D02*
X150595142Y-115796142D01*
X150666571Y-115867571D01*
X150738000Y-115796142D01*
X150666571Y-115724714D01*
X150666571Y-115867571D01*
X149166571Y-115867571D02*
X150023714Y-115867571D01*
X149595142Y-115867571D02*
X149595142Y-114367571D01*
X149738000Y-114581857D01*
X149880857Y-114724714D01*
X150023714Y-114796142D01*
D11*
X123740103Y-58700964D02*
X122967362Y-58493909D01*
X122918064Y-58677895D01*
X122925281Y-58798146D01*
X122979156Y-58891460D01*
X123042891Y-58947977D01*
X123180220Y-59024213D01*
X123290611Y-59053792D01*
X123447660Y-59056434D01*
X123531114Y-59039357D01*
X123624428Y-58985482D01*
X123690804Y-58884950D01*
X123740103Y-58700964D01*
X122661710Y-59634621D02*
X122760307Y-59266650D01*
X123138139Y-59328450D01*
X123091482Y-59355388D01*
X123034965Y-59419122D01*
X122985666Y-59603108D01*
X123002744Y-59686562D01*
X123029681Y-59733219D01*
X123093416Y-59789736D01*
X123277402Y-59839035D01*
X123360856Y-59821957D01*
X123407513Y-59795020D01*
X123464029Y-59731285D01*
X123513328Y-59547299D01*
X123496251Y-59463845D01*
X123469313Y-59417188D01*
X253458634Y-42325391D02*
X252659122Y-42353311D01*
X252665769Y-42543671D01*
X252707830Y-42656558D01*
X252786633Y-42730043D01*
X252864106Y-42765456D01*
X253017724Y-42798210D01*
X253131940Y-42794221D01*
X253282899Y-42750831D01*
X253357713Y-42710100D01*
X253431198Y-42631297D01*
X253465282Y-42515752D01*
X253458634Y-42325391D01*
X253501179Y-43543696D02*
X253485225Y-43086832D01*
X253493202Y-43315264D02*
X252693689Y-43343184D01*
X252805246Y-43263051D01*
X252878731Y-43184248D01*
X252914144Y-43106775D01*
X252718949Y-44066552D02*
X252721608Y-44142696D01*
X252762340Y-44217511D01*
X252801741Y-44254254D01*
X252879215Y-44289667D01*
X253032832Y-44322421D01*
X253223192Y-44315773D01*
X253374151Y-44272383D01*
X253448966Y-44231652D01*
X253485708Y-44192250D01*
X253521121Y-44114777D01*
X253518462Y-44038633D01*
X253477731Y-43963818D01*
X253438330Y-43927076D01*
X253360856Y-43891663D01*
X253207238Y-43858909D01*
X253016878Y-43865556D01*
X252865920Y-43908946D01*
X252791105Y-43949677D01*
X252754363Y-43989079D01*
X252718949Y-44066552D01*
X101609297Y-70067510D02*
X100836556Y-69860455D01*
X100787257Y-70044441D01*
X100794475Y-70164692D01*
X100848350Y-70258006D01*
X100912085Y-70314523D01*
X101049414Y-70390759D01*
X101159805Y-70420339D01*
X101316853Y-70422980D01*
X101400308Y-70405903D01*
X101493622Y-70352028D01*
X101559998Y-70251496D01*
X101609297Y-70067510D01*
X101293784Y-71245020D02*
X101412101Y-70803454D01*
X101352943Y-71024237D02*
X100580202Y-70817182D01*
X100710313Y-70773167D01*
X100803627Y-70719292D01*
X100860144Y-70655557D01*
X100601148Y-71769332D02*
X101116308Y-71907369D01*
X100356069Y-71506468D02*
X100957326Y-71470379D01*
X100829149Y-71948742D01*
X85727356Y-41046595D02*
X84944838Y-40880266D01*
X84905235Y-41066579D01*
X84918737Y-41186288D01*
X84977421Y-41276655D01*
X85044027Y-41329758D01*
X85185157Y-41398703D01*
X85296945Y-41422464D01*
X85453917Y-41416883D01*
X85536363Y-41395461D01*
X85626729Y-41336777D01*
X85687753Y-41232909D01*
X85727356Y-41046595D01*
X84794349Y-41588258D02*
X84691383Y-42072674D01*
X85044929Y-41875198D01*
X85021167Y-41986987D01*
X85042589Y-42069432D01*
X85071931Y-42114616D01*
X85138537Y-42167719D01*
X85324850Y-42207322D01*
X85407296Y-42185900D01*
X85452480Y-42156557D01*
X85505583Y-42089952D01*
X85553106Y-41866376D01*
X85531684Y-41783930D01*
X85502342Y-41738747D01*
X101836069Y-111633165D02*
X101123264Y-111269972D01*
X101036790Y-111439688D01*
X101018848Y-111558812D01*
X101052145Y-111661288D01*
X101102736Y-111729821D01*
X101221214Y-111832943D01*
X101323043Y-111884828D01*
X101476110Y-111920064D01*
X101561291Y-111920711D01*
X101663767Y-111887415D01*
X101749595Y-111802880D01*
X101836069Y-111633165D01*
X100794661Y-111914891D02*
X100569828Y-112356152D01*
X100962437Y-112256909D01*
X100910552Y-112358738D01*
X100909906Y-112443919D01*
X100926554Y-112495157D01*
X100977145Y-112563690D01*
X101146861Y-112650165D01*
X101232042Y-112650811D01*
X101283280Y-112634163D01*
X101351813Y-112583572D01*
X101455582Y-112379913D01*
X101456229Y-112294732D01*
X101439580Y-112243494D01*
X100499355Y-112662286D02*
X100448117Y-112678934D01*
X100379584Y-112729526D01*
X100293110Y-112899241D01*
X100292463Y-112984422D01*
X100309112Y-113035660D01*
X100359703Y-113104193D01*
X100427589Y-113138783D01*
X100546713Y-113156725D01*
X101161569Y-112956946D01*
X100936736Y-113398206D01*
X232597681Y-41840437D02*
X231803644Y-41937932D01*
X231826857Y-42126988D01*
X231878596Y-42235780D01*
X231963504Y-42302117D01*
X232043769Y-42330643D01*
X232199657Y-42349884D01*
X232313091Y-42335956D01*
X232459693Y-42279574D01*
X232530673Y-42232477D01*
X232597011Y-42147569D01*
X232620894Y-42029493D01*
X232597681Y-41840437D01*
X232699819Y-42672285D02*
X232718389Y-42823530D01*
X232689863Y-42903795D01*
X232656695Y-42946249D01*
X232552546Y-43035799D01*
X232405944Y-43092181D01*
X232103453Y-43129322D01*
X232023188Y-43100796D01*
X231980734Y-43067628D01*
X231933638Y-42996648D01*
X231915067Y-42845403D01*
X231943593Y-42765138D01*
X231976762Y-42722684D01*
X232047742Y-42675587D01*
X232236798Y-42652374D01*
X232317063Y-42680900D01*
X232359517Y-42714069D01*
X232406614Y-42785048D01*
X232425184Y-42936294D01*
X232396658Y-43016559D01*
X232363490Y-43059013D01*
X232292510Y-43106109D01*
X119440997Y-76705339D02*
X118668256Y-76498284D01*
X118618957Y-76682270D01*
X118626175Y-76802521D01*
X118680050Y-76895835D01*
X118743785Y-76952352D01*
X118881114Y-77028588D01*
X118991505Y-77058168D01*
X119148553Y-77060809D01*
X119232008Y-77043732D01*
X119325322Y-76989857D01*
X119391698Y-76889325D01*
X119440997Y-76705339D01*
X119125484Y-77882849D02*
X119243801Y-77441283D01*
X119184643Y-77662066D02*
X118411902Y-77455011D01*
X118542013Y-77410996D01*
X118635327Y-77357121D01*
X118691844Y-77293386D01*
X118165408Y-78374940D02*
X118264006Y-78006968D01*
X118641837Y-78068769D01*
X118595180Y-78095706D01*
X118538663Y-78159441D01*
X118489364Y-78343427D01*
X118506442Y-78426881D01*
X118533380Y-78473538D01*
X118597114Y-78530055D01*
X118781100Y-78579353D01*
X118864554Y-78562276D01*
X118911211Y-78535338D01*
X118967728Y-78471604D01*
X119017027Y-78287618D01*
X118999949Y-78204164D01*
X118973012Y-78157507D01*
X105510103Y-51770964D02*
X104737362Y-51563909D01*
X104688064Y-51747895D01*
X104695281Y-51868146D01*
X104749156Y-51961460D01*
X104812891Y-52017977D01*
X104950220Y-52094213D01*
X105060611Y-52123792D01*
X105217660Y-52126434D01*
X105301114Y-52109357D01*
X105394428Y-52055482D01*
X105460804Y-51954950D01*
X105510103Y-51770964D01*
X104699150Y-52736843D02*
X105214310Y-52874879D01*
X104454071Y-52473978D02*
X105055327Y-52437889D01*
X104927150Y-52916252D01*
X44593144Y-42073654D02*
X43793631Y-42045735D01*
X43786984Y-42236095D01*
X43821067Y-42351640D01*
X43894553Y-42430444D01*
X43969367Y-42471175D01*
X44120326Y-42514565D01*
X44234542Y-42518553D01*
X44388159Y-42485799D01*
X44465633Y-42450386D01*
X44544436Y-42376901D01*
X44586497Y-42264014D01*
X44593144Y-42073654D01*
X44550600Y-43291959D02*
X44566554Y-42835095D01*
X44558577Y-43063527D02*
X43759064Y-43035608D01*
X43875939Y-42963452D01*
X43954743Y-42889967D01*
X43995474Y-42815152D01*
X215154031Y-110895736D02*
X214441225Y-111258928D01*
X214527700Y-111428644D01*
X214613528Y-111513178D01*
X214716004Y-111546475D01*
X214801185Y-111545828D01*
X214954252Y-111510592D01*
X215056081Y-111458707D01*
X215174559Y-111355585D01*
X215225150Y-111287052D01*
X215258447Y-111184576D01*
X215240505Y-111065452D01*
X215154031Y-110895736D01*
X214769828Y-111903847D02*
X214994661Y-112345108D01*
X215145142Y-111969147D01*
X215197027Y-112070976D01*
X215265560Y-112121568D01*
X215316798Y-112138216D01*
X215401979Y-112137569D01*
X215571694Y-112051095D01*
X215622286Y-111982562D01*
X215638934Y-111931324D01*
X215638287Y-111846143D01*
X215534518Y-111642484D01*
X215465985Y-111591893D01*
X215414747Y-111575245D01*
X215305969Y-112956084D02*
X215236790Y-112820311D01*
X215236143Y-112735130D01*
X215252791Y-112683892D01*
X215320031Y-112564121D01*
X215438508Y-112460999D01*
X215710053Y-112322640D01*
X215795234Y-112321993D01*
X215846472Y-112338641D01*
X215915005Y-112389233D01*
X215984185Y-112525005D01*
X215984831Y-112610186D01*
X215968183Y-112661424D01*
X215917592Y-112729957D01*
X215747876Y-112816431D01*
X215662695Y-112817078D01*
X215611457Y-112800430D01*
X215542924Y-112749838D01*
X215473745Y-112614066D01*
X215473098Y-112528885D01*
X215489746Y-112477647D01*
X215540338Y-112409114D01*
X201505852Y-93180351D02*
X200733112Y-93387406D01*
X200782411Y-93571392D01*
X200848787Y-93671924D01*
X200942101Y-93725798D01*
X201025555Y-93742876D01*
X201182604Y-93740234D01*
X201292995Y-93710655D01*
X201430324Y-93634418D01*
X201494059Y-93577902D01*
X201547933Y-93484588D01*
X201555151Y-93364337D01*
X201505852Y-93180351D01*
X201003902Y-94103630D02*
X200976964Y-94150287D01*
X200959887Y-94233741D01*
X201009185Y-94417727D01*
X201065702Y-94481461D01*
X201112359Y-94508399D01*
X201195813Y-94525476D01*
X201269408Y-94505757D01*
X201369939Y-94439380D01*
X201693188Y-93879497D01*
X201821365Y-94357860D01*
X201117643Y-94822496D02*
X201255680Y-95337656D01*
X201939682Y-94799426D01*
X183585852Y-100000351D02*
X182813112Y-100207406D01*
X182862411Y-100391392D01*
X182928787Y-100491924D01*
X183022101Y-100545798D01*
X183105555Y-100562876D01*
X183262604Y-100560234D01*
X183372995Y-100530655D01*
X183510324Y-100454418D01*
X183574059Y-100397902D01*
X183627933Y-100304588D01*
X183635151Y-100184337D01*
X183585852Y-100000351D01*
X183083902Y-100923630D02*
X183056964Y-100970287D01*
X183039887Y-101053741D01*
X183089185Y-101237727D01*
X183145702Y-101301461D01*
X183192359Y-101328399D01*
X183275813Y-101345476D01*
X183349408Y-101325757D01*
X183449939Y-101259380D01*
X183773188Y-100699497D01*
X183901365Y-101177860D01*
X183306100Y-102047265D02*
X183266661Y-101900076D01*
X183283739Y-101816622D01*
X183310676Y-101769965D01*
X183401348Y-101666791D01*
X183538677Y-101590555D01*
X183833055Y-101511677D01*
X183916509Y-101528754D01*
X183963166Y-101555692D01*
X184019682Y-101619426D01*
X184059122Y-101766615D01*
X184042044Y-101850069D01*
X184015107Y-101896726D01*
X183951372Y-101953243D01*
X183767386Y-102002542D01*
X183683932Y-101985464D01*
X183637275Y-101958527D01*
X183580758Y-101894792D01*
X183541319Y-101747603D01*
X183558397Y-101664149D01*
X183585334Y-101617492D01*
X183649069Y-101560976D01*
X198154031Y-119575736D02*
X197441225Y-119938928D01*
X197527700Y-120108644D01*
X197613528Y-120193178D01*
X197716004Y-120226475D01*
X197801185Y-120225828D01*
X197954252Y-120190592D01*
X198056081Y-120138707D01*
X198174559Y-120035585D01*
X198225150Y-119967052D01*
X198258447Y-119864576D01*
X198240505Y-119745452D01*
X198154031Y-119575736D01*
X197769828Y-120583847D02*
X197994661Y-121025108D01*
X198145142Y-120649147D01*
X198197027Y-120750976D01*
X198265560Y-120801568D01*
X198316798Y-120818216D01*
X198401979Y-120817569D01*
X198571694Y-120731095D01*
X198622286Y-120662562D01*
X198638934Y-120611324D01*
X198638287Y-120526143D01*
X198534518Y-120322484D01*
X198465985Y-120271893D01*
X198414747Y-120255245D01*
X198323264Y-121670027D02*
X198150315Y-121330596D01*
X198472452Y-121123704D01*
X198455803Y-121174942D01*
X198456450Y-121260123D01*
X198542924Y-121429838D01*
X198611457Y-121480430D01*
X198662695Y-121497078D01*
X198747876Y-121496431D01*
X198917592Y-121409957D01*
X198968183Y-121341424D01*
X198984831Y-121290186D01*
X198984185Y-121205005D01*
X198897710Y-121035290D01*
X198829177Y-120984698D01*
X198777939Y-120968050D01*
X84846069Y-102953165D02*
X84133264Y-102589972D01*
X84046790Y-102759688D01*
X84028848Y-102878812D01*
X84062145Y-102981288D01*
X84112736Y-103049821D01*
X84231214Y-103152943D01*
X84333043Y-103204828D01*
X84486110Y-103240064D01*
X84571291Y-103240711D01*
X84673767Y-103207415D01*
X84759595Y-103122880D01*
X84846069Y-102953165D01*
X83804661Y-103234891D02*
X83579828Y-103676152D01*
X83972437Y-103576909D01*
X83920552Y-103678738D01*
X83919906Y-103763919D01*
X83936554Y-103815157D01*
X83987145Y-103883690D01*
X84156861Y-103970165D01*
X84242042Y-103970811D01*
X84293280Y-103954163D01*
X84361813Y-103903572D01*
X84465582Y-103699913D01*
X84466229Y-103614732D01*
X84449580Y-103563494D01*
X83946736Y-104718206D02*
X84154274Y-104310889D01*
X84050505Y-104514547D02*
X83337700Y-104151355D01*
X83474119Y-104135354D01*
X83576595Y-104102057D01*
X83645128Y-104051466D01*
X174954450Y-63238322D02*
X174181710Y-63445378D01*
X174231008Y-63629364D01*
X174297385Y-63729895D01*
X174390699Y-63783770D01*
X174474153Y-63800848D01*
X174631201Y-63798206D01*
X174741593Y-63768627D01*
X174878922Y-63692390D01*
X174942656Y-63635874D01*
X174996531Y-63542560D01*
X175003749Y-63422308D01*
X174954450Y-63238322D01*
X174477503Y-64549293D02*
X174438064Y-64402104D01*
X174455141Y-64318650D01*
X174482079Y-64271993D01*
X174572751Y-64168819D01*
X174710080Y-64092583D01*
X175004457Y-64013705D01*
X175087911Y-64030783D01*
X175134568Y-64057720D01*
X175191085Y-64121455D01*
X175230524Y-64268643D01*
X175213446Y-64352097D01*
X175186509Y-64398754D01*
X175122774Y-64455271D01*
X174938788Y-64504570D01*
X174855334Y-64487492D01*
X174808677Y-64460555D01*
X174752161Y-64396820D01*
X174712721Y-64249632D01*
X174729799Y-64166178D01*
X174756736Y-64119521D01*
X174820471Y-64063004D01*
X258048634Y-62495391D02*
X257249122Y-62523311D01*
X257255769Y-62713671D01*
X257297830Y-62826558D01*
X257376633Y-62900043D01*
X257454106Y-62935456D01*
X257607724Y-62968210D01*
X257721940Y-62964221D01*
X257872899Y-62920831D01*
X257947713Y-62880100D01*
X258021198Y-62801297D01*
X258055282Y-62685752D01*
X258048634Y-62495391D01*
X257351856Y-63282093D02*
X257315113Y-63321494D01*
X257279700Y-63398968D01*
X257286348Y-63589328D01*
X257327079Y-63664142D01*
X257366480Y-63700885D01*
X257443954Y-63736298D01*
X257520098Y-63733639D01*
X257632985Y-63691578D01*
X258073895Y-63218760D01*
X258091179Y-63713696D01*
X257308949Y-64236552D02*
X257311608Y-64312696D01*
X257352340Y-64387511D01*
X257391741Y-64424254D01*
X257469215Y-64459667D01*
X257622832Y-64492421D01*
X257813192Y-64485773D01*
X257964151Y-64442383D01*
X258038966Y-64401652D01*
X258075708Y-64362250D01*
X258111121Y-64284777D01*
X258108462Y-64208633D01*
X258067731Y-64133818D01*
X258028330Y-64097076D01*
X257950856Y-64061663D01*
X257797238Y-64028909D01*
X257606878Y-64035556D01*
X257455920Y-64078946D01*
X257381105Y-64119677D01*
X257344363Y-64159079D01*
X257308949Y-64236552D01*
X197175852Y-74720351D02*
X196403112Y-74927406D01*
X196452411Y-75111392D01*
X196518787Y-75211924D01*
X196612101Y-75265798D01*
X196695555Y-75282876D01*
X196852604Y-75280234D01*
X196962995Y-75250655D01*
X197100324Y-75174418D01*
X197164059Y-75117902D01*
X197217933Y-75024588D01*
X197225151Y-74904337D01*
X197175852Y-74720351D01*
X197491365Y-75897860D02*
X197373048Y-75456294D01*
X197432207Y-75677077D02*
X196659466Y-75884132D01*
X196750138Y-75780959D01*
X196804013Y-75687645D01*
X196821090Y-75604191D01*
X196787643Y-76362496D02*
X196925680Y-76877656D01*
X197609682Y-76339426D01*
X239742617Y-80005631D02*
X238960099Y-80171960D01*
X238999702Y-80358274D01*
X239060726Y-80462142D01*
X239151092Y-80520826D01*
X239233538Y-80542248D01*
X239390510Y-80547829D01*
X239502298Y-80524068D01*
X239643428Y-80455123D01*
X239710034Y-80402020D01*
X239768718Y-80311653D01*
X239782220Y-80191945D01*
X239742617Y-80005631D01*
X239193034Y-80901375D02*
X239163691Y-80946558D01*
X239142270Y-81029004D01*
X239181872Y-81215318D01*
X239234975Y-81281923D01*
X239280159Y-81311265D01*
X239362605Y-81332687D01*
X239437130Y-81316846D01*
X239540998Y-81255822D01*
X239893106Y-80713623D01*
X239996072Y-81198039D01*
X240075276Y-81570667D02*
X240106958Y-81719718D01*
X240085536Y-81802164D01*
X240056194Y-81847347D01*
X239960246Y-81945634D01*
X239819116Y-82014579D01*
X239521014Y-82077942D01*
X239438568Y-82056520D01*
X239393384Y-82027178D01*
X239340281Y-81960573D01*
X239308599Y-81811522D01*
X239330021Y-81729076D01*
X239359363Y-81683893D01*
X239425968Y-81630789D01*
X239612282Y-81591187D01*
X239694728Y-81612609D01*
X239739911Y-81641951D01*
X239793015Y-81708556D01*
X239824697Y-81857607D01*
X239803275Y-81940053D01*
X239773932Y-81985236D01*
X239707327Y-82038340D01*
X97229297Y-88667510D02*
X96456556Y-88460455D01*
X96407257Y-88644441D01*
X96414475Y-88764692D01*
X96468350Y-88858006D01*
X96532085Y-88914523D01*
X96669414Y-88990759D01*
X96779805Y-89020339D01*
X96936853Y-89022980D01*
X97020308Y-89005903D01*
X97113622Y-88952028D01*
X97179998Y-88851496D01*
X97229297Y-88667510D01*
X96332955Y-89216118D02*
X96286298Y-89243056D01*
X96229781Y-89306790D01*
X96180483Y-89490776D01*
X96197560Y-89574230D01*
X96224498Y-89620887D01*
X96288232Y-89677404D01*
X96361827Y-89697123D01*
X96482078Y-89689906D01*
X97041961Y-89366657D01*
X96913784Y-89845020D01*
X96221148Y-90369332D02*
X96736308Y-90507369D01*
X95976069Y-90106468D02*
X96577326Y-90070379D01*
X96449149Y-90548742D01*
X40126439Y-61932934D02*
X39326927Y-61905014D01*
X39320279Y-62095375D01*
X39354363Y-62210920D01*
X39427848Y-62289723D01*
X39502662Y-62330454D01*
X39653621Y-62373844D01*
X39767837Y-62377833D01*
X39921454Y-62345079D01*
X39998928Y-62309666D01*
X40077731Y-62236181D01*
X40119792Y-62123294D01*
X40126439Y-61932934D01*
X40083895Y-63151239D02*
X40099849Y-62694375D01*
X40091872Y-62922807D02*
X39292359Y-62894887D01*
X39409234Y-62822732D01*
X39488038Y-62749247D01*
X39528769Y-62674432D01*
X40057305Y-63912680D02*
X40073259Y-63455815D01*
X40065282Y-63684247D02*
X39265769Y-63656328D01*
X39382644Y-63584172D01*
X39461447Y-63510687D01*
X39502179Y-63435873D01*
X36234492Y-80886853D02*
X35434980Y-80858933D01*
X35428332Y-81049294D01*
X35462416Y-81164839D01*
X35535901Y-81243642D01*
X35610715Y-81284373D01*
X35761674Y-81327763D01*
X35875890Y-81331752D01*
X36029507Y-81298998D01*
X36106981Y-81263585D01*
X36185784Y-81190100D01*
X36227845Y-81077213D01*
X36234492Y-80886853D01*
X35484533Y-81623033D02*
X35445132Y-81659776D01*
X35404401Y-81734590D01*
X35397753Y-81924950D01*
X35433166Y-82002424D01*
X35469909Y-82041825D01*
X35544723Y-82082556D01*
X35620868Y-82085215D01*
X35736413Y-82051132D01*
X36209232Y-81610222D01*
X36191948Y-82105158D01*
X36165358Y-82866599D02*
X36181312Y-82409734D01*
X36173335Y-82638166D02*
X35373822Y-82610247D01*
X35490697Y-82538091D01*
X35569500Y-82464606D01*
X35610232Y-82389792D01*
X235812617Y-61375631D02*
X235030099Y-61541960D01*
X235069702Y-61728274D01*
X235130726Y-61832142D01*
X235221092Y-61890826D01*
X235303538Y-61912248D01*
X235460510Y-61917829D01*
X235572298Y-61894068D01*
X235713428Y-61825123D01*
X235780034Y-61772020D01*
X235838718Y-61681653D01*
X235852220Y-61561945D01*
X235812617Y-61375631D01*
X236066072Y-62568039D02*
X235971026Y-62120886D01*
X236018549Y-62344463D02*
X235236031Y-62510792D01*
X235331978Y-62412505D01*
X235390663Y-62322139D01*
X235412085Y-62239693D01*
X236145276Y-62940667D02*
X236176958Y-63089718D01*
X236155536Y-63172164D01*
X236126194Y-63217347D01*
X236030246Y-63315634D01*
X235889116Y-63384579D01*
X235591014Y-63447942D01*
X235508568Y-63426520D01*
X235463384Y-63397178D01*
X235410281Y-63330573D01*
X235378599Y-63181522D01*
X235400021Y-63099076D01*
X235429363Y-63053893D01*
X235495968Y-63000789D01*
X235682282Y-62961187D01*
X235764728Y-62982609D01*
X235809911Y-63011951D01*
X235863015Y-63078556D01*
X235894697Y-63227607D01*
X235873275Y-63310053D01*
X235843932Y-63355236D01*
X235777327Y-63408340D01*
X118796069Y-120233165D02*
X118083264Y-119869972D01*
X117996790Y-120039688D01*
X117978848Y-120158812D01*
X118012145Y-120261288D01*
X118062736Y-120329821D01*
X118181214Y-120432943D01*
X118283043Y-120484828D01*
X118436110Y-120520064D01*
X118521291Y-120520711D01*
X118623767Y-120487415D01*
X118709595Y-120402880D01*
X118796069Y-120233165D01*
X117754661Y-120514891D02*
X117529828Y-120956152D01*
X117922437Y-120856909D01*
X117870552Y-120958738D01*
X117869906Y-121043919D01*
X117886554Y-121095157D01*
X117937145Y-121163690D01*
X118106861Y-121250165D01*
X118192042Y-121250811D01*
X118243280Y-121234163D01*
X118311813Y-121183572D01*
X118415582Y-120979913D01*
X118416229Y-120894732D01*
X118399580Y-120843494D01*
X117408764Y-121193753D02*
X117183931Y-121635014D01*
X117576540Y-121535771D01*
X117524655Y-121637600D01*
X117524008Y-121722781D01*
X117540656Y-121774019D01*
X117591248Y-121842552D01*
X117760963Y-121929027D01*
X117846144Y-121929673D01*
X117897382Y-121913025D01*
X117965915Y-121862434D01*
X118069685Y-121658775D01*
X118070331Y-121573594D01*
X118053683Y-121522356D01*
X81806560Y-59303967D02*
X81024042Y-59137638D01*
X80984440Y-59323952D01*
X80997941Y-59443660D01*
X81056626Y-59534027D01*
X81123231Y-59587131D01*
X81264362Y-59656075D01*
X81376150Y-59679836D01*
X81533121Y-59674255D01*
X81615567Y-59652834D01*
X81705934Y-59594149D01*
X81766958Y-59490281D01*
X81806560Y-59303967D01*
X81553106Y-60496376D02*
X81648151Y-60049223D01*
X81600629Y-60272799D02*
X80818110Y-60106470D01*
X80945740Y-60055706D01*
X81036106Y-59997021D01*
X81089210Y-59930416D01*
X80715145Y-60590886D02*
X80612179Y-61075302D01*
X80965724Y-60877826D01*
X80941963Y-60989614D01*
X80963385Y-61072060D01*
X80992727Y-61117243D01*
X81059332Y-61170347D01*
X81245646Y-61209949D01*
X81328092Y-61188527D01*
X81373275Y-61159185D01*
X81426379Y-61092580D01*
X81473901Y-60869003D01*
X81452480Y-60786557D01*
X81423137Y-60741374D01*
X216592617Y-62925631D02*
X215810099Y-63091960D01*
X215849702Y-63278274D01*
X215910726Y-63382142D01*
X216001092Y-63440826D01*
X216083538Y-63462248D01*
X216240510Y-63467829D01*
X216352298Y-63444068D01*
X216493428Y-63375123D01*
X216560034Y-63322020D01*
X216618718Y-63231653D01*
X216632220Y-63111945D01*
X216592617Y-62925631D01*
X216846072Y-64118039D02*
X216751026Y-63670886D01*
X216798549Y-63894463D02*
X216016031Y-64060792D01*
X216111978Y-63962505D01*
X216170663Y-63872139D01*
X216192085Y-63789693D01*
X216493964Y-64660238D02*
X216440860Y-64593633D01*
X216395677Y-64564290D01*
X216313231Y-64542868D01*
X216275968Y-64550789D01*
X216209363Y-64603893D01*
X216180021Y-64649076D01*
X216158599Y-64731522D01*
X216190281Y-64880573D01*
X216243384Y-64947178D01*
X216288568Y-64976520D01*
X216371014Y-64997942D01*
X216408276Y-64990022D01*
X216474881Y-64936918D01*
X216504224Y-64891735D01*
X216525646Y-64809289D01*
X216493964Y-64660238D01*
X216515386Y-64577792D01*
X216544728Y-64532609D01*
X216611333Y-64479505D01*
X216760384Y-64447823D01*
X216842830Y-64469245D01*
X216888013Y-64498587D01*
X216941117Y-64565192D01*
X216972799Y-64714243D01*
X216951377Y-64796689D01*
X216922035Y-64841873D01*
X216855430Y-64894976D01*
X216706378Y-64926658D01*
X216623932Y-64905236D01*
X216578749Y-64875894D01*
X216525646Y-64809289D01*
X179235852Y-81400351D02*
X178463112Y-81607406D01*
X178512411Y-81791392D01*
X178578787Y-81891924D01*
X178672101Y-81945798D01*
X178755555Y-81962876D01*
X178912604Y-81960234D01*
X179022995Y-81930655D01*
X179160324Y-81854418D01*
X179224059Y-81797902D01*
X179277933Y-81704588D01*
X179285151Y-81584337D01*
X179235852Y-81400351D01*
X179551365Y-82577860D02*
X179433048Y-82136294D01*
X179492207Y-82357077D02*
X178719466Y-82564132D01*
X178810138Y-82460959D01*
X178864013Y-82367645D01*
X178881090Y-82284191D01*
X178956100Y-83447265D02*
X178916661Y-83300076D01*
X178933739Y-83216622D01*
X178960676Y-83169965D01*
X179051348Y-83066791D01*
X179188677Y-82990555D01*
X179483055Y-82911677D01*
X179566509Y-82928754D01*
X179613166Y-82955692D01*
X179669682Y-83019426D01*
X179709122Y-83166615D01*
X179692044Y-83250069D01*
X179665107Y-83296726D01*
X179601372Y-83353243D01*
X179417386Y-83402542D01*
X179333932Y-83385464D01*
X179287275Y-83358527D01*
X179230758Y-83294792D01*
X179191319Y-83147603D01*
X179208397Y-83064149D01*
X179235334Y-83017492D01*
X179299069Y-82960976D01*
X152627904Y-80404285D02*
X152851238Y-80047142D01*
X153010761Y-80404285D02*
X153010761Y-79654285D01*
X152755523Y-79654285D01*
X152691714Y-79690000D01*
X152659809Y-79725714D01*
X152627904Y-79797142D01*
X152627904Y-79904285D01*
X152659809Y-79975714D01*
X152691714Y-80011428D01*
X152755523Y-80047142D01*
X153010761Y-80047142D01*
X152372666Y-80368571D02*
X152276952Y-80404285D01*
X152117428Y-80404285D01*
X152053619Y-80368571D01*
X152021714Y-80332857D01*
X151989809Y-80261428D01*
X151989809Y-80190000D01*
X152021714Y-80118571D01*
X152053619Y-80082857D01*
X152117428Y-80047142D01*
X152245047Y-80011428D01*
X152308857Y-79975714D01*
X152340761Y-79940000D01*
X152372666Y-79868571D01*
X152372666Y-79797142D01*
X152340761Y-79725714D01*
X152308857Y-79690000D01*
X152245047Y-79654285D01*
X152085523Y-79654285D01*
X151989809Y-79690000D01*
X151798380Y-79654285D02*
X151415523Y-79654285D01*
X151606952Y-80404285D02*
X151606952Y-79654285D01*
X153394809Y-85462857D02*
X153426714Y-85498571D01*
X153522428Y-85534285D01*
X153586238Y-85534285D01*
X153681952Y-85498571D01*
X153745761Y-85427142D01*
X153777666Y-85355714D01*
X153809571Y-85212857D01*
X153809571Y-85105714D01*
X153777666Y-84962857D01*
X153745761Y-84891428D01*
X153681952Y-84820000D01*
X153586238Y-84784285D01*
X153522428Y-84784285D01*
X153426714Y-84820000D01*
X153394809Y-84855714D01*
X152980047Y-84784285D02*
X152852428Y-84784285D01*
X152788619Y-84820000D01*
X152724809Y-84891428D01*
X152692904Y-85034285D01*
X152692904Y-85284285D01*
X152724809Y-85427142D01*
X152788619Y-85498571D01*
X152852428Y-85534285D01*
X152980047Y-85534285D01*
X153043857Y-85498571D01*
X153107666Y-85427142D01*
X153139571Y-85284285D01*
X153139571Y-85034285D01*
X153107666Y-84891428D01*
X153043857Y-84820000D01*
X152980047Y-84784285D01*
X152086714Y-85534285D02*
X152405761Y-85534285D01*
X152405761Y-84784285D01*
X151735761Y-84784285D02*
X151671952Y-84784285D01*
X151608142Y-84820000D01*
X151576238Y-84855714D01*
X151544333Y-84927142D01*
X151512428Y-85070000D01*
X151512428Y-85248571D01*
X151544333Y-85391428D01*
X151576238Y-85462857D01*
X151608142Y-85498571D01*
X151671952Y-85534285D01*
X151735761Y-85534285D01*
X151799571Y-85498571D01*
X151831476Y-85462857D01*
X151863380Y-85391428D01*
X151895285Y-85248571D01*
X151895285Y-85070000D01*
X151863380Y-84927142D01*
X151831476Y-84855714D01*
X151799571Y-84820000D01*
X151735761Y-84784285D01*
X153354809Y-103172857D02*
X153386714Y-103208571D01*
X153482428Y-103244285D01*
X153546238Y-103244285D01*
X153641952Y-103208571D01*
X153705761Y-103137142D01*
X153737666Y-103065714D01*
X153769571Y-102922857D01*
X153769571Y-102815714D01*
X153737666Y-102672857D01*
X153705761Y-102601428D01*
X153641952Y-102530000D01*
X153546238Y-102494285D01*
X153482428Y-102494285D01*
X153386714Y-102530000D01*
X153354809Y-102565714D01*
X152940047Y-102494285D02*
X152812428Y-102494285D01*
X152748619Y-102530000D01*
X152684809Y-102601428D01*
X152652904Y-102744285D01*
X152652904Y-102994285D01*
X152684809Y-103137142D01*
X152748619Y-103208571D01*
X152812428Y-103244285D01*
X152940047Y-103244285D01*
X153003857Y-103208571D01*
X153067666Y-103137142D01*
X153099571Y-102994285D01*
X153099571Y-102744285D01*
X153067666Y-102601428D01*
X153003857Y-102530000D01*
X152940047Y-102494285D01*
X152046714Y-103244285D02*
X152365761Y-103244285D01*
X152365761Y-102494285D01*
X151887190Y-102494285D02*
X151440523Y-102494285D01*
X151727666Y-103244285D01*
X153414809Y-90462857D02*
X153446714Y-90498571D01*
X153542428Y-90534285D01*
X153606238Y-90534285D01*
X153701952Y-90498571D01*
X153765761Y-90427142D01*
X153797666Y-90355714D01*
X153829571Y-90212857D01*
X153829571Y-90105714D01*
X153797666Y-89962857D01*
X153765761Y-89891428D01*
X153701952Y-89820000D01*
X153606238Y-89784285D01*
X153542428Y-89784285D01*
X153446714Y-89820000D01*
X153414809Y-89855714D01*
X153000047Y-89784285D02*
X152872428Y-89784285D01*
X152808619Y-89820000D01*
X152744809Y-89891428D01*
X152712904Y-90034285D01*
X152712904Y-90284285D01*
X152744809Y-90427142D01*
X152808619Y-90498571D01*
X152872428Y-90534285D01*
X153000047Y-90534285D01*
X153063857Y-90498571D01*
X153127666Y-90427142D01*
X153159571Y-90284285D01*
X153159571Y-90034285D01*
X153127666Y-89891428D01*
X153063857Y-89820000D01*
X153000047Y-89784285D01*
X152106714Y-90534285D02*
X152425761Y-90534285D01*
X152425761Y-89784285D01*
X151915285Y-89855714D02*
X151883380Y-89820000D01*
X151819571Y-89784285D01*
X151660047Y-89784285D01*
X151596238Y-89820000D01*
X151564333Y-89855714D01*
X151532428Y-89927142D01*
X151532428Y-89998571D01*
X151564333Y-90105714D01*
X151947190Y-90534285D01*
X151532428Y-90534285D01*
X163896476Y-95574285D02*
X164119809Y-95217142D01*
X164279333Y-95574285D02*
X164279333Y-94824285D01*
X164024095Y-94824285D01*
X163960285Y-94860000D01*
X163928380Y-94895714D01*
X163896476Y-94967142D01*
X163896476Y-95074285D01*
X163928380Y-95145714D01*
X163960285Y-95181428D01*
X164024095Y-95217142D01*
X164279333Y-95217142D01*
X163481714Y-94824285D02*
X163354095Y-94824285D01*
X163290285Y-94860000D01*
X163226476Y-94931428D01*
X163194571Y-95074285D01*
X163194571Y-95324285D01*
X163226476Y-95467142D01*
X163290285Y-95538571D01*
X163354095Y-95574285D01*
X163481714Y-95574285D01*
X163545523Y-95538571D01*
X163609333Y-95467142D01*
X163641238Y-95324285D01*
X163641238Y-95074285D01*
X163609333Y-94931428D01*
X163545523Y-94860000D01*
X163481714Y-94824285D01*
X162971238Y-94824285D02*
X162811714Y-95574285D01*
X162684095Y-95038571D01*
X162556476Y-95574285D01*
X162396952Y-94824285D01*
X162173619Y-94895714D02*
X162141714Y-94860000D01*
X162077904Y-94824285D01*
X161918380Y-94824285D01*
X161854571Y-94860000D01*
X161822666Y-94895714D01*
X161790761Y-94967142D01*
X161790761Y-95038571D01*
X161822666Y-95145714D01*
X162205523Y-95574285D01*
X161790761Y-95574285D01*
X163874809Y-103072857D02*
X163906714Y-103108571D01*
X164002428Y-103144285D01*
X164066238Y-103144285D01*
X164161952Y-103108571D01*
X164225761Y-103037142D01*
X164257666Y-102965714D01*
X164289571Y-102822857D01*
X164289571Y-102715714D01*
X164257666Y-102572857D01*
X164225761Y-102501428D01*
X164161952Y-102430000D01*
X164066238Y-102394285D01*
X164002428Y-102394285D01*
X163906714Y-102430000D01*
X163874809Y-102465714D01*
X163460047Y-102394285D02*
X163332428Y-102394285D01*
X163268619Y-102430000D01*
X163204809Y-102501428D01*
X163172904Y-102644285D01*
X163172904Y-102894285D01*
X163204809Y-103037142D01*
X163268619Y-103108571D01*
X163332428Y-103144285D01*
X163460047Y-103144285D01*
X163523857Y-103108571D01*
X163587666Y-103037142D01*
X163619571Y-102894285D01*
X163619571Y-102644285D01*
X163587666Y-102501428D01*
X163523857Y-102430000D01*
X163460047Y-102394285D01*
X162566714Y-103144285D02*
X162885761Y-103144285D01*
X162885761Y-102394285D01*
X162311476Y-103144285D02*
X162183857Y-103144285D01*
X162120047Y-103108571D01*
X162088142Y-103072857D01*
X162024333Y-102965714D01*
X161992428Y-102822857D01*
X161992428Y-102537142D01*
X162024333Y-102465714D01*
X162056238Y-102430000D01*
X162120047Y-102394285D01*
X162247666Y-102394285D01*
X162311476Y-102430000D01*
X162343380Y-102465714D01*
X162375285Y-102537142D01*
X162375285Y-102715714D01*
X162343380Y-102787142D01*
X162311476Y-102822857D01*
X162247666Y-102858571D01*
X162120047Y-102858571D01*
X162056238Y-102822857D01*
X162024333Y-102787142D01*
X161992428Y-102715714D01*
X153404333Y-82094285D02*
X153181000Y-82844285D01*
X152957666Y-82094285D01*
X152351476Y-82772857D02*
X152383380Y-82808571D01*
X152479095Y-82844285D01*
X152542904Y-82844285D01*
X152638619Y-82808571D01*
X152702428Y-82737142D01*
X152734333Y-82665714D01*
X152766238Y-82522857D01*
X152766238Y-82415714D01*
X152734333Y-82272857D01*
X152702428Y-82201428D01*
X152638619Y-82130000D01*
X152542904Y-82094285D01*
X152479095Y-82094285D01*
X152383380Y-82130000D01*
X152351476Y-82165714D01*
X151681476Y-82772857D02*
X151713380Y-82808571D01*
X151809095Y-82844285D01*
X151872904Y-82844285D01*
X151968619Y-82808571D01*
X152032428Y-82737142D01*
X152064333Y-82665714D01*
X152096238Y-82522857D01*
X152096238Y-82415714D01*
X152064333Y-82272857D01*
X152032428Y-82201428D01*
X151968619Y-82130000D01*
X151872904Y-82094285D01*
X151809095Y-82094285D01*
X151713380Y-82130000D01*
X151681476Y-82165714D01*
X165881714Y-76524285D02*
X166200761Y-76524285D01*
X166200761Y-75774285D01*
X165658380Y-76131428D02*
X165435047Y-76131428D01*
X165339333Y-76524285D02*
X165658380Y-76524285D01*
X165658380Y-75774285D01*
X165339333Y-75774285D01*
X165052190Y-76524285D02*
X165052190Y-75774285D01*
X164892666Y-75774285D01*
X164796952Y-75810000D01*
X164733142Y-75881428D01*
X164701238Y-75952857D01*
X164669333Y-76095714D01*
X164669333Y-76202857D01*
X164701238Y-76345714D01*
X164733142Y-76417142D01*
X164796952Y-76488571D01*
X164892666Y-76524285D01*
X165052190Y-76524285D01*
X153404809Y-87992857D02*
X153436714Y-88028571D01*
X153532428Y-88064285D01*
X153596238Y-88064285D01*
X153691952Y-88028571D01*
X153755761Y-87957142D01*
X153787666Y-87885714D01*
X153819571Y-87742857D01*
X153819571Y-87635714D01*
X153787666Y-87492857D01*
X153755761Y-87421428D01*
X153691952Y-87350000D01*
X153596238Y-87314285D01*
X153532428Y-87314285D01*
X153436714Y-87350000D01*
X153404809Y-87385714D01*
X152990047Y-87314285D02*
X152862428Y-87314285D01*
X152798619Y-87350000D01*
X152734809Y-87421428D01*
X152702904Y-87564285D01*
X152702904Y-87814285D01*
X152734809Y-87957142D01*
X152798619Y-88028571D01*
X152862428Y-88064285D01*
X152990047Y-88064285D01*
X153053857Y-88028571D01*
X153117666Y-87957142D01*
X153149571Y-87814285D01*
X153149571Y-87564285D01*
X153117666Y-87421428D01*
X153053857Y-87350000D01*
X152990047Y-87314285D01*
X152096714Y-88064285D02*
X152415761Y-88064285D01*
X152415761Y-87314285D01*
X151522428Y-88064285D02*
X151905285Y-88064285D01*
X151713857Y-88064285D02*
X151713857Y-87314285D01*
X151777666Y-87421428D01*
X151841476Y-87492857D01*
X151905285Y-87528571D01*
X151211476Y-78350000D02*
X151275285Y-78314285D01*
X151371000Y-78314285D01*
X151466714Y-78350000D01*
X151530523Y-78421428D01*
X151562428Y-78492857D01*
X151594333Y-78635714D01*
X151594333Y-78742857D01*
X151562428Y-78885714D01*
X151530523Y-78957142D01*
X151466714Y-79028571D01*
X151371000Y-79064285D01*
X151307190Y-79064285D01*
X151211476Y-79028571D01*
X151179571Y-78992857D01*
X151179571Y-78742857D01*
X151307190Y-78742857D01*
X150892428Y-79064285D02*
X150892428Y-78314285D01*
X150509571Y-79064285D01*
X150509571Y-78314285D01*
X150190523Y-79064285D02*
X150190523Y-78314285D01*
X150031000Y-78314285D01*
X149935285Y-78350000D01*
X149871476Y-78421428D01*
X149839571Y-78492857D01*
X149807666Y-78635714D01*
X149807666Y-78742857D01*
X149839571Y-78885714D01*
X149871476Y-78957142D01*
X149935285Y-79028571D01*
X150031000Y-79064285D01*
X150190523Y-79064285D01*
X163986476Y-98134285D02*
X164209809Y-97777142D01*
X164369333Y-98134285D02*
X164369333Y-97384285D01*
X164114095Y-97384285D01*
X164050285Y-97420000D01*
X164018380Y-97455714D01*
X163986476Y-97527142D01*
X163986476Y-97634285D01*
X164018380Y-97705714D01*
X164050285Y-97741428D01*
X164114095Y-97777142D01*
X164369333Y-97777142D01*
X163571714Y-97384285D02*
X163444095Y-97384285D01*
X163380285Y-97420000D01*
X163316476Y-97491428D01*
X163284571Y-97634285D01*
X163284571Y-97884285D01*
X163316476Y-98027142D01*
X163380285Y-98098571D01*
X163444095Y-98134285D01*
X163571714Y-98134285D01*
X163635523Y-98098571D01*
X163699333Y-98027142D01*
X163731238Y-97884285D01*
X163731238Y-97634285D01*
X163699333Y-97491428D01*
X163635523Y-97420000D01*
X163571714Y-97384285D01*
X163061238Y-97384285D02*
X162901714Y-98134285D01*
X162774095Y-97598571D01*
X162646476Y-98134285D01*
X162486952Y-97384285D01*
X162295523Y-97384285D02*
X161880761Y-97384285D01*
X162104095Y-97670000D01*
X162008380Y-97670000D01*
X161944571Y-97705714D01*
X161912666Y-97741428D01*
X161880761Y-97812857D01*
X161880761Y-97991428D01*
X161912666Y-98062857D01*
X161944571Y-98098571D01*
X162008380Y-98134285D01*
X162199809Y-98134285D01*
X162263619Y-98098571D01*
X162295523Y-98062857D01*
D12*
D11*
X163914809Y-100542857D02*
X163946714Y-100578571D01*
X164042428Y-100614285D01*
X164106238Y-100614285D01*
X164201952Y-100578571D01*
X164265761Y-100507142D01*
X164297666Y-100435714D01*
X164329571Y-100292857D01*
X164329571Y-100185714D01*
X164297666Y-100042857D01*
X164265761Y-99971428D01*
X164201952Y-99900000D01*
X164106238Y-99864285D01*
X164042428Y-99864285D01*
X163946714Y-99900000D01*
X163914809Y-99935714D01*
X163500047Y-99864285D02*
X163372428Y-99864285D01*
X163308619Y-99900000D01*
X163244809Y-99971428D01*
X163212904Y-100114285D01*
X163212904Y-100364285D01*
X163244809Y-100507142D01*
X163308619Y-100578571D01*
X163372428Y-100614285D01*
X163500047Y-100614285D01*
X163563857Y-100578571D01*
X163627666Y-100507142D01*
X163659571Y-100364285D01*
X163659571Y-100114285D01*
X163627666Y-99971428D01*
X163563857Y-99900000D01*
X163500047Y-99864285D01*
X162606714Y-100614285D02*
X162925761Y-100614285D01*
X162925761Y-99864285D01*
X162287666Y-100185714D02*
X162351476Y-100150000D01*
X162383380Y-100114285D01*
X162415285Y-100042857D01*
X162415285Y-100007142D01*
X162383380Y-99935714D01*
X162351476Y-99900000D01*
X162287666Y-99864285D01*
X162160047Y-99864285D01*
X162096238Y-99900000D01*
X162064333Y-99935714D01*
X162032428Y-100007142D01*
X162032428Y-100042857D01*
X162064333Y-100114285D01*
X162096238Y-100150000D01*
X162160047Y-100185714D01*
X162287666Y-100185714D01*
X162351476Y-100221428D01*
X162383380Y-100257142D01*
X162415285Y-100328571D01*
X162415285Y-100471428D01*
X162383380Y-100542857D01*
X162351476Y-100578571D01*
X162287666Y-100614285D01*
X162160047Y-100614285D01*
X162096238Y-100578571D01*
X162064333Y-100542857D01*
X162032428Y-100471428D01*
X162032428Y-100328571D01*
X162064333Y-100257142D01*
X162096238Y-100221428D01*
X162160047Y-100185714D01*
X163751476Y-82160000D02*
X163815285Y-82124285D01*
X163911000Y-82124285D01*
X164006714Y-82160000D01*
X164070523Y-82231428D01*
X164102428Y-82302857D01*
X164134333Y-82445714D01*
X164134333Y-82552857D01*
X164102428Y-82695714D01*
X164070523Y-82767142D01*
X164006714Y-82838571D01*
X163911000Y-82874285D01*
X163847190Y-82874285D01*
X163751476Y-82838571D01*
X163719571Y-82802857D01*
X163719571Y-82552857D01*
X163847190Y-82552857D01*
X163432428Y-82874285D02*
X163432428Y-82124285D01*
X163049571Y-82874285D01*
X163049571Y-82124285D01*
X162730523Y-82874285D02*
X162730523Y-82124285D01*
X162571000Y-82124285D01*
X162475285Y-82160000D01*
X162411476Y-82231428D01*
X162379571Y-82302857D01*
X162347666Y-82445714D01*
X162347666Y-82552857D01*
X162379571Y-82695714D01*
X162411476Y-82767142D01*
X162475285Y-82838571D01*
X162571000Y-82874285D01*
X162730523Y-82874285D01*
X153354809Y-100672857D02*
X153386714Y-100708571D01*
X153482428Y-100744285D01*
X153546238Y-100744285D01*
X153641952Y-100708571D01*
X153705761Y-100637142D01*
X153737666Y-100565714D01*
X153769571Y-100422857D01*
X153769571Y-100315714D01*
X153737666Y-100172857D01*
X153705761Y-100101428D01*
X153641952Y-100030000D01*
X153546238Y-99994285D01*
X153482428Y-99994285D01*
X153386714Y-100030000D01*
X153354809Y-100065714D01*
X152940047Y-99994285D02*
X152812428Y-99994285D01*
X152748619Y-100030000D01*
X152684809Y-100101428D01*
X152652904Y-100244285D01*
X152652904Y-100494285D01*
X152684809Y-100637142D01*
X152748619Y-100708571D01*
X152812428Y-100744285D01*
X152940047Y-100744285D01*
X153003857Y-100708571D01*
X153067666Y-100637142D01*
X153099571Y-100494285D01*
X153099571Y-100244285D01*
X153067666Y-100101428D01*
X153003857Y-100030000D01*
X152940047Y-99994285D01*
X152046714Y-100744285D02*
X152365761Y-100744285D01*
X152365761Y-99994285D01*
X151536238Y-99994285D02*
X151663857Y-99994285D01*
X151727666Y-100030000D01*
X151759571Y-100065714D01*
X151823380Y-100172857D01*
X151855285Y-100315714D01*
X151855285Y-100601428D01*
X151823380Y-100672857D01*
X151791476Y-100708571D01*
X151727666Y-100744285D01*
X151600047Y-100744285D01*
X151536238Y-100708571D01*
X151504333Y-100672857D01*
X151472428Y-100601428D01*
X151472428Y-100422857D01*
X151504333Y-100351428D01*
X151536238Y-100315714D01*
X151600047Y-100280000D01*
X151727666Y-100280000D01*
X151791476Y-100315714D01*
X151823380Y-100351428D01*
X151855285Y-100422857D01*
X153354809Y-98112857D02*
X153386714Y-98148571D01*
X153482428Y-98184285D01*
X153546238Y-98184285D01*
X153641952Y-98148571D01*
X153705761Y-98077142D01*
X153737666Y-98005714D01*
X153769571Y-97862857D01*
X153769571Y-97755714D01*
X153737666Y-97612857D01*
X153705761Y-97541428D01*
X153641952Y-97470000D01*
X153546238Y-97434285D01*
X153482428Y-97434285D01*
X153386714Y-97470000D01*
X153354809Y-97505714D01*
X152940047Y-97434285D02*
X152812428Y-97434285D01*
X152748619Y-97470000D01*
X152684809Y-97541428D01*
X152652904Y-97684285D01*
X152652904Y-97934285D01*
X152684809Y-98077142D01*
X152748619Y-98148571D01*
X152812428Y-98184285D01*
X152940047Y-98184285D01*
X153003857Y-98148571D01*
X153067666Y-98077142D01*
X153099571Y-97934285D01*
X153099571Y-97684285D01*
X153067666Y-97541428D01*
X153003857Y-97470000D01*
X152940047Y-97434285D01*
X152046714Y-98184285D02*
X152365761Y-98184285D01*
X152365761Y-97434285D01*
X151504333Y-97434285D02*
X151823380Y-97434285D01*
X151855285Y-97791428D01*
X151823380Y-97755714D01*
X151759571Y-97720000D01*
X151600047Y-97720000D01*
X151536238Y-97755714D01*
X151504333Y-97791428D01*
X151472428Y-97862857D01*
X151472428Y-98041428D01*
X151504333Y-98112857D01*
X151536238Y-98148571D01*
X151600047Y-98184285D01*
X151759571Y-98184285D01*
X151823380Y-98148571D01*
X151855285Y-98112857D01*
X153354809Y-95572857D02*
X153386714Y-95608571D01*
X153482428Y-95644285D01*
X153546238Y-95644285D01*
X153641952Y-95608571D01*
X153705761Y-95537142D01*
X153737666Y-95465714D01*
X153769571Y-95322857D01*
X153769571Y-95215714D01*
X153737666Y-95072857D01*
X153705761Y-95001428D01*
X153641952Y-94930000D01*
X153546238Y-94894285D01*
X153482428Y-94894285D01*
X153386714Y-94930000D01*
X153354809Y-94965714D01*
X152940047Y-94894285D02*
X152812428Y-94894285D01*
X152748619Y-94930000D01*
X152684809Y-95001428D01*
X152652904Y-95144285D01*
X152652904Y-95394285D01*
X152684809Y-95537142D01*
X152748619Y-95608571D01*
X152812428Y-95644285D01*
X152940047Y-95644285D01*
X153003857Y-95608571D01*
X153067666Y-95537142D01*
X153099571Y-95394285D01*
X153099571Y-95144285D01*
X153067666Y-95001428D01*
X153003857Y-94930000D01*
X152940047Y-94894285D01*
X152046714Y-95644285D02*
X152365761Y-95644285D01*
X152365761Y-94894285D01*
X151536238Y-95144285D02*
X151536238Y-95644285D01*
X151695761Y-94858571D02*
X151855285Y-95394285D01*
X151440523Y-95394285D01*
X163986476Y-93014285D02*
X164209809Y-92657142D01*
X164369333Y-93014285D02*
X164369333Y-92264285D01*
X164114095Y-92264285D01*
X164050285Y-92300000D01*
X164018380Y-92335714D01*
X163986476Y-92407142D01*
X163986476Y-92514285D01*
X164018380Y-92585714D01*
X164050285Y-92621428D01*
X164114095Y-92657142D01*
X164369333Y-92657142D01*
X163571714Y-92264285D02*
X163444095Y-92264285D01*
X163380285Y-92300000D01*
X163316476Y-92371428D01*
X163284571Y-92514285D01*
X163284571Y-92764285D01*
X163316476Y-92907142D01*
X163380285Y-92978571D01*
X163444095Y-93014285D01*
X163571714Y-93014285D01*
X163635523Y-92978571D01*
X163699333Y-92907142D01*
X163731238Y-92764285D01*
X163731238Y-92514285D01*
X163699333Y-92371428D01*
X163635523Y-92300000D01*
X163571714Y-92264285D01*
X163061238Y-92264285D02*
X162901714Y-93014285D01*
X162774095Y-92478571D01*
X162646476Y-93014285D01*
X162486952Y-92264285D01*
X161880761Y-93014285D02*
X162263619Y-93014285D01*
X162072190Y-93014285D02*
X162072190Y-92264285D01*
X162136000Y-92371428D01*
X162199809Y-92442857D01*
X162263619Y-92478571D01*
X163846476Y-90424285D02*
X164069809Y-90067142D01*
X164229333Y-90424285D02*
X164229333Y-89674285D01*
X163974095Y-89674285D01*
X163910285Y-89710000D01*
X163878380Y-89745714D01*
X163846476Y-89817142D01*
X163846476Y-89924285D01*
X163878380Y-89995714D01*
X163910285Y-90031428D01*
X163974095Y-90067142D01*
X164229333Y-90067142D01*
X163431714Y-89674285D02*
X163304095Y-89674285D01*
X163240285Y-89710000D01*
X163176476Y-89781428D01*
X163144571Y-89924285D01*
X163144571Y-90174285D01*
X163176476Y-90317142D01*
X163240285Y-90388571D01*
X163304095Y-90424285D01*
X163431714Y-90424285D01*
X163495523Y-90388571D01*
X163559333Y-90317142D01*
X163591238Y-90174285D01*
X163591238Y-89924285D01*
X163559333Y-89781428D01*
X163495523Y-89710000D01*
X163431714Y-89674285D01*
X162921238Y-89674285D02*
X162761714Y-90424285D01*
X162634095Y-89888571D01*
X162506476Y-90424285D01*
X162346952Y-89674285D01*
X161964095Y-89674285D02*
X161900285Y-89674285D01*
X161836476Y-89710000D01*
X161804571Y-89745714D01*
X161772666Y-89817142D01*
X161740761Y-89960000D01*
X161740761Y-90138571D01*
X161772666Y-90281428D01*
X161804571Y-90352857D01*
X161836476Y-90388571D01*
X161900285Y-90424285D01*
X161964095Y-90424285D01*
X162027904Y-90388571D01*
X162059809Y-90352857D01*
X162091714Y-90281428D01*
X162123619Y-90138571D01*
X162123619Y-89960000D01*
X162091714Y-89817142D01*
X162059809Y-89745714D01*
X162027904Y-89710000D01*
X161964095Y-89674285D01*
X153414809Y-93022857D02*
X153446714Y-93058571D01*
X153542428Y-93094285D01*
X153606238Y-93094285D01*
X153701952Y-93058571D01*
X153765761Y-92987142D01*
X153797666Y-92915714D01*
X153829571Y-92772857D01*
X153829571Y-92665714D01*
X153797666Y-92522857D01*
X153765761Y-92451428D01*
X153701952Y-92380000D01*
X153606238Y-92344285D01*
X153542428Y-92344285D01*
X153446714Y-92380000D01*
X153414809Y-92415714D01*
X153000047Y-92344285D02*
X152872428Y-92344285D01*
X152808619Y-92380000D01*
X152744809Y-92451428D01*
X152712904Y-92594285D01*
X152712904Y-92844285D01*
X152744809Y-92987142D01*
X152808619Y-93058571D01*
X152872428Y-93094285D01*
X153000047Y-93094285D01*
X153063857Y-93058571D01*
X153127666Y-92987142D01*
X153159571Y-92844285D01*
X153159571Y-92594285D01*
X153127666Y-92451428D01*
X153063857Y-92380000D01*
X153000047Y-92344285D01*
X152106714Y-93094285D02*
X152425761Y-93094285D01*
X152425761Y-92344285D01*
X151947190Y-92344285D02*
X151532428Y-92344285D01*
X151755761Y-92630000D01*
X151660047Y-92630000D01*
X151596238Y-92665714D01*
X151564333Y-92701428D01*
X151532428Y-92772857D01*
X151532428Y-92951428D01*
X151564333Y-93022857D01*
X151596238Y-93058571D01*
X151660047Y-93094285D01*
X151851476Y-93094285D01*
X151915285Y-93058571D01*
X151947190Y-93022857D01*
X163821476Y-79620000D02*
X163885285Y-79584285D01*
X163981000Y-79584285D01*
X164076714Y-79620000D01*
X164140523Y-79691428D01*
X164172428Y-79762857D01*
X164204333Y-79905714D01*
X164204333Y-80012857D01*
X164172428Y-80155714D01*
X164140523Y-80227142D01*
X164076714Y-80298571D01*
X163981000Y-80334285D01*
X163917190Y-80334285D01*
X163821476Y-80298571D01*
X163789571Y-80262857D01*
X163789571Y-80012857D01*
X163917190Y-80012857D01*
X163502428Y-80334285D02*
X163502428Y-79584285D01*
X163119571Y-80334285D01*
X163119571Y-79584285D01*
X162800523Y-80334285D02*
X162800523Y-79584285D01*
X162641000Y-79584285D01*
X162545285Y-79620000D01*
X162481476Y-79691428D01*
X162449571Y-79762857D01*
X162417666Y-79905714D01*
X162417666Y-80012857D01*
X162449571Y-80155714D01*
X162481476Y-80227142D01*
X162545285Y-80298571D01*
X162641000Y-80334285D01*
X162800523Y-80334285D01*
X220692617Y-81615631D02*
X219910099Y-81781960D01*
X219949702Y-81968274D01*
X220010726Y-82072142D01*
X220101092Y-82130826D01*
X220183538Y-82152248D01*
X220340510Y-82157829D01*
X220452298Y-82134068D01*
X220593428Y-82065123D01*
X220660034Y-82012020D01*
X220718718Y-81921653D01*
X220732220Y-81801945D01*
X220692617Y-81615631D01*
X220143034Y-82511375D02*
X220113691Y-82556558D01*
X220092270Y-82639004D01*
X220131872Y-82825318D01*
X220184975Y-82891923D01*
X220230159Y-82921265D01*
X220312605Y-82942687D01*
X220387130Y-82926846D01*
X220490998Y-82865822D01*
X220843106Y-82323623D01*
X220946072Y-82808039D01*
X220593964Y-83350238D02*
X220540860Y-83283633D01*
X220495677Y-83254290D01*
X220413231Y-83232868D01*
X220375968Y-83240789D01*
X220309363Y-83293893D01*
X220280021Y-83339076D01*
X220258599Y-83421522D01*
X220290281Y-83570573D01*
X220343384Y-83637178D01*
X220388568Y-83666520D01*
X220471014Y-83687942D01*
X220508276Y-83680022D01*
X220574881Y-83626918D01*
X220604224Y-83581735D01*
X220625646Y-83499289D01*
X220593964Y-83350238D01*
X220615386Y-83267792D01*
X220644728Y-83222609D01*
X220711333Y-83169505D01*
X220860384Y-83137823D01*
X220942830Y-83159245D01*
X220988013Y-83188587D01*
X221041117Y-83255192D01*
X221072799Y-83404243D01*
X221051377Y-83486689D01*
X221022035Y-83531873D01*
X220955430Y-83584976D01*
X220806378Y-83616658D01*
X220723932Y-83595236D01*
X220678749Y-83565894D01*
X220625646Y-83499289D01*
X65651603Y-39707413D02*
X64857566Y-39609917D01*
X64834352Y-39798974D01*
X64858236Y-39917050D01*
X64924573Y-40001958D01*
X64995553Y-40049055D01*
X65142156Y-40105436D01*
X65255589Y-40119364D01*
X65411477Y-40100124D01*
X65491742Y-40071598D01*
X65576650Y-40005260D01*
X65628389Y-39896469D01*
X65651603Y-39707413D01*
X64840335Y-40375428D02*
X64797882Y-40408597D01*
X64750785Y-40479577D01*
X64727572Y-40668633D01*
X64756098Y-40748898D01*
X64789266Y-40791352D01*
X64860246Y-40838449D01*
X64935869Y-40847734D01*
X65053945Y-40823851D01*
X65563392Y-40425827D01*
X65503038Y-40917374D01*
X181159864Y-128257273D02*
X180447058Y-128620465D01*
X180533533Y-128790181D01*
X180619361Y-128874715D01*
X180721837Y-128908012D01*
X180807018Y-128907365D01*
X180960085Y-128872129D01*
X181061914Y-128820244D01*
X181180392Y-128717122D01*
X181230983Y-128648589D01*
X181264280Y-128546113D01*
X181246338Y-128426989D01*
X181159864Y-128257273D01*
X180775661Y-129265384D02*
X181000494Y-129706645D01*
X181150975Y-129330684D01*
X181202860Y-129432513D01*
X181271393Y-129483105D01*
X181322631Y-129499753D01*
X181407812Y-129499106D01*
X181577527Y-129412632D01*
X181628119Y-129344099D01*
X181644767Y-129292861D01*
X181644120Y-129207680D01*
X181540351Y-129004021D01*
X181471818Y-128953430D01*
X181420580Y-128936782D01*
X181549404Y-130196557D02*
X182024607Y-129954428D01*
X181191385Y-130165200D02*
X181614057Y-129736061D01*
X181838890Y-130177322D01*
X212841822Y-44708258D02*
X212059304Y-44874588D01*
X212098906Y-45060902D01*
X212159930Y-45164769D01*
X212250297Y-45223454D01*
X212332743Y-45244876D01*
X212489714Y-45250457D01*
X212601502Y-45226696D01*
X212742633Y-45157751D01*
X212809238Y-45104647D01*
X212867923Y-45014281D01*
X212881424Y-44894572D01*
X212841822Y-44708258D01*
X212584759Y-45697610D02*
X212531656Y-45631005D01*
X212486473Y-45601663D01*
X212404027Y-45580241D01*
X212366764Y-45588161D01*
X212300159Y-45641265D01*
X212270816Y-45686448D01*
X212249394Y-45768894D01*
X212281076Y-45917945D01*
X212334180Y-45984550D01*
X212379363Y-46013893D01*
X212461809Y-46035314D01*
X212499072Y-46027394D01*
X212565677Y-45974290D01*
X212595019Y-45929107D01*
X212616441Y-45846661D01*
X212584759Y-45697610D01*
X212606181Y-45615164D01*
X212635524Y-45569981D01*
X212702129Y-45516877D01*
X212851180Y-45485195D01*
X212933626Y-45506617D01*
X212978809Y-45535960D01*
X213031913Y-45602565D01*
X213063594Y-45751616D01*
X213042172Y-45834062D01*
X213012830Y-45879245D01*
X212946225Y-45932349D01*
X212797174Y-45964030D01*
X212714728Y-45942609D01*
X212669545Y-45913266D01*
X212616441Y-45846661D01*
X62647517Y-57710179D02*
X61864999Y-57543850D01*
X61825397Y-57730164D01*
X61838898Y-57849872D01*
X61897583Y-57940239D01*
X61964188Y-57993343D01*
X62105319Y-58062287D01*
X62217107Y-58086048D01*
X62374078Y-58080467D01*
X62456524Y-58059046D01*
X62546891Y-58000361D01*
X62607915Y-57896493D01*
X62647517Y-57710179D01*
X62394063Y-58902588D02*
X62489108Y-58455435D01*
X62441586Y-58679011D02*
X61659067Y-58512682D01*
X61786697Y-58461918D01*
X61877063Y-58403233D01*
X61930167Y-58336628D01*
X61622707Y-59050201D02*
X61577524Y-59079544D01*
X61524420Y-59146149D01*
X61484818Y-59332463D01*
X61506240Y-59414909D01*
X61535582Y-59460092D01*
X61602187Y-59513195D01*
X61676712Y-59529036D01*
X61796421Y-59515535D01*
X62338620Y-59163427D01*
X62235654Y-59647843D01*
X77856560Y-77923967D02*
X77074042Y-77757638D01*
X77034440Y-77943952D01*
X77047941Y-78063660D01*
X77106626Y-78154027D01*
X77173231Y-78207131D01*
X77314362Y-78276075D01*
X77426150Y-78299836D01*
X77583121Y-78294255D01*
X77665567Y-78272834D01*
X77755934Y-78214149D01*
X77816958Y-78110281D01*
X77856560Y-77923967D01*
X76990159Y-78518734D02*
X76944975Y-78548076D01*
X76891872Y-78614681D01*
X76852270Y-78800995D01*
X76873691Y-78883441D01*
X76903034Y-78928624D01*
X76969639Y-78981728D01*
X77044164Y-78997569D01*
X77163873Y-78984068D01*
X77706072Y-78631960D01*
X77603106Y-79116376D01*
X76765145Y-79210886D02*
X76662179Y-79695302D01*
X77015724Y-79497826D01*
X76991963Y-79609614D01*
X77013385Y-79692060D01*
X77042727Y-79737243D01*
X77109332Y-79790347D01*
X77295646Y-79829949D01*
X77378092Y-79808527D01*
X77423275Y-79779185D01*
X77476379Y-79712580D01*
X77523901Y-79489003D01*
X77502480Y-79406557D01*
X77473137Y-79361374D01*
X193234450Y-56288322D02*
X192461710Y-56495378D01*
X192511008Y-56679364D01*
X192577385Y-56779895D01*
X192670699Y-56833770D01*
X192754153Y-56850848D01*
X192911201Y-56848206D01*
X193021593Y-56818627D01*
X193158922Y-56742390D01*
X193222656Y-56685874D01*
X193276531Y-56592560D01*
X193283749Y-56472308D01*
X193234450Y-56288322D01*
X192649045Y-57194524D02*
X192787082Y-57709684D01*
X193471085Y-57171455D01*
X58667517Y-76410179D02*
X57884999Y-76243850D01*
X57845397Y-76430164D01*
X57858898Y-76549872D01*
X57917583Y-76640239D01*
X57984188Y-76693343D01*
X58125319Y-76762287D01*
X58237107Y-76786048D01*
X58394078Y-76780467D01*
X58476524Y-76759046D01*
X58566891Y-76700361D01*
X58627915Y-76596493D01*
X58667517Y-76410179D01*
X57801116Y-77004946D02*
X57755932Y-77034288D01*
X57702829Y-77100893D01*
X57663227Y-77287207D01*
X57684648Y-77369653D01*
X57713991Y-77414836D01*
X57780596Y-77467940D01*
X57855121Y-77483781D01*
X57974830Y-77470280D01*
X58517029Y-77118172D01*
X58414063Y-77602588D01*
X57642707Y-77750201D02*
X57597524Y-77779544D01*
X57544420Y-77846149D01*
X57504818Y-78032463D01*
X57526240Y-78114909D01*
X57555582Y-78160092D01*
X57622187Y-78213195D01*
X57696712Y-78229036D01*
X57816421Y-78215535D01*
X58358620Y-77863427D01*
X58255654Y-78347843D01*
X115128701Y-95392992D02*
X114355960Y-95185937D01*
X114306661Y-95369923D01*
X114313879Y-95490174D01*
X114367754Y-95583488D01*
X114431489Y-95640005D01*
X114568818Y-95716241D01*
X114679209Y-95745821D01*
X114836257Y-95748462D01*
X114919712Y-95731385D01*
X115013026Y-95677510D01*
X115079402Y-95576978D01*
X115128701Y-95392992D01*
X114232359Y-95941600D02*
X114185702Y-95968538D01*
X114129185Y-96032272D01*
X114079887Y-96216258D01*
X114096964Y-96299712D01*
X114123902Y-96346369D01*
X114187636Y-96402886D01*
X114261231Y-96422605D01*
X114381482Y-96415388D01*
X114941365Y-96092139D01*
X114813188Y-96570502D01*
X113853112Y-97062593D02*
X113951710Y-96694621D01*
X114329541Y-96756422D01*
X114282884Y-96783359D01*
X114226367Y-96847094D01*
X114177068Y-97031080D01*
X114194146Y-97114534D01*
X114221084Y-97161191D01*
X114284818Y-97217708D01*
X114468804Y-97267006D01*
X114552258Y-97249929D01*
X114598915Y-97222991D01*
X114655432Y-97159257D01*
X114704731Y-96975271D01*
X114687653Y-96891817D01*
X114660716Y-96845160D01*
X261728634Y-81555391D02*
X260929122Y-81583311D01*
X260935769Y-81773671D01*
X260977830Y-81886558D01*
X261056633Y-81960043D01*
X261134106Y-81995456D01*
X261287724Y-82028210D01*
X261401940Y-82024221D01*
X261552899Y-81980831D01*
X261627713Y-81940100D01*
X261701198Y-81861297D01*
X261735282Y-81745752D01*
X261728634Y-81555391D01*
X260954382Y-82306680D02*
X260971666Y-82801616D01*
X261266936Y-82524476D01*
X261270924Y-82638692D01*
X261311655Y-82713506D01*
X261351057Y-82750249D01*
X261428530Y-82785662D01*
X261618890Y-82779014D01*
X261693705Y-82738283D01*
X261730448Y-82698882D01*
X261765861Y-82621408D01*
X261757884Y-82392976D01*
X261717152Y-82318162D01*
X261677751Y-82281419D01*
X260988949Y-83296552D02*
X260991608Y-83372696D01*
X261032340Y-83447511D01*
X261071741Y-83484254D01*
X261149215Y-83519667D01*
X261302832Y-83552421D01*
X261493192Y-83545773D01*
X261644151Y-83502383D01*
X261718966Y-83461652D01*
X261755708Y-83422250D01*
X261791121Y-83344777D01*
X261788462Y-83268633D01*
X261747731Y-83193818D01*
X261708330Y-83157076D01*
X261630856Y-83121663D01*
X261477238Y-83088909D01*
X261286878Y-83095556D01*
X261135920Y-83138946D01*
X261061105Y-83179677D01*
X261024363Y-83219079D01*
X260988949Y-83296552D01*
D12*
X125202372Y-59186447D02*
X124236447Y-58927628D01*
X123977628Y-59893553D02*
X124693528Y-59153630D01*
X124693528Y-59153630D02*
X124943553Y-60152372D01*
X123166744Y-61953885D02*
X124615633Y-62342114D01*
X126013256Y-57126115D02*
X124564367Y-56737886D01*
X124564367Y-56737886D02*
X123166744Y-61953885D01*
X124943553Y-60152372D02*
X123977628Y-59893553D01*
X124615633Y-62342114D02*
X126013256Y-57126115D01*
X255373772Y-45932181D02*
X255185314Y-40535470D01*
X255185314Y-40535470D02*
X253686228Y-40587819D01*
X254047754Y-43777145D02*
X254516040Y-42860244D01*
X255012246Y-42742855D02*
X254012855Y-42777754D01*
X255047145Y-43742246D02*
X254047754Y-43777145D01*
X253874686Y-45984530D02*
X255373772Y-45932181D01*
X253686228Y-40587819D02*
X253874686Y-45984530D01*
X254516040Y-42860244D02*
X255047145Y-43742246D01*
X102334963Y-68472404D02*
X100937340Y-73688403D01*
X102386229Y-74076632D02*
X103783852Y-68860633D01*
X103783852Y-68860633D02*
X102334963Y-68472404D01*
X102714149Y-71886890D02*
X101748224Y-71628071D01*
X100937340Y-73688403D02*
X102386229Y-74076632D01*
X102972968Y-70920965D02*
X102007043Y-70662146D01*
X102464124Y-70888148D02*
X102714149Y-71886890D01*
X101748224Y-71628071D02*
X102464124Y-70888148D01*
X86026970Y-42225118D02*
X86703165Y-41448741D01*
X85325028Y-44325065D02*
X86792249Y-44636932D01*
X86792249Y-44636932D02*
X87914972Y-39354935D01*
X87005118Y-42433030D02*
X86026970Y-42225118D01*
X86447751Y-39043068D02*
X85325028Y-44325065D01*
X87213030Y-41454882D02*
X86234882Y-41246970D01*
X87914972Y-39354935D02*
X86447751Y-39043068D01*
X86703165Y-41448741D02*
X87005118Y-42433030D01*
X102992499Y-112751492D02*
X102101492Y-112297501D01*
X102538508Y-113642499D02*
X101647501Y-113188508D01*
X102877519Y-110223790D02*
X100425971Y-115035225D01*
X100425971Y-115035225D02*
X101762481Y-115716210D01*
X102501596Y-112613597D02*
X102538508Y-113642499D01*
X101762481Y-115716210D02*
X104214029Y-110904775D01*
X104214029Y-110904775D02*
X102877519Y-110223790D01*
X101647501Y-113188508D02*
X102501596Y-112613597D01*
X234115362Y-39528723D02*
X232626543Y-39711527D01*
X233264662Y-42857208D02*
X233651252Y-41902982D01*
X234135338Y-41742792D02*
X233142792Y-41864662D01*
X232626543Y-39711527D02*
X233284638Y-45071277D01*
X234257208Y-42735338D02*
X233264662Y-42857208D01*
X233284638Y-45071277D02*
X234773457Y-44888473D01*
X233651252Y-41902982D02*
X234257208Y-42735338D01*
X234773457Y-44888473D02*
X234115362Y-39528723D01*
X121593256Y-75706115D02*
X120144367Y-75317886D01*
X119557628Y-78473553D02*
X120273528Y-77733630D01*
X120144367Y-75317886D02*
X118746744Y-80533885D01*
X120782372Y-77766447D02*
X119816447Y-77507628D01*
X120523553Y-78732372D02*
X119557628Y-78473553D01*
X120195633Y-80922114D02*
X121593256Y-75706115D01*
X120273528Y-77733630D02*
X120523553Y-78732372D01*
X118746744Y-80533885D02*
X120195633Y-80922114D01*
X104936744Y-55023885D02*
X106385633Y-55412114D01*
X106463528Y-52223630D02*
X106713553Y-53222372D01*
X106972372Y-52256447D02*
X106006447Y-51997628D01*
X105747628Y-52963553D02*
X106463528Y-52223630D01*
X106385633Y-55412114D02*
X107783256Y-50196115D01*
X106334367Y-49807886D02*
X104936744Y-55023885D01*
X106713553Y-53222372D02*
X105747628Y-52963553D01*
X107783256Y-50196115D02*
X106334367Y-49807886D01*
X44954686Y-39975470D02*
X44766228Y-45372181D01*
X46092246Y-43217145D02*
X45092855Y-43182246D01*
X45623960Y-42300244D02*
X46092246Y-43217145D01*
X45092855Y-43182246D02*
X45623960Y-42300244D01*
X44766228Y-45372181D02*
X46265314Y-45424530D01*
X46453772Y-40027819D02*
X44954686Y-39975470D01*
X46265314Y-45424530D02*
X46453772Y-40027819D01*
X46127145Y-42217754D02*
X45127754Y-42182855D01*
X214625971Y-109224775D02*
X217077519Y-114036210D01*
X216301492Y-111962499D02*
X216338404Y-110933597D01*
X217077519Y-114036210D02*
X218414029Y-113355225D01*
X217192499Y-111508508D02*
X216301492Y-111962499D01*
X215962481Y-108543790D02*
X214625971Y-109224775D01*
X218414029Y-113355225D02*
X215962481Y-108543790D01*
X216338404Y-110933597D02*
X217192499Y-111508508D01*
X216738508Y-110617501D02*
X215847501Y-111071492D01*
X202785633Y-91047886D02*
X201336744Y-91436115D01*
X203372372Y-94203553D02*
X202406447Y-94462372D01*
X204183256Y-96263885D02*
X202785633Y-91047886D01*
X202656472Y-93463630D02*
X203372372Y-94203553D01*
X203113553Y-93237628D02*
X202147628Y-93496447D01*
X201336744Y-91436115D02*
X202734367Y-96652114D01*
X202734367Y-96652114D02*
X204183256Y-96263885D01*
X202406447Y-94462372D02*
X202656472Y-93463630D01*
X183416744Y-98256115D02*
X184814367Y-103472114D01*
X184865633Y-97867886D02*
X183416744Y-98256115D01*
X184814367Y-103472114D02*
X186263256Y-103083885D01*
X185452372Y-101023553D02*
X184486447Y-101282372D01*
X186263256Y-103083885D02*
X184865633Y-97867886D01*
X185193553Y-100057628D02*
X184227628Y-100316447D01*
X184486447Y-101282372D02*
X184736472Y-100283630D01*
X184736472Y-100283630D02*
X185452372Y-101023553D01*
X198962481Y-117223790D02*
X197625971Y-117904775D01*
X201414029Y-122035225D02*
X198962481Y-117223790D01*
X199338404Y-119613597D02*
X200192499Y-120188508D01*
X200077519Y-122716210D02*
X201414029Y-122035225D01*
X199301492Y-120642499D02*
X199338404Y-119613597D01*
X200192499Y-120188508D02*
X199301492Y-120642499D01*
X197625971Y-117904775D02*
X200077519Y-122716210D01*
X199738508Y-119297501D02*
X198847501Y-119751492D01*
X85548508Y-104962499D02*
X84657501Y-104508508D01*
X86002499Y-104071492D02*
X85111492Y-103617501D01*
X87224029Y-102224775D02*
X85887519Y-101543790D01*
X85511596Y-103933597D02*
X85548508Y-104962499D01*
X84657501Y-104508508D02*
X85511596Y-103933597D01*
X84772481Y-107036210D02*
X87224029Y-102224775D01*
X83435971Y-106355225D02*
X84772481Y-107036210D01*
X85887519Y-101543790D02*
X83435971Y-106355225D01*
X174686744Y-61126115D02*
X176084367Y-66342114D01*
X176084367Y-66342114D02*
X177533256Y-65953885D01*
X176722372Y-63893553D02*
X175756447Y-64152372D01*
X176463553Y-62927628D02*
X175497628Y-63186447D01*
X175756447Y-64152372D02*
X176006472Y-63153630D01*
X177533256Y-65953885D02*
X176135633Y-60737886D01*
X176006472Y-63153630D02*
X176722372Y-63893553D01*
X176135633Y-60737886D02*
X174686744Y-61126115D01*
X258276228Y-60757819D02*
X258464686Y-66154530D01*
X259775314Y-60705470D02*
X258276228Y-60757819D01*
X259963772Y-66102181D02*
X259775314Y-60705470D01*
X259602246Y-62912855D02*
X258602855Y-62947754D01*
X258637754Y-63947145D02*
X259106040Y-63030244D01*
X259637145Y-63912246D02*
X258637754Y-63947145D01*
X258464686Y-66154530D02*
X259963772Y-66102181D01*
X259106040Y-63030244D02*
X259637145Y-63912246D01*
X198326472Y-75003630D02*
X199042372Y-75743553D01*
X199853256Y-77803885D02*
X198455633Y-72587886D01*
X198455633Y-72587886D02*
X197006744Y-72976115D01*
X198783553Y-74777628D02*
X197817628Y-75036447D01*
X198076447Y-76002372D02*
X198326472Y-75003630D01*
X198404367Y-78192114D02*
X199853256Y-77803885D01*
X199042372Y-75743553D02*
X198076447Y-76002372D01*
X197006744Y-72976115D02*
X198404367Y-78192114D01*
X240574882Y-81333030D02*
X240876835Y-80348741D01*
X241553030Y-81125118D02*
X240574882Y-81333030D01*
X241345118Y-80146970D02*
X240366970Y-80354882D01*
X241132249Y-77943068D02*
X239665028Y-78254935D01*
X240787751Y-83536932D02*
X242254972Y-83225065D01*
X239665028Y-78254935D02*
X240787751Y-83536932D01*
X240876835Y-80348741D02*
X241553030Y-81125118D01*
X242254972Y-83225065D02*
X241132249Y-77943068D01*
X96557340Y-92288403D02*
X98006229Y-92676632D01*
X98592968Y-89520965D02*
X97627043Y-89262146D01*
X97954963Y-87072404D02*
X96557340Y-92288403D01*
X99403852Y-87460633D02*
X97954963Y-87072404D01*
X98006229Y-92676632D02*
X99403852Y-87460633D01*
X97368224Y-90228071D02*
X98084124Y-89488148D01*
X98084124Y-89488148D02*
X98334149Y-90486890D01*
X98334149Y-90486890D02*
X97368224Y-90228071D01*
X40474686Y-60215470D02*
X40286228Y-65612181D01*
X41647145Y-62457754D02*
X40647754Y-62422855D01*
X40286228Y-65612181D02*
X41785314Y-65664530D01*
X41973772Y-60267819D02*
X40474686Y-60215470D01*
X41143960Y-62540244D02*
X41612246Y-63457145D01*
X40612855Y-63422246D02*
X41143960Y-62540244D01*
X41612246Y-63457145D02*
X40612855Y-63422246D01*
X41785314Y-65664530D02*
X41973772Y-60267819D01*
X36720908Y-82376165D02*
X37252013Y-81494163D01*
X37893367Y-84618449D02*
X38081825Y-79221738D01*
X38081825Y-79221738D02*
X36582739Y-79169389D01*
X36582739Y-79169389D02*
X36394281Y-84566100D01*
X36394281Y-84566100D02*
X37893367Y-84618449D01*
X37252013Y-81494163D02*
X37720299Y-82411064D01*
X37720299Y-82411064D02*
X36720908Y-82376165D01*
X37755198Y-81411673D02*
X36755807Y-81376774D01*
X236857751Y-64906932D02*
X238324972Y-64595065D01*
X237202249Y-59313068D02*
X235735028Y-59624935D01*
X237415118Y-61516970D02*
X236436970Y-61724882D01*
X236946835Y-61718741D02*
X237623030Y-62495118D01*
X238324972Y-64595065D02*
X237202249Y-59313068D01*
X237623030Y-62495118D02*
X236644882Y-62703030D01*
X235735028Y-59624935D02*
X236857751Y-64906932D01*
X236644882Y-62703030D02*
X236946835Y-61718741D01*
X121174029Y-119504775D02*
X119837519Y-118823790D01*
X119498508Y-122242499D02*
X118607501Y-121788508D01*
X118607501Y-121788508D02*
X119461596Y-121213597D01*
X117385971Y-123635225D02*
X118722481Y-124316210D01*
X118722481Y-124316210D02*
X121174029Y-119504775D01*
X119461596Y-121213597D02*
X119498508Y-122242499D01*
X119952499Y-121351492D02*
X119061492Y-120897501D01*
X119837519Y-118823790D02*
X117385971Y-123635225D01*
X82026970Y-60855118D02*
X82703165Y-60078741D01*
X82792249Y-63266932D02*
X83914972Y-57984935D01*
X83005118Y-61063030D02*
X82026970Y-60855118D01*
X83914972Y-57984935D02*
X82447751Y-57673068D01*
X82703165Y-60078741D02*
X83005118Y-61063030D01*
X83213030Y-60084882D02*
X82234882Y-59876970D01*
X82447751Y-57673068D02*
X81325028Y-62955065D01*
X81325028Y-62955065D02*
X82792249Y-63266932D01*
X218195118Y-63066970D02*
X217216970Y-63274882D01*
X218403030Y-64045118D02*
X217424882Y-64253030D01*
X217637751Y-66456932D02*
X219104972Y-66145065D01*
X217424882Y-64253030D02*
X217726835Y-63268741D01*
X216515028Y-61174935D02*
X217637751Y-66456932D01*
X217726835Y-63268741D02*
X218403030Y-64045118D01*
X219104972Y-66145065D02*
X217982249Y-60863068D01*
X217982249Y-60863068D02*
X216515028Y-61174935D01*
X180386472Y-81683630D02*
X181102372Y-82423553D01*
X180136447Y-82682372D02*
X180386472Y-81683630D01*
X180464367Y-84872114D02*
X181913256Y-84483885D01*
X180843553Y-81457628D02*
X179877628Y-81716447D01*
X179066744Y-79656115D02*
X180464367Y-84872114D01*
X181913256Y-84483885D02*
X180515633Y-79267886D01*
X181102372Y-82423553D02*
X180136447Y-82682372D01*
X180515633Y-79267886D02*
X179066744Y-79656115D01*
X221737751Y-85146932D02*
X223204972Y-84835065D01*
X221524882Y-82943030D02*
X221826835Y-81958741D01*
X223204972Y-84835065D02*
X222082249Y-79553068D01*
X220615028Y-79864935D02*
X221737751Y-85146932D01*
X221826835Y-81958741D02*
X222503030Y-82735118D01*
X222295118Y-81756970D02*
X221316970Y-81964882D01*
X222082249Y-79553068D02*
X220615028Y-79864935D01*
X222503030Y-82735118D02*
X221524882Y-82943030D01*
X66194638Y-37648723D02*
X65536543Y-43008473D01*
X67025362Y-43191277D02*
X67683457Y-37831527D01*
X66052792Y-40855338D02*
X66658748Y-40022982D01*
X65536543Y-43008473D02*
X67025362Y-43191277D01*
X67167208Y-39984662D02*
X66174662Y-39862792D01*
X67683457Y-37831527D02*
X66194638Y-37648723D01*
X66658748Y-40022982D02*
X67045338Y-40977208D01*
X67045338Y-40977208D02*
X66052792Y-40855338D01*
X183198332Y-128870045D02*
X182307325Y-129324036D01*
X181968314Y-125905327D02*
X180631804Y-126586312D01*
X182307325Y-129324036D02*
X182344237Y-128295134D01*
X184419862Y-130716762D02*
X181968314Y-125905327D01*
X182344237Y-128295134D02*
X183198332Y-128870045D01*
X183083352Y-131397747D02*
X184419862Y-130716762D01*
X182744341Y-127979038D02*
X181853334Y-128433029D01*
X180631804Y-126586312D02*
X183083352Y-131397747D01*
X214365118Y-44476970D02*
X213386970Y-44684882D01*
X213807751Y-47866932D02*
X215274972Y-47555065D01*
X212685028Y-42584935D02*
X213807751Y-47866932D01*
X214152249Y-42273068D02*
X212685028Y-42584935D01*
X213896835Y-44678741D02*
X214573030Y-45455118D01*
X213594882Y-45663030D02*
X213896835Y-44678741D01*
X215274972Y-47555065D02*
X214152249Y-42273068D01*
X214573030Y-45455118D02*
X213594882Y-45663030D01*
X63544122Y-58484953D02*
X63846075Y-59469242D01*
X63846075Y-59469242D02*
X62867927Y-59261330D01*
X62867927Y-59261330D02*
X63544122Y-58484953D01*
X62165985Y-61361277D02*
X63633206Y-61673144D01*
X63633206Y-61673144D02*
X64755929Y-56391147D01*
X63288708Y-56079280D02*
X62165985Y-61361277D01*
X64755929Y-56391147D02*
X63288708Y-56079280D01*
X64053987Y-58491094D02*
X63075839Y-58283182D01*
X78497751Y-76293068D02*
X77375028Y-81575065D01*
X79263030Y-78704882D02*
X78284882Y-78496970D01*
X79055118Y-79683030D02*
X78076970Y-79475118D01*
X78076970Y-79475118D02*
X78753165Y-78698741D01*
X79964972Y-76604935D02*
X78497751Y-76293068D01*
X78753165Y-78698741D02*
X79055118Y-79683030D01*
X77375028Y-81575065D02*
X78842249Y-81886932D01*
X78842249Y-81886932D02*
X79964972Y-76604935D01*
X194364367Y-59392114D02*
X195813256Y-59003885D01*
X195002372Y-56943553D02*
X194036447Y-57202372D01*
X194036447Y-57202372D02*
X194286472Y-56203630D01*
X194743553Y-55977628D02*
X193777628Y-56236447D01*
X192966744Y-54176115D02*
X194364367Y-59392114D01*
X194286472Y-56203630D02*
X195002372Y-56943553D01*
X195813256Y-59003885D02*
X194415633Y-53787886D01*
X194415633Y-53787886D02*
X192966744Y-54176115D01*
X59653206Y-80373144D02*
X60775929Y-75091147D01*
X58887927Y-77961330D02*
X59564122Y-77184953D01*
X60775929Y-75091147D02*
X59308708Y-74779280D01*
X58185985Y-80061277D02*
X59653206Y-80373144D01*
X59866075Y-78169242D02*
X58887927Y-77961330D01*
X59308708Y-74779280D02*
X58185985Y-80061277D01*
X60073987Y-77191094D02*
X59095839Y-76983182D01*
X59564122Y-77184953D02*
X59866075Y-78169242D01*
X116233553Y-97212372D02*
X115267628Y-96953553D01*
X115905633Y-99402114D02*
X117303256Y-94186115D01*
X117303256Y-94186115D02*
X115854367Y-93797886D01*
X115983528Y-96213630D02*
X116233553Y-97212372D01*
X115267628Y-96953553D02*
X115983528Y-96213630D01*
X115854367Y-93797886D02*
X114456744Y-99013885D01*
X116492372Y-96246447D02*
X115526447Y-95987628D01*
X114456744Y-99013885D02*
X115905633Y-99402114D01*
X263643772Y-85162181D02*
X263455314Y-79765470D01*
X263282246Y-81972855D02*
X262282855Y-82007754D01*
X262786040Y-82090244D02*
X263317145Y-82972246D01*
X262317754Y-83007145D02*
X262786040Y-82090244D01*
X262144686Y-85214530D02*
X263643772Y-85162181D01*
X261956228Y-79817819D02*
X262144686Y-85214530D01*
X263455314Y-79765470D02*
X261956228Y-79817819D01*
X263317145Y-82972246D02*
X262317754Y-83007145D01*
%LPC*%
D13*
X130962400Y-65659000D03*
D14*
X125649808Y-64235495D03*
X136274992Y-67082505D03*
D15*
X129435368Y-71357962D03*
X125149258Y-68035423D03*
D16*
X125049404Y-57825482D03*
X124130596Y-61254518D03*
D14*
X107412608Y-57377495D03*
X118037792Y-60224505D03*
D13*
X112725200Y-58801000D03*
D15*
X111198168Y-64499962D03*
X106912058Y-61177423D03*
D14*
X71597612Y-84480914D03*
D13*
X66217800Y-83337400D03*
D14*
X60837988Y-82193886D03*
D15*
X64991121Y-89108471D03*
X60536998Y-86014802D03*
D14*
X254807812Y-82168486D03*
D13*
X249428000Y-83312000D03*
D14*
X244048188Y-84455514D03*
D15*
X250654679Y-89083071D03*
X245327326Y-88068519D03*
D17*
X254468053Y-41486081D03*
X254591947Y-45033919D03*
D14*
X198758992Y-101344895D03*
D13*
X193446400Y-102768400D03*
D14*
X188133808Y-104191905D03*
D15*
X194973432Y-108467362D03*
X189600283Y-107733013D03*
D14*
X131906192Y-85624505D03*
X121281008Y-82777495D03*
D13*
X126593600Y-84201000D03*
D15*
X125066568Y-89899962D03*
X120780458Y-86577423D03*
D16*
X102820000Y-69560000D03*
X101901192Y-72989036D03*
D18*
X86989043Y-40103788D03*
X86250957Y-43576212D03*
D14*
X196289536Y-126408052D03*
D13*
X191389000Y-128905000D03*
D14*
X186488464Y-131401948D03*
D15*
X194067544Y-134161938D03*
X188659131Y-134560777D03*
D19*
X103125833Y-111388463D03*
X101514167Y-114551537D03*
D20*
X233483682Y-40538231D03*
X233916318Y-44061769D03*
D16*
X120629404Y-76405482D03*
X119710596Y-79834518D03*
D14*
X116912208Y-101319495D03*
D13*
X122224800Y-102743000D03*
D14*
X127537392Y-104166505D03*
D15*
X120697768Y-108441962D03*
X116411658Y-105119423D03*
D21*
X135370000Y-110890000D03*
D14*
X230249336Y-109085252D03*
X220448264Y-114079148D03*
D13*
X225348800Y-111582200D03*
D15*
X228027344Y-116839138D03*
X222618931Y-117237977D03*
D16*
X106819404Y-50895482D03*
X105900596Y-54324518D03*
D22*
X45671947Y-40926081D03*
X45548053Y-44473919D03*
D23*
X215714167Y-109708463D03*
X217325833Y-112871537D03*
D24*
X202300596Y-92135482D03*
X203219404Y-95564518D03*
D14*
X54213850Y-67679747D03*
D13*
X48717200Y-67487800D03*
D14*
X43220550Y-67295853D03*
D15*
X48511293Y-73384206D03*
X43587628Y-71110988D03*
D24*
X184380596Y-98955482D03*
X185299404Y-102384518D03*
D23*
X198714167Y-118388463D03*
X200325833Y-121551537D03*
D14*
X75560012Y-65837314D03*
D13*
X70180200Y-64693800D03*
D14*
X64800388Y-63550286D03*
D15*
X68953521Y-70464871D03*
X64499398Y-67371202D03*
D14*
X94711612Y-67386714D03*
D13*
X89331800Y-66243200D03*
D14*
X83951988Y-65099686D03*
D15*
X88105121Y-72014271D03*
X83650998Y-68920602D03*
D13*
X184708800Y-65659000D03*
D14*
X179396208Y-67082505D03*
X190021392Y-64235495D03*
D15*
X186235832Y-71357962D03*
X180862683Y-70623613D03*
D13*
X266928600Y-67462400D03*
D14*
X272425250Y-67270453D03*
X261431950Y-67654347D03*
D15*
X267134507Y-73358806D03*
X262064264Y-71434583D03*
D19*
X86135833Y-102708463D03*
X84524167Y-105871537D03*
D14*
X203455664Y-122740548D03*
X213256736Y-117746652D03*
D13*
X208356200Y-120243600D03*
D15*
X211034744Y-125500538D03*
X205626331Y-125899377D03*
D14*
X216695692Y-94539395D03*
X206070508Y-97386405D03*
D13*
X211383100Y-95962900D03*
D15*
X212910132Y-101661862D03*
X207536983Y-100927513D03*
D24*
X175650596Y-61825482D03*
X176569404Y-65254518D03*
D17*
X259058053Y-61656081D03*
X259181947Y-65203919D03*
D14*
X79964188Y-83743286D03*
X90723812Y-86030314D03*
D13*
X85344000Y-84886800D03*
D15*
X84117321Y-90657871D03*
X79663198Y-87564202D03*
D24*
X197970596Y-73675482D03*
X198889404Y-77104518D03*
D25*
X240590957Y-79003788D03*
X241329043Y-82476212D03*
D16*
X98440000Y-88160000D03*
X97521192Y-91589036D03*
D14*
X47767150Y-47052053D03*
D13*
X53263800Y-47244000D03*
D14*
X58760450Y-47435947D03*
D15*
X53057893Y-53140406D03*
X48134228Y-50867188D03*
D22*
X41191947Y-61166081D03*
X41068053Y-64713919D03*
D14*
X217022588Y-48768514D03*
X227782212Y-46481486D03*
D13*
X222402400Y-47625000D03*
D15*
X223629079Y-53396071D03*
X218301726Y-52381519D03*
D14*
X109655792Y-97410105D03*
D13*
X104343200Y-95986600D03*
D14*
X99030608Y-94563095D03*
D15*
X102816168Y-101685562D03*
X98530058Y-98363023D03*
D21*
X141970000Y-86200000D03*
D13*
X73761600Y-45643800D03*
D14*
X79220604Y-46314081D03*
X68302596Y-44973519D03*
D15*
X73042571Y-51499822D03*
X68335766Y-48806129D03*
D22*
X37300000Y-80120000D03*
X37176106Y-83667838D03*
D14*
X98674012Y-48743114D03*
D13*
X93294200Y-47599600D03*
D14*
X87914388Y-46456086D03*
D15*
X92067521Y-53370671D03*
X87613398Y-50277002D03*
D25*
X236660957Y-60373788D03*
X237399043Y-63846212D03*
D14*
X247368604Y-44948119D03*
X236450596Y-46288681D03*
D13*
X241909600Y-45618400D03*
D15*
X242628629Y-51474422D03*
X237409973Y-49999422D03*
D13*
X245491000Y-64668400D03*
D14*
X250870812Y-63524886D03*
X240111188Y-65811914D03*
D15*
X246717679Y-70439471D03*
X241390326Y-69424919D03*
D14*
X276311450Y-86244253D03*
X265318150Y-86628147D03*
D13*
X270814800Y-86436200D03*
D15*
X271020707Y-92332606D03*
X265950464Y-90408383D03*
D13*
X226339400Y-66243200D03*
D14*
X231719212Y-65099686D03*
X220959588Y-67386714D03*
D15*
X227566079Y-72014271D03*
X222238726Y-70999719D03*
D19*
X120085833Y-119988463D03*
X118474167Y-123151537D03*
D13*
X90322400Y-111607600D03*
D14*
X85421864Y-109110652D03*
X95222936Y-114104548D03*
D15*
X87643856Y-116864538D03*
X84142203Y-112723472D03*
D18*
X82989043Y-58733788D03*
X82250957Y-62206212D03*
D25*
X217440957Y-61923788D03*
X218179043Y-65396212D03*
D21*
X173690000Y-86200000D03*
D24*
X180030596Y-80355482D03*
X180949404Y-83784518D03*
D13*
X44881800Y-86436200D03*
D14*
X39385150Y-86244253D03*
X50378450Y-86628147D03*
D15*
X44675893Y-92332606D03*
X39752228Y-90059388D03*
D26*
X165472400Y-74927000D03*
X165472400Y-77467000D03*
X165472400Y-80007000D03*
X165472400Y-82547000D03*
X165472400Y-85087000D03*
X165472400Y-87627000D03*
X165472400Y-90167000D03*
X165472400Y-92707000D03*
X165472400Y-95247000D03*
X165472400Y-97787000D03*
X165472400Y-100327000D03*
X165472400Y-102867000D03*
X150252400Y-102867000D03*
X150252400Y-100327000D03*
X150252400Y-97787000D03*
X150252400Y-95247000D03*
X150252400Y-92707000D03*
X150252400Y-90167000D03*
X150252400Y-87627000D03*
X150252400Y-85087000D03*
X150252400Y-82547000D03*
X150252400Y-80007000D03*
X150252400Y-77467000D03*
X150252400Y-74927000D03*
D14*
X267904050Y-47052053D03*
X256910750Y-47435947D03*
D13*
X262407400Y-47244000D03*
D15*
X262613307Y-53140406D03*
X257543064Y-51216183D03*
D25*
X221540957Y-80613788D03*
X222279043Y-84086212D03*
D27*
X66826318Y-38658231D03*
X66393682Y-42181769D03*
D28*
X158035000Y-112005000D03*
D15*
X154850000Y-111950000D03*
X161350000Y-111950000D03*
D23*
X181720000Y-127070000D03*
X183331666Y-130233074D03*
D25*
X213610957Y-43333788D03*
X214349043Y-46806212D03*
D18*
X63830000Y-57140000D03*
X63091914Y-60612424D03*
D14*
X197658808Y-60199105D03*
D13*
X202971400Y-58775600D03*
D14*
X208283992Y-57352095D03*
D15*
X204498432Y-64474562D03*
X199125283Y-63740213D03*
D18*
X79039043Y-77353788D03*
X78300957Y-80826212D03*
D24*
X193930596Y-54875482D03*
X194849404Y-58304518D03*
D14*
X112215536Y-122740548D03*
D13*
X107315000Y-120243600D03*
D14*
X102414464Y-117746652D03*
D15*
X104636456Y-125500538D03*
X101134803Y-121359472D03*
D13*
X206984600Y-77444600D03*
D14*
X201672008Y-78868105D03*
X212297192Y-76021095D03*
D15*
X208511632Y-83143562D03*
X203138483Y-82409213D03*
D18*
X59850000Y-75840000D03*
X59111914Y-79312424D03*
D16*
X116339404Y-94885482D03*
X115420596Y-98314518D03*
D14*
X119362664Y-126387752D03*
X129163736Y-131381648D03*
D13*
X124263200Y-128884700D03*
D15*
X121584656Y-134141638D03*
X118083003Y-130000572D03*
D13*
X230327200Y-84886800D03*
D14*
X224947388Y-86030314D03*
X235707012Y-83743286D03*
D15*
X231553879Y-90657871D03*
X226226526Y-89643319D03*
D13*
X189077600Y-84201000D03*
D14*
X183765008Y-85624505D03*
X194390192Y-82777495D03*
D15*
X190604632Y-89899962D03*
X185231483Y-89165613D03*
D17*
X262738053Y-80716081D03*
X262861947Y-84263919D03*
D21*
X180280000Y-110850000D03*
D14*
X114024592Y-78842705D03*
X103399408Y-75995695D03*
D13*
X108712000Y-77419200D03*
D15*
X107184968Y-83118162D03*
X102898858Y-79795623D03*
M02*
